<svg width="604" height="574" viewBox="0 0 604 574" fill="none" xmlns="http://www.w3.org/2000/svg">
<path d="M570 99L570 479" stroke="#7E6034"/>
<path d="M498 541H103" stroke="#7E6034"/>
<path d="M504 531H98" stroke="#7E6034"/>
<path d="M21 93L21 485" stroke="#7E6034"/>
<path d="M580 99L580 485" stroke="#7E6034"/>
<path d="M516 19L89 19" stroke="#7E6034"/>
<path d="M31 98L31 479" stroke="#7E6034"/>
<path d="M509 26L97 26" stroke="#7E6034"/>
<g clip-path="url(#clip0_7_3)">
<path d="M31.4062 42.9998C28.0188 46.3964 29.2136 51.1537 29.9852 53.9914C27.8447 51.8566 24.2311 51.4858 24.2843 49.3756C22.6145 53.0589 29.8932 55.0882 30.7337 57.0438C31.0582 58.025 31.4352 58.9882 31.8632 59.9293C28.4208 57.0429 23.8171 56.469 22.8084 54.0843C21.7258 58.7573 32.2491 61.3601 33.3869 63.0892C33.8546 63.9596 34.3221 64.8063 34.8015 65.641C30.3692 62.5993 24.3989 63.4914 23.4367 60.7251C22.3313 65.7558 35.8091 67.6681 37.1744 69.6715C37.5219 70.2558 37.8456 70.8401 38.1692 71.4006C38.4928 71.961 38.9124 72.7361 39.284 73.3919C34.5402 69.8732 26.409 69.7511 25.2317 66.8417C24.2106 72.1228 40.3739 75.0256 41.7055 77.7324C42.3592 78.9333 42.9133 80.1856 43.3622 81.4765C39.7467 76.5395 29.0147 75.8681 27.8495 72.9944C26.8164 78.2398 43.4119 82.1203 43.344 87.2348C42.8916 89.1764 41.9061 90.9515 40.4983 92.3603C39.2714 93.5306 37.9509 94.5987 36.5499 95.554C34.8977 95.4172 33.3127 94.8312 31.9667 93.8595C32.3173 93.8869 32.6694 93.834 32.9959 93.7047C33.3225 93.5754 33.6149 93.3731 33.851 93.1133C34.0871 92.8535 34.2606 92.543 34.3582 92.2056C34.4559 91.8681 34.4751 91.5125 34.4144 91.166C33.9912 89.1987 31.3356 90.2111 31.5437 88.0891C30.6663 88.2181 29.8508 88.6145 29.2084 89.2244C28.566 89.8343 28.1279 90.6281 27.9536 91.4975C27.6608 93.2022 29.29 95.7542 31.5618 94.0024C32.5326 95.6838 35.1558 95.8039 35.1221 96.4596C33.2737 97.5793 31.0989 98.0399 28.951 97.7664C26.8031 97.4929 24.8083 96.5015 23.2907 94.9533C21.9034 93.6373 20.8337 92.0232 20.163 90.2338C19.4923 88.4444 19.2383 86.5269 19.4203 84.6274C19.7333 81.7066 23.3897 80.5037 24.2226 83.878C21.4903 83.1498 21.0449 85.6771 22.6123 87.5256C23.5576 88.6585 25.3456 88.516 25.1824 89.732C25.6428 88.2658 27.7502 87.3247 27.9839 85.7749C28.0342 85.3709 27.9699 84.9605 27.7985 84.5904C27.627 84.2203 27.3553 83.9055 27.0142 83.6817C26.673 83.458 26.2763 83.3343 25.869 83.3248C25.4618 83.3152 25.0604 83.4202 24.7107 83.6278C24.6793 82.9857 24.4279 82.3732 23.9987 81.8933C23.5696 81.4133 22.9888 81.0951 22.354 80.9922C21.018 80.7533 20.0668 81.6113 19.6731 81.5277C20.3376 76.5803 21.4555 71.7761 17.187 67.7092C12.9184 63.6423 9.2979 64.9047 7.18209 66.9784C4.40083 69.7672 3.41238 74.0349 6.72474 77.2908C9.45127 80.01 12.6967 80.8696 14.7529 78.8078C16.8092 76.746 14.6801 74.48 14.0105 73.8122C13.556 73.359 13.021 73.8476 13.5113 74.3127C14.2288 75.0283 16.3436 76.5431 14.3823 78.4619C12.421 80.3806 9.1984 79.1873 7.14103 76.9691C4.23446 73.8564 5.03375 70.1132 7.73218 67.527C9.72899 65.5248 13.4231 64.9539 16.6161 68.1859C24.1384 75.8068 12.7839 86.0199 22.5301 95.7398C26.9069 100.105 34.4668 100.513 41.5269 93.4337C48.587 86.3545 43.6614 77.9477 40.3999 71.7948C37.1383 65.6418 25.0279 50.8304 32.0762 43.7869C32.5898 43.1852 33.2263 42.7004 33.9433 42.3653C34.6602 42.0301 35.441 41.8522 36.2334 41.8434C37.0257 41.8347 37.8114 41.9953 38.5378 42.3145C39.2642 42.6338 39.9145 43.1043 40.4453 43.6945C42.6576 45.9009 43.2127 48.0947 41.2278 50.085C39.2428 52.0753 37.9175 51.4191 36.8393 49.7019C36.5637 49.2607 35.9205 49.4512 36.2442 50.0355C36.4961 50.5105 36.8638 50.9146 37.313 51.2101C37.7622 51.5057 38.2785 51.6832 38.8138 51.7262C39.3491 51.7692 39.8862 51.6763 40.3751 51.4561C40.864 51.2359 41.2889 50.8956 41.6104 50.4667C44.1421 47.9281 42.6427 44.9113 40.9087 43.182C39.1747 41.4527 35.1143 39.2099 31.4062 42.9998Z" fill="#3751A3"/>
<path d="M25.0558 83.4731C24.529 83.6669 23.9733 83.7715 23.4115 83.7825L23.555 83.9256C23.3879 83.8778 22.0517 83.5436 21.3504 84.2467C20.6491 84.9499 21.0121 86.6906 21.8018 87.6208C22.7471 88.7537 24.5469 88.5994 24.3718 89.8273C24.8323 88.361 26.9396 87.4199 27.1733 85.8702C27.2056 85.5714 27.1751 85.269 27.0838 84.9823C26.9925 84.6956 26.8423 84.4309 26.643 84.2052C26.4436 83.9796 26.1995 83.7979 25.9262 83.6718C25.6528 83.5457 25.3564 83.478 25.0558 83.4731Z" fill="#E9445A"/>
<path d="M31.4825 87.6242C30.6045 87.7502 29.7876 88.1439 29.143 88.7517C28.4985 89.3595 28.0576 90.1517 27.8805 91.0207C27.6347 92.5109 28.8334 94.6334 30.6555 94.0022L30.7981 93.8592C31.0283 93.7585 31.2476 93.6348 31.4527 93.4898L31.5125 93.5495L31.9771 93.4423C31.9771 93.4423 31.8934 93.3589 31.8695 93.335C32.2202 93.3624 32.5722 93.3095 32.8988 93.1802C33.2253 93.0509 33.5178 92.8486 33.7539 92.5888C33.99 92.329 34.1634 92.0186 34.2611 91.6811C34.3587 91.3436 34.3779 90.9881 34.3173 90.6415C33.9896 88.7458 31.2624 89.7343 31.4825 87.6242Z" fill="#E9445A"/>
<path d="M40.7872 46.5082C39.7045 47.2351 37.3631 45.6844 36.6928 48.7242C37.0931 48.987 37.5568 49.1367 38.0346 49.1574C38.5124 49.1781 38.9864 49.0691 39.4063 48.8418C39.8262 48.6145 40.1763 48.2776 40.4195 47.8667C40.6626 47.4558 40.7897 46.9863 40.7872 46.5082Z" fill="#294921"/>
<path d="M35.8713 48.9744C36.1407 48.57 36.3093 48.1067 36.3629 47.6231C36.4166 47.1396 36.3537 46.6498 36.1797 46.1947C36.0056 45.7396 35.7254 45.3323 35.3623 45.0069C34.9992 44.6815 34.5639 44.4474 34.0926 44.3242C34.7165 45.612 32.9457 47.4593 35.8713 48.9744Z" fill="#294921"/>
<path d="M30.5448 49.962C31.8795 49.7717 33.4484 52.0971 35.3487 49.7372C35.0771 49.3367 34.7072 49.0126 34.2747 48.7958C33.8421 48.5791 33.3615 48.4771 32.879 48.4997C32.3965 48.5223 31.9283 48.6687 31.5195 48.9248C31.1107 49.1809 30.775 49.5381 30.5448 49.962Z" fill="#294921"/>
<path d="M16.2244 69.0084C15.5363 70.1288 12.8759 69.5437 13.4579 72.7152C13.9279 72.7861 14.408 72.7285 14.8471 72.5484C15.2862 72.3683 15.6679 72.0724 15.9516 71.6922C16.2353 71.3121 16.4106 70.8618 16.4586 70.3892C16.5066 69.9167 16.4257 69.4395 16.2244 69.0084Z" fill="#294921"/>
<path d="M9.44227 69.4948C10.4707 70.5204 9.63169 72.9642 12.8159 73.2872C12.9124 72.8056 12.8955 72.3078 12.7666 71.8331C12.6376 71.3584 12.4002 70.9198 12.073 70.552C11.7458 70.1842 11.3378 69.8972 10.8812 69.7137C10.4246 69.5302 9.93202 69.4553 9.44227 69.4948Z" fill="#294921"/>
<path d="M8.49804 76.3019C9.61661 75.6108 11.8631 77.2807 12.6883 74.2289C12.2944 73.9584 11.8357 73.7977 11.3597 73.7634C10.8837 73.729 10.4077 73.8223 9.9806 74.0336C9.55354 74.2448 9.19099 74.5665 8.93037 74.9652C8.66975 75.364 8.5205 75.8254 8.49804 76.3019Z" fill="#294921"/>
<path d="M58.7748 57.1252C58.7275 57.723 58.913 58.3168 59.2925 58.7826C59.2925 58.7826 58.0275 58.3768 57.4205 58.6985L56.6406 57.0887L58.1417 56.7316L58.7748 57.1252Z" fill="#B7324B"/>
<path d="M58.2007 56.7435C58.1698 57.0373 58.1987 57.3345 58.2857 57.6173C58.3726 57.9 58.5157 58.1625 58.7065 58.3889C58.7065 58.3889 57.4534 57.995 56.8345 58.3286L56.0665 56.707L57.5558 56.3617L58.2007 56.7435Z" fill="#FDBF5F"/>
<path d="M56.9512 57.3511C57.5014 57.6108 58.1246 57.6696 58.7123 57.5173C59.3 57.365 59.815 57.0113 60.1676 56.5176C60.1676 56.5176 58.3213 57.0535 57.9712 55.6108C57.4883 53.6554 56.9512 57.3511 56.9512 57.3511Z" fill="#CD3B53"/>
<path d="M57.3912 57.1248C57.7254 57.6353 57.8712 58.2458 57.8034 58.851C57.7356 59.4561 57.4585 60.0178 57.0198 60.439C57.0198 60.439 57.2764 58.5554 55.8095 58.3999C53.8178 58.1727 57.3912 57.1248 57.3912 57.1248Z" fill="#E85978"/>
<path d="M47.2042 59.0168C43.9049 56.1543 44.321 51.8387 47.1722 48.5492C50.0235 45.2598 54.2409 44.2598 57.5401 47.1222C60.8393 49.9847 60.495 54.348 57.6437 57.6375C54.7925 60.927 50.5273 61.9031 47.2042 59.0168Z" fill="#E9445A"/>
<path d="M49.6116 58.9939C49.2375 58.651 48.9384 58.2345 48.7333 57.7706C48.5281 57.3067 48.4214 56.8056 48.4198 56.299C48.4183 55.7925 48.5219 55.2915 48.7242 54.8277C48.9266 54.364 49.2231 53.9477 49.5951 53.6051C49.8805 53.1861 50.2505 52.8316 50.6814 52.5645C51.1123 52.2975 51.5946 52.1236 52.0974 52.0542C52.6001 51.9848 53.1122 52.0213 53.6007 52.1614C54.0892 52.3015 54.5434 52.5421 54.934 52.8678C55.3112 53.2106 55.6134 53.6277 55.8214 54.0927C56.0295 54.5577 56.1389 55.0605 56.1427 55.5693C56.1465 56.0781 56.0445 56.5818 55.8434 57.0485C55.6423 57.5151 55.3464 57.9347 54.9743 58.2804C54.6822 58.6951 54.3075 59.0447 53.8736 59.3074C53.4397 59.5701 52.9559 59.7402 52.4525 59.8072C51.9492 59.8742 51.4371 59.8365 50.9483 59.6966C50.4594 59.5566 50.0044 59.3174 49.6116 58.9939Z" fill="#E85978"/>
<path d="M50.7089 58.8988C50.4863 58.701 50.3079 58.4586 50.1855 58.1873C50.063 57.916 49.9993 57.6221 49.9984 57.3249C49.9975 57.0276 50.0594 56.7338 50.1802 56.4626C50.301 56.1914 50.4779 55.949 50.6993 55.7514C50.8666 55.5089 51.0824 55.3038 51.3331 55.1489C51.5838 54.9941 51.8639 54.8928 52.156 54.8515C52.448 54.8101 52.7457 54.8297 53.0302 54.9088C53.3148 54.988 53.5801 55.125 53.8096 55.3114C54.0306 55.5119 54.2078 55.7559 54.3302 56.0279C54.4525 56.2999 54.5173 56.5942 54.5205 56.8921C54.5236 57.19 54.4651 57.4851 54.3485 57.7588C54.2319 58.0326 54.0598 58.279 53.8431 58.4827C53.6723 58.7249 53.4533 58.9292 53.1996 59.0826C52.946 59.2361 52.6632 59.3355 52.3691 59.3745C52.0749 59.4136 51.7756 59.3915 51.4899 59.3096C51.2043 59.2278 50.9384 59.0879 50.7089 58.8988Z" fill="#EC698B"/>
<path d="M48.0737 51.089C50.4497 48.3478 54.0238 47.5145 56.7016 49.876C57.2791 50.3878 57.7499 51.0087 58.0869 51.7026C58.4238 52.3966 58.6202 53.1499 58.6647 53.9192C58.7091 54.6885 58.6008 55.4584 58.346 56.1846C58.0911 56.9108 57.6948 57.5788 57.1798 58.1501L57.6672 57.6614C60.5184 54.372 60.8628 50.0086 57.5636 47.1462C54.2643 44.2837 50.0469 45.2837 47.1957 48.5731C44.3444 51.8626 43.9284 56.1783 47.2276 59.0407C47.3639 59.1909 47.5076 59.3342 47.6581 59.4701C45.3974 57.0491 45.8164 53.6872 48.0737 51.089Z" fill="#CD3B53"/>
<path d="M47.2111 49.8488C50.0624 46.5594 54.2917 45.5475 57.6384 48.3623C58.9023 49.4197 59.7205 50.9151 59.9283 52.5478C60.0096 51.5185 59.8401 50.484 59.4344 49.5329C59.0287 48.5818 58.3988 47.7424 57.5988 47.0866C54.2995 44.2242 50.0822 45.2241 47.2309 48.5136C46.4372 49.3608 45.828 50.3638 45.4415 51.4593C45.055 52.5548 44.8996 53.7191 44.9851 54.8792C45.1848 53.0098 45.963 51.2514 47.2111 49.8488Z" fill="#B02F48"/>
<path d="M29.4227 53.2879C27.4376 51.3081 24.0983 50.9731 24.1401 49.0179C22.6006 52.4271 29.3898 54.2536 30.1227 56.1017C30.4141 57.0138 30.7551 57.9094 31.1443 58.7845C27.9767 56.101 23.719 55.5868 22.7823 53.369C21.7821 57.6963 31.5538 60.1438 32.5719 61.706C32.9916 62.5049 33.4112 63.2561 33.8786 64.0551C29.7808 61.2519 24.2395 62.0726 23.3733 59.521C22.3502 64.1583 34.8143 65.9391 36.036 67.7993C36.3715 68.3479 36.6712 68.8845 36.9589 69.4091C37.2466 69.9338 37.6542 70.6493 37.9898 71.2455C33.6045 67.9892 26.1052 67.8793 24.9762 65.1606C24.0254 70.0364 38.9361 72.6884 40.1956 75.2282C40.7993 76.3383 41.3131 77.4946 41.7322 78.6861C38.392 74.1188 28.4709 73.4954 27.3779 70.8364C26.9438 73.1372 30.1212 75.1412 33.6322 77.0738C35.9349 78.1653 38.1002 79.5268 40.0825 81.1296C40.9072 81.8094 41.529 82.4296 41.9356 82.8351C42.301 83.0929 42.597 83.4371 42.7971 83.8368C42.9537 84.1733 43.0362 84.5393 43.0388 84.9099C44.6082 79.5813 41.3961 74.0245 39.1177 69.7079C37.367 66.393 32.6625 60.1323 30.5343 54.2301C30.1282 53.9915 29.7695 53.6337 29.4227 53.2879Z" fill="#F79A3F"/>
<path d="M23.6022 83.8778C23.8893 84.0412 24.1478 84.2507 24.3671 84.498C25.8746 86.2392 24.5487 89.3146 24.4539 89.5053L24.4668 89.8272C24.6146 89.4957 24.7891 89.1768 24.9884 88.8736C25.1673 88.5839 25.3741 88.3124 25.6059 88.0631C25.8802 87.7624 26.1919 87.4981 26.5334 87.2766C26.7875 87.1333 27.0099 86.9402 27.1874 86.7088C27.3649 86.4774 27.4938 86.2125 27.5665 85.9298C27.68 85.4533 27.6236 84.9516 27.4072 84.511C27.2733 84.2525 27.0891 84.0232 26.8653 83.8367C26.6416 83.6503 26.3828 83.5105 26.1044 83.4257C25.7848 83.3519 25.4516 83.3641 25.1388 83.4611L23.6022 83.8778Z" fill="#EE6F84"/>
<path d="M42.507 31.8687C45.942 28.4244 50.6426 29.4991 53.4823 30.2392C51.3895 28.1521 51.0806 24.5873 48.9945 24.6701C52.685 22.9307 54.5193 30.18 56.4887 30.908C57.4314 31.2063 58.3982 31.5524 59.3532 31.9581C56.5294 28.6189 56.0505 24.0526 53.687 23.098C58.345 21.9194 60.7851 32.3639 62.4693 33.4256C63.3052 33.8551 64.1411 34.3084 64.977 34.7618C62.0789 30.4927 63.0143 24.4843 60.2934 23.6011C65.297 22.3868 66.971 35.7282 68.9539 36.9926C69.5391 37.3147 70.1004 37.6368 70.6617 37.935C71.2229 38.2333 71.9753 38.6508 72.6202 39.0087C69.2082 34.3698 69.2194 26.3225 66.3667 25.2127C71.6327 24.07 74.2328 40.0465 76.8834 41.3112C78.0668 41.9355 79.3008 42.4585 80.5721 42.8743C75.7449 39.3913 75.2594 28.7567 72.4424 27.635C77.6728 26.5043 81.2398 42.8984 86.318 42.7094C88.2573 42.1947 90.0259 41.18 91.4475 39.7665C92.6156 38.5386 93.684 37.2194 94.6425 35.8214C94.5282 34.1994 93.9754 32.6373 93.0431 31.3024C93.0621 31.6553 93.0028 32.0077 92.8695 32.3344C92.7361 32.6612 92.532 32.9541 92.2717 33.1922C92.0115 33.4303 91.7015 33.6076 91.3642 33.7115C91.0269 33.8154 90.6704 33.8433 90.3205 33.7931C88.4119 33.4586 89.4171 30.7527 87.3196 31.0142C87.4645 30.1247 87.8724 29.2998 88.4908 28.6457C89.1092 27.9915 89.9098 27.538 90.7896 27.3435C92.4816 27.0341 94.99 28.5849 93.1968 30.8852C94.8686 31.7918 94.9362 34.4028 95.5918 34.3672C96.7514 32.5607 97.2572 30.4099 97.0251 28.2717C96.7931 26.1334 95.8372 24.1363 94.3161 22.6117C93.0126 21.2635 91.4137 20.2369 89.6465 19.6133C87.8792 18.9897 85.9922 18.7864 84.1355 19.0195C81.2396 19.3881 79.9751 23.0477 83.3037 23.8C82.6278 21.1053 85.1538 20.6055 86.9467 22.1083C88.0582 23.0267 87.8848 24.803 89.1601 24.6723C87.7071 25.1725 86.724 27.2824 85.1869 27.5561C84.7907 27.6082 84.3875 27.5466 84.0243 27.3783C83.6611 27.2101 83.3529 26.9422 83.1357 26.6059C82.9184 26.2696 82.8011 25.8788 82.7973 25.4791C82.7936 25.0793 82.9036 24.6871 83.1146 24.3483C82.4991 24.3243 81.9101 24.0877 81.4481 23.6789C80.986 23.2701 80.6793 22.7143 80.5802 22.1061C80.3735 20.7827 81.229 19.8292 81.1563 19.4477C76.2229 20.2089 71.4577 21.4233 67.4751 17.2849C63.4924 13.1466 64.8405 9.52273 66.9321 7.35366C69.7491 4.52913 74.002 3.46956 77.1592 6.66578C79.826 9.32535 80.6105 12.485 78.4947 14.5587C76.3789 16.6324 74.2028 14.581 73.5451 13.925C73.1027 13.4838 73.5898 12.9475 74.0443 13.4245C74.7498 14.1282 76.2107 16.2031 78.1 14.1412C79.9894 12.0794 78.907 9.00313 76.731 6.99946C73.6942 4.18478 70.001 5.04188 67.3507 7.79494C66.7799 8.39211 66.3384 9.10069 66.0535 9.87667C65.7687 10.6527 65.6467 11.4794 65.6951 12.3057C65.7434 13.132 65.9611 13.9401 66.3347 14.6797C66.7082 15.4194 67.2296 16.0749 67.8664 16.6055C75.3042 23.8806 85.6295 12.4033 95.0886 21.837C99.3459 26.0828 99.6311 33.6176 92.4997 40.7683C85.3682 47.919 77.1039 43.2426 71.0618 40.1408C65.0198 37.0389 50.5107 25.3501 43.3912 32.5128C42.7835 33.012 42.2902 33.6359 41.9447 34.3427C41.5991 35.0494 41.4093 35.8226 41.388 36.61C41.3666 37.3973 41.5143 38.1808 41.8211 38.9074C42.1278 39.634 42.5865 40.287 43.1662 40.8224C45.3067 42.9572 47.4661 43.4468 49.4748 41.4326C51.4835 39.4185 50.8953 38.095 49.2112 37.1048C48.7574 36.8424 48.9582 36.2106 49.5433 36.5088C50.012 36.7651 50.4084 37.1359 50.6954 37.5864C50.9825 38.037 51.1507 38.5526 51.1845 39.0851C51.2183 39.6175 51.1165 40.1494 50.8886 40.6309C50.6607 41.1123 50.3141 41.5277 49.8814 41.8381C47.326 44.4005 44.353 42.9807 42.6549 41.2871C41.9741 40.7083 41.4245 39.991 41.0429 39.1833C40.6614 38.3756 40.4567 37.4963 40.4427 36.6042C40.4287 35.7122 40.6056 34.8281 40.9617 34.0114C41.3177 33.1946 41.8446 32.464 42.507 31.8687Z" fill="#3751A3"/>
<path d="M82.7935 24.6462C82.9836 24.1219 83.0905 23.5708 83.1104 23.013L83.2539 23.1561C83.1463 23.0487 82.8917 21.6776 83.6168 20.9745C84.3419 20.2714 86.0358 20.5819 86.9441 21.3214C88.0438 22.2517 87.8704 24.028 89.1457 23.8973C87.6927 24.3975 86.7096 26.5074 85.1725 26.7811C84.8707 26.8282 84.562 26.8075 84.2687 26.7204C83.9755 26.6333 83.7051 26.482 83.4773 26.2776C83.2494 26.0731 83.0698 25.8206 82.9516 25.5384C82.8333 25.2562 82.7793 24.9514 82.7935 24.6462Z" fill="#E9445A"/>
<path d="M86.7953 30.9425C86.9393 30.0532 87.3452 29.228 87.9612 28.5721C88.5771 27.9162 89.3751 27.4593 90.2534 27.2598C91.7309 26.998 93.8088 28.1433 93.1467 29.9552L93.0041 30.0982C92.8999 30.3327 92.7728 30.5563 92.6246 30.7657C92.5703 30.9173 92.527 31.0727 92.4949 31.2306C92.4949 31.2306 92.4231 31.1591 92.3873 31.1233C92.4078 31.476 92.3501 31.8286 92.2182 32.1558C92.0863 32.4831 91.8836 32.7768 91.6245 33.016C91.3655 33.2552 91.0564 33.4339 90.7197 33.5394C90.3829 33.6448 90.0267 33.6744 89.6767 33.626C87.8995 33.375 88.9046 30.669 86.7953 30.9425Z" fill="#E9445A"/>
<path d="M68.545 16.2362C69.6755 15.5332 69.1429 12.8864 72.2799 13.4001C72.3399 13.8723 72.2748 14.3515 72.0912 14.7898C71.9075 15.228 71.6117 15.6099 71.2334 15.8971C70.8551 16.1844 70.4076 16.367 69.9358 16.4265C69.464 16.486 68.9844 16.4204 68.545 16.2362Z" fill="#294921"/>
<path d="M69.1915 9.46479C70.184 10.4547 72.6254 9.58521 72.8854 12.7446C72.4151 12.8542 71.9249 12.8491 71.4562 12.7298C70.9875 12.6104 70.5539 12.3804 70.1919 12.059C69.8299 11.7375 69.5501 11.3341 69.376 10.8827C69.2019 10.4313 69.1386 9.94499 69.1915 9.46479Z" fill="#294921"/>
<path d="M75.9361 8.34641C75.2242 9.49067 76.7928 11.7207 73.8029 12.5422C73.5453 12.1405 73.397 11.6787 73.3728 11.2027C73.3486 10.7267 73.4494 10.2531 73.665 9.82894C73.8807 9.40475 74.2037 9.04478 74.6021 8.78471C75.0005 8.52463 75.4604 8.37351 75.9361 8.34641Z" fill="#294921"/>
<path d="M52.7056 29.7025C50.7802 27.7824 50.4959 24.4799 48.5529 24.5627C51.9696 22.9544 53.6592 29.6552 55.4853 30.3354C56.3818 30.6081 57.2624 30.9308 58.1231 31.302C55.5384 28.2014 55.0845 23.9927 52.9119 23.1097C57.2005 22.0144 59.4714 31.6721 61.0004 32.6502C61.7765 33.0439 62.5647 33.4734 63.329 33.879C60.5866 29.8842 61.5116 24.3646 59.0055 23.553C63.616 22.4459 65.1676 34.7619 66.9834 35.9548C67.5328 36.2649 68.0582 36.5512 68.5359 36.7898C69.0135 37.0284 69.7659 37.446 70.351 37.7681C67.1906 33.4989 67.2036 26.0476 64.5537 25.0214C69.4267 23.962 71.8323 38.7462 74.2918 39.9154C75.3794 40.4696 76.509 40.9364 77.67 41.3115C73.1895 38.1029 72.7422 28.2671 70.176 27.3005C72.4516 26.8125 74.3925 29.9129 76.2509 33.359C77.3074 35.6051 78.6266 37.7186 80.1806 39.6552C80.922 40.3947 81.5199 40.991 81.9145 41.3846C82.1613 41.7375 82.4948 42.0209 82.8827 42.2075C83.2143 42.3651 83.578 42.4428 83.9445 42.4344C78.6443 44.1135 73.1747 41.0596 68.8999 38.8644C65.64 37.1822 59.5102 32.6616 53.6861 30.6805C53.3872 30.3823 53.0404 30.0365 52.7056 29.7025Z" fill="#F79A3F"/>
<path d="M83.2184 23.1919C83.3681 23.4747 83.5713 23.7258 83.8168 23.9312C85.5261 25.3982 88.5856 23.933 88.8001 23.9092L89.0982 23.9212C88.7708 24.0771 88.4528 24.2522 88.146 24.4455C87.8635 24.6431 87.5934 24.858 87.3373 25.0889C87.035 25.3685 86.7641 25.6802 86.5294 26.0186C86.2379 26.5273 85.7606 26.9031 85.1974 27.0673C84.7247 27.1984 84.2198 27.1515 83.7782 26.9356C83.5105 26.815 83.2734 26.6354 83.0848 26.4103C82.8962 26.1851 82.761 25.9203 82.6894 25.6357C82.6271 25.3139 82.6465 24.9818 82.746 24.67L83.2184 23.1919Z" fill="#EE6F84"/>
<path d="M44.5413 42.0746C45.2533 41.0018 43.6725 38.6884 46.6869 38.0576C46.9496 38.4471 47.1013 38.9004 47.1259 39.3689C47.1504 39.8374 47.0467 40.3033 46.8261 40.7164C46.6054 41.1295 46.276 41.4743 45.8735 41.7136C45.4709 41.9529 45.0103 42.0777 44.5413 42.0746Z" fill="#294921"/>
<path d="M47.4117 37.283C46.9848 37.5583 46.4987 37.7288 45.9928 37.7808C45.4869 37.8328 44.9755 37.7649 44.5 37.5824C44.0245 37.3999 43.5983 37.1081 43.256 36.7306C42.9137 36.3531 42.6649 35.9005 42.5298 35.4095C43.879 36.0419 45.7929 34.2423 47.4117 37.283Z" fill="#294921"/>
<path d="M48.3602 31.7634C48.1856 33.1582 50.6346 34.7924 48.1727 36.7348C45.8534 34.6357 47.063 32.514 48.3602 31.7634Z" fill="#294921"/>
</g>
<g clip-path="url(#clip1_7_3)">
<path d="M562.623 33.0345C559.364 29.5143 554.563 30.5184 551.697 31.1762C553.915 29.1225 554.43 25.5266 556.536 25.664C552.923 23.8486 550.605 31.0405 548.617 31.8023C547.624 32.0874 546.646 32.4257 545.689 32.8158C548.71 29.4913 549.467 24.9142 551.89 24.0014C547.264 22.7333 544.244 33.1443 542.471 34.2123C541.582 34.6448 540.718 35.0782 539.864 35.5239C543.08 31.2164 542.427 25.2153 545.23 24.3642C540.247 23.0591 537.799 36.4499 535.742 37.7341C535.145 38.058 534.548 38.3582 533.975 38.6592C533.402 38.9601 532.611 39.3485 531.941 39.6937C535.646 35.094 536.092 26.9741 539.046 25.9139C533.81 24.6829 530.265 40.7175 527.507 41.9401C526.281 42.5453 525.008 43.049 523.7 43.4461C528.777 40.0304 529.876 29.3337 532.794 28.2841C527.594 27.0425 523.055 43.47 517.947 43.1982C516.025 42.6687 514.291 41.6132 512.939 40.1503C511.819 38.8777 510.804 37.5156 509.905 36.0776C510.108 34.4321 510.757 32.8718 511.781 31.5656C511.74 31.9149 511.779 32.2688 511.895 32.6002C512.011 32.9317 512.202 33.232 512.452 33.4782C512.702 33.7245 513.005 33.9102 513.339 34.0212C513.672 34.1323 514.026 34.1657 514.375 34.1189C516.358 33.7744 515.452 31.0806 517.564 31.3732C517.47 30.4913 517.107 29.6607 516.523 28.9945C515.939 28.3283 515.163 27.8588 514.302 27.65C512.61 27.2894 509.995 28.8155 511.655 31.1553C509.936 32.0583 509.711 34.6747 509.058 34.6148C508.012 32.7232 507.639 30.5318 507.998 28.3965C508.357 26.2612 509.427 24.3076 511.035 22.8529C512.405 21.5193 514.06 20.5148 515.875 19.916C517.69 19.3172 519.616 19.1399 521.507 19.3975C524.413 19.8268 525.469 23.5283 522.064 24.226C522.901 21.5248 520.393 20.979 518.483 22.4714C517.314 23.3708 517.385 25.1629 516.176 24.9514C517.623 25.47 518.479 27.6132 520.018 27.9085C520.42 27.9749 520.833 27.9271 521.209 27.7705C521.586 27.614 521.911 27.355 522.149 27.0231C522.386 26.6912 522.525 26.2996 522.551 25.8931C522.577 25.4865 522.488 25.0813 522.294 24.7236C522.937 24.7179 523.559 24.4911 524.056 24.0814C524.553 23.6717 524.894 23.1041 525.022 22.4739C525.314 21.1485 524.495 20.1639 524.594 19.7738C529.511 20.6351 534.267 21.9438 538.5 17.8409C542.734 13.7379 541.617 10.07 539.63 7.87314C536.954 4.98283 532.729 3.82493 529.344 7.00476C526.518 9.62064 525.53 12.8292 527.508 14.966C529.486 17.1029 531.835 15.0659 532.529 14.4234C533 13.9875 532.533 13.4334 532.049 13.9047C531.305 14.5931 529.707 16.6458 527.868 14.6095C526.029 12.5732 527.35 9.40079 529.649 7.43355C532.875 4.65347 536.583 5.60146 539.06 8.40091C540.981 10.476 541.404 14.1899 538.047 17.2515C530.132 24.4637 520.38 12.7109 510.279 22.0616C505.743 26.2607 505.034 33.7983 511.826 41.1352C518.617 48.4722 527.214 43.8858 533.492 40.8723C539.77 37.8588 555.053 26.3489 561.81 33.6726C562.391 34.2098 562.849 34.8652 563.156 35.5949C563.462 36.3246 563.609 37.1119 563.586 37.904C563.563 38.6961 563.371 39.4747 563.023 40.1878C562.675 40.9009 562.179 41.5319 561.568 42.0387C559.275 44.1612 557.061 44.6284 555.152 42.5656C553.242 40.5029 553.951 39.2048 555.709 38.1959C556.161 37.9382 555.997 37.2879 555.4 37.588C554.915 37.8208 554.497 38.172 554.184 38.6091C553.87 39.0462 553.672 39.5549 553.608 40.0881C553.544 40.6213 553.615 41.1616 553.816 41.659C554.016 42.1563 554.339 42.5944 554.755 42.9328C557.19 45.5637 560.265 44.1858 562.062 42.5222C563.859 40.8586 566.262 36.8909 562.623 33.0345Z" fill="#3751A3"/>
<path d="M522.435 25.0746C522.263 24.5405 522.18 23.9811 522.192 23.4193L522.043 23.557C522.098 23.392 522.485 22.0701 521.81 21.3413C521.136 20.6126 519.382 20.9058 518.421 21.6577C517.251 22.5571 517.334 24.3616 516.114 24.1377C517.56 24.6563 518.417 26.7995 519.956 27.0949C520.253 27.1391 520.556 27.1206 520.847 27.0408C521.137 26.961 521.407 26.8215 521.641 26.6313C521.874 26.4411 522.065 26.2044 522.202 25.9364C522.339 25.6683 522.418 25.3748 522.435 25.0746Z" fill="#E9445A"/>
<path d="M518.031 31.3308C517.94 30.4485 517.579 29.6165 516.998 28.9482C516.416 28.2799 515.642 27.8078 514.781 27.5961C513.302 27.2911 511.133 28.4041 511.691 30.25L511.828 30.3982C511.92 30.6322 512.035 30.8563 512.171 31.067L512.109 31.1244L512.198 31.5929C512.198 31.5929 512.285 31.5126 512.309 31.4896C512.268 31.8389 512.307 32.1928 512.423 32.5243C512.539 32.8557 512.73 33.156 512.98 33.4023C513.23 33.6485 513.533 33.8342 513.867 33.9453C514.2 34.0563 514.554 34.0897 514.903 34.0429C516.81 33.7911 515.931 31.0267 518.031 31.3308Z" fill="#E9445A"/>
<path d="M558.743 42.2686C558.06 41.1578 559.703 38.88 556.692 38.089C556.413 38.4786 556.245 38.9359 556.205 39.4125C556.166 39.889 556.256 40.367 556.466 40.7957C556.676 41.2243 556.999 41.5876 557.4 41.8469C557.801 42.1063 558.265 42.252 558.743 42.2686Z" fill="#294921"/>
<path d="M556.475 37.2578C556.868 37.5431 557.324 37.73 557.805 37.8029C558.286 37.8758 558.778 37.8326 559.24 37.6768C559.701 37.521 560.12 37.2573 560.459 36.9075C560.799 36.5577 561.05 36.132 561.192 35.6661C559.88 36.2381 558.105 34.395 556.475 37.2578Z" fill="#294921"/>
<path d="M555.7 31.8965C555.837 33.2377 553.451 34.7126 555.733 36.7055C556.144 36.4501 556.483 36.0935 556.717 35.6699C556.951 35.2464 557.072 34.7702 557.068 34.2872C557.065 33.8041 556.937 33.3305 556.698 32.9118C556.458 32.4931 556.115 32.1434 555.7 31.8965Z" fill="#294921"/>
<path d="M537.241 16.828C536.149 16.0958 536.84 13.4609 533.647 13.9158C533.558 14.3827 533.596 14.8647 533.759 15.3106C533.921 15.7565 534.202 16.1497 534.57 16.4484C534.939 16.7471 535.382 16.9401 535.852 17.0069C536.322 17.0738 536.802 17.012 537.241 16.828Z" fill="#294921"/>
<path d="M537.025 10.0319C535.959 11.0186 533.551 10.0827 533.101 13.2515C533.579 13.3671 534.077 13.3701 534.556 13.2602C535.036 13.1503 535.483 12.9306 535.864 12.6183C536.245 12.306 536.548 11.9098 536.749 11.4609C536.951 11.012 537.045 10.5228 537.025 10.0319Z" fill="#294921"/>
<path d="M530.261 8.81624C530.907 9.96149 529.149 12.1395 532.166 13.0859C532.452 12.703 532.63 12.2512 532.684 11.7769C532.737 11.3027 532.663 10.8233 532.469 10.3881C532.275 9.95296 531.968 9.57787 531.58 9.30155C531.192 9.02523 530.737 8.85769 530.261 8.81624Z" fill="#294921"/>
<path d="M547.417 59.8177C546.822 59.7466 546.221 59.9083 545.741 60.2689C545.741 60.2689 546.196 59.0211 545.899 58.4017L547.539 57.6867L547.836 59.2009L547.417 59.8177Z" fill="#B7324B"/>
<path d="M547.821 59.26C547.529 59.2174 547.231 59.2344 546.945 59.31C546.659 59.3856 546.391 59.5181 546.157 59.6997C546.157 59.6997 546.601 58.4634 546.292 57.8316L547.943 57.129L548.228 58.6308L547.821 59.26Z" fill="#FDBF5F"/>
<path d="M547.264 57.9867C546.983 58.5261 546.899 59.1465 547.028 59.7398C547.156 60.3331 547.489 60.8618 547.968 61.2338C547.968 61.2338 547.507 59.3676 548.962 59.0753C550.935 58.6708 547.264 57.9867 547.264 57.9867Z" fill="#CD3B53"/>
<path d="M547.473 58.4359C546.949 58.7495 546.333 58.8708 545.731 58.7789C545.129 58.687 544.579 58.3877 544.176 57.9326C544.176 57.9326 546.048 58.2641 546.262 56.8046C546.568 54.8235 547.473 58.4359 547.473 58.4359Z" fill="#E85978"/>
<path d="M545.989 48.1808C548.981 44.9984 553.276 45.5863 556.449 48.5665C559.622 51.5467 560.453 55.8006 557.462 58.9831C554.47 62.1655 550.124 61.6473 546.951 58.6671C543.777 55.6869 542.972 51.3862 545.989 48.1808Z" fill="#E9445A"/>
<path d="M545.915 50.5881C546.272 50.228 546.701 49.9457 547.172 49.7593C547.644 49.5728 548.149 49.4861 548.655 49.5048C549.161 49.5235 549.658 49.647 550.113 49.8676C550.568 50.0883 550.973 50.4013 551.3 50.7866C551.707 51.0885 552.047 51.4723 552.297 51.9135C552.546 52.3548 552.701 52.8436 552.75 53.3488C552.799 53.8539 552.742 54.3641 552.583 54.8466C552.423 55.3291 552.165 55.7733 551.824 56.1507C551.466 56.5139 551.037 56.7992 550.565 56.9885C550.092 57.1778 549.585 57.2671 549.076 57.2506C548.568 57.2341 548.069 57.1122 547.61 56.8926C547.152 56.673 546.745 56.3606 546.414 55.975C546.011 55.6666 545.677 55.2782 545.432 54.8342C545.186 54.3901 545.036 53.9 544.989 53.3943C544.942 52.8887 545 52.3785 545.16 51.8957C545.319 51.4128 545.576 50.9677 545.915 50.5881Z" fill="#E85978"/>
<path d="M545.966 51.6876C546.173 51.4731 546.422 51.3046 546.698 51.193C546.974 51.0815 547.27 51.0295 547.567 51.0405C547.864 51.0514 548.155 51.1251 548.422 51.2566C548.688 51.3881 548.923 51.5746 549.111 51.8036C549.347 51.9805 549.543 52.2043 549.688 52.4609C549.833 52.7176 549.923 53.0016 549.953 53.295C549.982 53.5885 549.951 53.8851 549.86 54.1663C549.77 54.4475 549.622 54.7072 549.427 54.929C549.218 55.1418 548.967 55.3092 548.69 55.4206C548.414 55.532 548.117 55.585 547.819 55.5763C547.521 55.5675 547.229 55.4973 546.96 55.3698C546.691 55.2424 546.452 55.0607 546.257 54.836C546.022 54.6556 545.826 54.4286 545.683 54.1691C545.54 53.9095 545.452 53.623 545.425 53.3275C545.397 53.032 545.431 52.7339 545.524 52.4517C545.618 52.1695 545.768 51.9094 545.966 51.6876Z" fill="#EC698B"/>
<path d="M553.875 49.3664C556.519 51.8499 557.209 55.4544 554.743 58.0358C554.208 58.5925 553.569 59.0381 552.862 59.3471C552.156 59.6561 551.395 59.8223 550.625 59.836C549.854 59.8498 549.089 59.7108 548.374 59.4272C547.658 59.1436 547.007 58.7209 546.456 58.1836L546.925 58.69C550.098 61.6703 554.444 62.1884 557.436 59.006C560.428 55.8236 559.597 51.5697 556.424 48.5895C553.251 45.6092 548.955 45.0213 545.963 48.2038C545.808 48.3339 545.659 48.4718 545.517 48.6168C548.026 46.4545 551.369 47.0072 553.875 49.3664Z" fill="#CD3B53"/>
<path d="M555.149 48.5543C558.322 51.5345 559.165 55.8008 556.219 59.0326C555.112 60.2533 553.585 61.0111 551.945 61.1537C552.97 61.276 554.011 61.1479 554.977 60.7805C555.944 60.413 556.808 59.8171 557.495 59.0439C560.487 55.8614 559.656 51.6076 556.483 48.6273C555.668 47.8005 554.69 47.1517 553.611 46.7218C552.532 46.2919 551.374 46.0902 550.212 46.1294C552.072 46.4035 553.798 47.2512 555.149 48.5543Z" fill="#B02F48"/>
<path d="M552.422 30.6423C554.479 28.7377 554.947 25.4145 556.899 25.5342C553.554 23.8599 551.458 30.5709 549.582 31.2295C548.659 31.4843 547.751 31.7893 546.861 32.1432C549.669 29.0853 550.352 24.8514 552.606 24.0039C548.322 22.8319 545.487 32.4982 543.885 33.4532C543.07 33.8407 542.303 34.23 541.486 34.6651C544.45 30.6824 543.851 25.1128 546.435 24.3491C541.842 23.1418 539.566 35.5249 537.658 36.6714C537.097 36.9848 536.549 37.2628 536.013 37.5294C535.477 37.796 534.746 38.1746 534.137 38.4862C537.566 34.2343 537.975 26.7453 540.736 25.7257C535.902 24.5811 532.657 39.3741 530.069 40.5314C528.936 41.0903 527.76 41.5576 526.553 41.9288C531.25 38.7734 532.269 28.8852 534.969 27.8991C532.687 27.3735 530.558 30.4684 528.487 33.8995C527.305 36.1569 525.858 38.2662 524.177 40.1829C523.465 40.9798 522.821 41.5764 522.399 41.9665C522.127 42.3213 521.771 42.6033 521.364 42.7873C521.021 42.9304 520.652 42.9982 520.282 42.986C525.544 44.7667 531.224 41.7789 535.628 39.6746C539.01 38.0575 545.454 33.6065 551.436 31.7154C551.691 31.3192 552.063 30.975 552.422 30.6423Z" fill="#F79A3F"/>
<path d="M522.089 23.6064C521.914 23.8869 521.694 24.1367 521.438 24.346C519.638 25.7828 516.618 24.3353 516.432 24.233L516.109 24.233C516.435 24.394 516.746 24.581 517.041 24.7923C517.324 24.9825 517.587 25.2 517.827 25.4416C518.116 25.7277 518.368 26.0497 518.575 26.3998C518.709 26.6593 518.893 26.8893 519.117 27.0759C519.341 27.2625 519.6 27.4019 519.88 27.4858C520.352 27.6182 520.855 27.5819 521.304 27.3832C521.568 27.2597 521.804 27.0848 521.999 26.8686C522.195 26.6525 522.345 26.3995 522.44 26.1247C522.527 25.8083 522.528 25.4749 522.444 25.1585L522.089 23.6064Z" fill="#EE6F84"/>
<path d="M573.302 44.5709C576.606 48.1406 575.345 52.7946 574.492 55.6025C576.661 53.5947 580.235 53.4282 580.236 51.3405C581.827 55.0975 574.51 56.6411 573.704 58.5798C573.368 59.5099 572.984 60.4621 572.54 61.4002C575.99 58.7118 580.571 58.4155 581.62 56.092C582.611 60.7932 572.078 62.8147 570.95 64.4553C570.487 65.2734 570.001 66.0905 569.515 66.9077C573.896 64.1821 579.862 65.3566 580.853 62.673C581.867 67.7211 568.47 68.8615 567.127 70.7924C566.782 71.3643 566.438 71.9123 566.117 72.4612C565.797 73.0101 565.35 73.7452 564.966 74.3753C569.738 71.1511 577.778 71.4834 579.001 68.6771C579.932 73.9846 563.865 75.9453 562.496 78.5433C561.824 79.7009 561.253 80.9131 560.786 82.1667C564.459 77.4823 575.105 77.4215 576.338 74.6514C577.259 79.9227 560.736 82.8329 560.722 87.9147C561.159 89.8729 562.102 91.6806 563.458 93.1574C564.638 94.3736 565.914 95.4938 567.272 96.5073C568.898 96.4578 570.481 95.9677 571.852 95.0894C571.498 95.0943 571.149 95.021 570.827 94.8747C570.506 94.7284 570.222 94.5128 569.994 94.2433C569.767 93.9737 569.602 93.657 569.511 93.3157C569.421 92.9745 569.407 92.6173 569.472 92.2696C569.882 90.3759 572.546 91.4882 572.368 89.382C573.251 89.5622 574.059 90.0027 574.688 90.6467C575.317 91.2907 575.738 92.1088 575.897 92.9957C576.139 94.6987 574.489 97.1432 572.262 95.2596C571.29 96.894 568.678 96.8573 568.688 97.5138C570.446 98.7446 572.575 99.3357 574.721 99.1892C576.867 99.0426 578.901 98.1672 580.485 96.7081C581.884 95.4594 582.973 93.9028 583.667 92.1618C584.361 90.4208 584.639 88.5435 584.48 86.6789C584.227 83.7706 580.621 82.3611 579.737 85.657C582.456 85.0892 582.855 87.6331 581.282 89.3646C580.32 90.4387 578.552 90.1945 578.631 91.474C578.189 90.0022 576.121 88.9357 575.908 87.3889C575.872 86.991 575.95 86.5906 576.132 86.2344C576.315 85.8782 576.595 85.5809 576.94 85.3772C577.284 85.1735 577.679 85.0719 578.079 85.0841C578.479 85.0963 578.866 85.2219 579.196 85.4462C579.245 84.8322 579.505 84.2531 579.932 83.8078C580.359 83.3624 580.926 83.0781 581.538 83.0033C582.868 82.8496 583.787 83.7425 584.171 83.685C583.607 78.7252 582.584 73.9154 586.878 70.1009C591.172 66.2865 594.739 67.7781 596.823 69.9546C599.533 72.882 600.422 77.1738 597.102 80.201C594.338 82.7595 591.15 83.4174 589.162 81.2206C587.175 79.0237 589.311 76.9312 589.993 76.3002C590.452 75.8757 590.968 76.3838 590.473 76.8189C589.742 77.4959 587.61 78.8728 589.595 80.8429C591.58 82.8129 594.697 81.8541 596.786 79.7599C599.72 76.8378 599.01 73.1132 596.365 70.3553C595.791 69.7611 595.101 69.2916 594.337 68.9761C593.573 68.6605 592.752 68.5056 591.924 68.521C591.097 68.5363 590.281 68.7216 589.527 69.0654C588.773 69.4091 588.097 69.9039 587.541 70.5191C579.975 77.6607 591.031 88.4356 581.228 97.5109C576.816 101.595 569.275 101.58 562.415 94.1688C555.554 86.7578 560.557 78.6865 563.897 72.773C567.238 66.8596 579.496 52.8283 572.623 45.4288C572.148 44.8016 571.545 44.2839 570.852 43.9104C570.16 43.5369 569.395 43.3164 568.609 43.2637C567.823 43.2109 567.034 43.3273 566.296 43.6048C565.558 43.8823 564.887 44.3145 564.329 44.8724C562.111 46.9261 561.535 49.0643 563.468 51.1517C565.4 53.2391 566.746 52.7042 567.802 51.061C568.083 50.618 568.706 50.8438 568.385 51.4165C568.11 51.8746 567.724 52.2559 567.262 52.5248C566.8 52.7936 566.278 52.9412 565.745 52.9537C565.212 52.9662 564.684 52.8433 564.212 52.5963C563.74 52.3494 563.339 51.9866 563.046 51.5418C560.588 48.8862 562.125 45.9722 563.885 44.3431C564.491 43.6859 565.229 43.1653 566.051 42.8162C566.874 42.4672 567.761 42.2978 568.652 42.3194C569.544 42.341 570.421 42.553 571.223 42.9414C572.024 43.3297 572.733 43.8853 573.302 44.5709Z" fill="#3751A3"/>
<path d="M578.911 85.1135C579.428 85.3244 579.974 85.4532 580.531 85.4954L580.382 85.633C580.493 85.5298 581.874 85.3301 582.547 86.0827C583.221 86.8353 582.843 88.5154 582.068 89.3935C581.094 90.4552 579.326 90.2111 579.406 91.4905C578.964 90.0188 576.895 88.9523 576.683 87.4055C576.648 87.1021 576.681 86.7944 576.78 86.5049C576.879 86.2153 577.041 85.9512 577.254 85.7317C577.467 85.5122 577.727 85.3428 578.014 85.2359C578.3 85.129 578.607 85.0872 578.911 85.1135Z" fill="#E9445A"/>
<path d="M572.461 88.8605C573.344 89.0399 574.152 89.4784 574.783 90.12C575.414 90.7616 575.839 91.5772 576.003 92.4627C576.205 93.9495 574.978 95.9801 573.194 95.2463L573.057 95.098C572.827 94.9846 572.608 94.8486 572.405 94.6922C572.256 94.6319 572.102 94.5824 571.946 94.5441C571.946 94.5441 572.02 94.4752 572.057 94.4408C571.704 94.4473 571.354 94.3755 571.032 94.2307C570.711 94.0859 570.425 93.8716 570.197 93.6032C569.968 93.3348 569.802 93.0189 569.71 92.6782C569.618 92.3375 569.602 91.9804 569.665 91.6325C569.986 89.8668 572.65 90.9791 572.461 88.8605Z" fill="#E9445A"/>
<path d="M587.883 71.2116C588.541 72.3692 591.207 71.9426 590.568 75.0567C590.094 75.0978 589.618 75.0137 589.187 74.8126C588.757 74.6116 588.387 74.3008 588.115 73.9114C587.843 73.5219 587.678 73.0675 587.638 72.5937C587.597 72.1199 587.682 71.6433 587.883 71.2116Z" fill="#294921"/>
<path d="M594.624 72.1282C593.595 73.0805 594.367 75.5546 591.199 75.6884C591.109 75.214 591.133 74.7245 591.271 74.2609C591.409 73.7973 591.656 73.3732 591.992 73.0243C592.328 72.6754 592.742 72.4119 593.2 72.256C593.658 72.1 594.146 72.0562 594.624 72.1282Z" fill="#294921"/>
<path d="M595.472 78.9122C594.357 78.1552 592.066 79.6336 591.364 76.6133C591.776 76.3719 592.243 76.2422 592.72 76.237C593.197 76.2318 593.666 76.3514 594.081 76.5838C594.496 76.8162 594.843 77.1533 595.087 77.5618C595.331 77.9703 595.464 78.4358 595.472 78.9122Z" fill="#294921"/>
<path d="M575.06 54.8481C577.055 53.0009 580.366 52.8486 580.361 50.9038C581.832 54.3819 575.069 55.8028 574.316 57.6004C574.008 58.4852 573.651 59.3523 573.245 60.1975C576.447 57.7386 580.67 57.4529 581.639 55.3173C582.562 59.6462 572.822 61.5299 571.783 63.0187C571.359 63.7785 570.899 64.549 570.463 65.2964C574.564 62.7156 580.042 63.8601 580.953 61.3883C581.875 66.0393 569.507 67.0984 568.243 68.8652C567.911 69.4017 567.604 69.9153 567.347 70.383C567.089 70.8508 566.642 71.5859 566.297 72.1577C570.689 69.1701 578.133 69.4804 579.264 66.8736C580.129 71.7849 565.26 73.5988 563.994 76.0098C563.397 77.0743 562.885 78.1844 562.464 79.3296C565.849 74.9806 575.695 74.926 576.763 72.4004C577.16 74.6937 573.984 76.5093 570.467 78.2288C568.18 79.1949 566.016 80.4287 564.019 81.9042C563.25 82.6155 562.631 83.1891 562.222 83.5678C561.859 83.8002 561.563 84.1222 561.361 84.5024C561.19 84.8274 561.098 85.1877 561.092 85.5542C559.625 80.1913 562.895 74.8478 565.259 70.664C567.07 67.4738 571.831 61.5292 574.043 55.7889C574.353 55.502 574.713 55.1693 575.06 54.8481Z" fill="#F79A3F"/>
<path d="M580.348 85.5961C580.059 85.7344 579.8 85.9274 579.585 86.1645C578.051 87.8139 579.393 90.9294 579.408 91.1447L579.385 91.4421C579.242 91.1087 579.08 90.784 578.899 90.4698C578.712 90.1796 578.509 89.9011 578.288 89.636C578.021 89.3228 577.72 89.0397 577.391 88.7917C576.895 88.4801 576.538 87.9882 576.397 87.4189C576.284 86.9414 576.351 86.4388 576.585 86.0061C576.716 85.7435 576.905 85.5137 577.137 85.3342C577.37 85.1548 577.64 85.0302 577.927 84.97C578.251 84.9206 578.582 84.9533 578.89 85.0651L580.348 85.5961Z" fill="#EE6F84"/>
<path d="M563.023 46.1962C564.067 46.9505 566.441 45.4633 566.951 48.5004C566.552 48.7474 566.093 48.8809 565.623 48.8867C565.154 48.8925 564.693 48.7704 564.289 48.5334C563.885 48.2964 563.554 47.9536 563.331 47.5418C563.107 47.13 563.001 46.6648 563.023 46.1962Z" fill="#294921"/>
<path d="M567.697 49.2555C567.439 48.818 567.288 48.3255 567.256 47.8179C567.224 47.3104 567.312 46.802 567.514 46.3342C567.715 45.8663 568.024 45.4521 568.415 45.1252C568.805 44.7982 569.268 44.5677 569.763 44.4523C569.078 45.7751 570.8 47.7594 567.697 49.2555Z" fill="#294921"/>
<path d="M573.174 50.4239C571.787 50.1939 570.057 52.5757 568.214 50.0382C570.404 47.8045 572.476 49.0978 573.174 50.4239Z" fill="#294921"/>
</g>
<g clip-path="url(#clip2_7_3)">
<path d="M565.429 533.803C569.124 530.744 568.387 525.894 567.889 522.996C569.817 525.325 573.378 526.037 573.125 528.133C575.137 524.625 568.084 521.913 567.434 519.887C567.204 518.879 566.92 517.884 566.583 516.907C569.736 520.107 574.264 521.116 575.042 523.586C576.563 519.037 566.335 515.446 565.367 513.616C564.984 512.705 564.599 511.818 564.201 510.942C568.324 514.391 574.352 514.07 575.047 516.915C576.626 512.012 563.391 508.828 562.222 506.704C561.932 506.089 561.665 505.477 561.396 504.888C561.127 504.299 560.783 503.488 560.475 502.8C564.863 506.753 572.946 507.648 573.842 510.656C575.36 505.496 559.546 501.07 558.477 498.249C557.941 496.991 557.508 495.692 557.184 494.364C560.314 499.622 570.934 501.311 571.82 504.282C573.347 499.159 557.196 493.719 557.749 488.634C558.384 486.744 559.534 485.071 561.069 483.802C562.402 482.753 563.818 481.816 565.303 480.998C566.935 481.291 568.457 482.025 569.705 483.12C569.358 483.06 569.003 483.079 568.666 483.177C568.328 483.274 568.018 483.448 567.758 483.684C567.498 483.92 567.296 484.213 567.167 484.539C567.038 484.866 566.985 485.218 567.012 485.569C567.247 487.568 569.986 486.812 569.577 488.905C570.463 488.86 571.313 488.543 572.01 487.996C572.708 487.45 573.219 486.702 573.475 485.853C573.929 484.184 572.549 481.488 570.121 483.016C569.315 481.25 566.715 480.882 566.811 480.232C568.757 479.293 570.966 479.041 573.078 479.518C575.19 479.994 577.082 481.17 578.445 482.856C579.701 484.298 580.613 486.006 581.111 487.851C581.608 489.696 581.679 491.629 581.317 493.503C580.728 496.381 576.974 497.231 576.465 493.793C579.116 494.777 579.8 492.303 578.415 490.314C577.582 489.097 575.788 489.069 576.066 487.874C575.468 489.29 573.281 490.026 572.901 491.547C572.813 491.944 572.838 492.359 572.973 492.743C573.109 493.128 573.349 493.467 573.668 493.723C573.986 493.978 574.369 494.139 574.774 494.187C575.178 494.235 575.588 494.169 575.956 493.995C575.926 494.637 576.118 495.271 576.5 495.789C576.881 496.308 577.429 496.68 578.051 496.843C579.358 497.208 580.387 496.444 580.771 496.564C579.639 501.426 578.07 506.103 581.933 510.557C585.795 515.011 589.519 514.098 591.823 512.235C594.856 509.723 596.246 505.569 593.258 502.013C590.802 499.047 587.653 497.883 585.41 499.74C583.167 501.597 585.071 504.055 585.675 504.783C586.084 505.278 586.663 504.842 586.219 504.332C585.573 503.552 583.612 501.843 585.746 500.119C587.881 498.396 590.976 499.89 592.813 502.293C595.411 505.668 594.259 509.319 591.327 511.637C589.149 513.44 585.418 513.657 582.546 510.136C575.782 501.835 588.056 492.747 579.277 482.145C575.335 477.384 567.848 476.259 560.147 482.636C552.446 489.012 556.551 497.849 559.213 504.284C561.875 510.719 572.523 526.614 564.837 532.956C564.269 533.506 563.589 533.928 562.844 534.194C562.098 534.459 561.304 534.562 560.514 534.495C559.725 534.429 558.958 534.194 558.265 533.807C557.572 533.421 556.97 532.89 556.497 532.252C554.505 529.846 554.161 527.609 556.326 525.816C558.491 524.024 559.748 524.803 560.658 526.615C560.89 527.08 561.549 526.952 561.282 526.339C561.076 525.843 560.749 525.405 560.33 525.068C559.91 524.732 559.413 524.506 558.885 524.412C558.356 524.318 557.812 524.36 557.305 524.533C556.797 524.705 556.342 525.004 555.981 525.4C553.22 527.687 554.425 530.832 555.987 532.719C557.549 534.605 561.378 537.223 565.429 533.803Z" fill="#3751A3"/>
<path d="M575.598 494.116C576.141 493.973 576.704 493.922 577.264 493.965L577.135 493.809C577.297 493.872 578.595 494.332 579.36 493.698C580.125 493.065 579.929 491.298 579.231 490.297C578.398 489.079 576.592 489.062 576.883 487.856C576.285 489.272 574.098 490.008 573.718 491.529C573.657 491.823 573.659 492.127 573.722 492.421C573.786 492.715 573.91 492.993 574.087 493.237C574.265 493.48 574.49 493.684 574.75 493.836C575.01 493.987 575.299 494.083 575.598 494.116Z" fill="#E9445A"/>
<path d="M569.595 489.373C570.481 489.331 571.331 489.017 572.031 488.473C572.73 487.93 573.244 487.183 573.503 486.335C573.89 484.874 572.898 482.648 571.024 483.103L570.869 483.232C570.63 483.31 570.4 483.412 570.182 483.537L570.128 483.472L569.655 483.535C569.655 483.535 569.731 483.626 569.752 483.652C569.406 483.591 569.05 483.61 568.713 483.708C568.376 483.806 568.065 483.979 567.805 484.215C567.546 484.452 567.344 484.744 567.214 485.071C567.085 485.397 567.032 485.75 567.06 486.1C567.206 488.019 570.014 487.294 569.595 489.373Z" fill="#E9445A"/>
<path d="M556.425 529.419C557.571 528.798 559.755 530.564 560.711 527.602C560.338 527.302 559.89 527.109 559.417 527.043C558.943 526.977 558.461 527.041 558.021 527.227C557.581 527.413 557.201 527.715 556.92 528.101C556.639 528.487 556.468 528.942 556.425 529.419Z" fill="#294921"/>
<path d="M561.553 527.431C561.246 527.808 561.034 528.253 560.935 528.73C560.836 529.206 560.852 529.699 560.982 530.169C561.112 530.639 561.352 531.071 561.682 531.429C562.013 531.787 562.424 532.062 562.881 532.229C562.383 530.888 564.321 529.217 561.553 527.431Z" fill="#294921"/>
<path d="M566.949 526.954C565.602 527.017 564.261 524.553 562.145 526.721C562.377 527.146 562.715 527.504 563.125 527.76C563.535 528.017 564.004 528.165 564.486 528.188C564.968 528.211 565.448 528.11 565.88 527.894C566.311 527.678 566.679 527.354 566.949 526.954Z" fill="#294921"/>
<path d="M583.014 509.355C583.806 508.305 586.398 509.14 586.12 505.928C585.659 505.812 585.176 505.824 584.722 505.962C584.267 506.099 583.859 506.358 583.541 506.709C583.222 507.061 583.005 507.492 582.912 507.958C582.819 508.424 582.855 508.907 583.014 509.355Z" fill="#294921"/>
<path d="M589.812 509.515C588.885 508.396 589.953 506.043 586.814 505.419C586.672 505.889 586.641 506.387 586.725 506.871C586.808 507.356 587.002 507.815 587.293 508.213C587.584 508.61 587.963 508.934 588.4 509.16C588.837 509.386 589.32 509.508 589.812 509.515Z" fill="#294921"/>
<path d="M591.399 502.828C590.22 503.41 588.143 501.534 587.031 504.494C587.398 504.801 587.839 505.004 588.309 505.084C588.78 505.163 589.263 505.115 589.708 504.946C590.153 504.776 590.545 504.49 590.842 504.118C591.139 503.746 591.332 503.301 591.399 502.828Z" fill="#294921"/>
<path d="M539.528 517.14C539.632 516.55 539.503 515.941 539.17 515.441C539.17 515.441 540.391 515.966 541.025 515.703L541.649 517.38L540.121 517.592L539.528 517.14Z" fill="#B7324B"/>
<path d="M540.063 517.575C540.121 517.285 540.121 516.987 540.061 516.697C540.001 516.407 539.884 516.132 539.716 515.889C539.716 515.889 540.925 516.4 541.573 516.127L542.184 517.814L540.668 518.016L540.063 517.575Z" fill="#FDBF5F"/>
<path d="M541.364 517.089C540.841 516.778 540.226 516.66 539.626 516.756C539.027 516.852 538.481 517.155 538.083 517.613C538.083 517.613 539.972 517.255 540.183 518.724C540.478 520.717 541.364 517.089 541.364 517.089Z" fill="#CD3B53"/>
<path d="M540.905 517.273C540.621 516.733 540.533 516.111 540.658 515.515C540.783 514.919 541.113 514.386 541.589 514.009C541.589 514.009 541.155 515.859 542.6 516.154C544.562 516.569 540.905 517.273 540.905 517.273Z" fill="#E85978"/>
<path d="M551.226 516.357C554.238 519.52 553.414 523.777 550.263 526.78C547.112 529.784 542.819 530.379 539.806 527.216C536.794 524.053 537.552 519.742 540.703 516.738C543.854 513.735 548.192 513.168 551.226 516.357Z" fill="#E9445A"/>
<path d="M548.826 516.151C549.166 516.528 549.424 516.971 549.584 517.452C549.744 517.934 549.803 518.443 549.756 518.947C549.71 519.451 549.559 519.94 549.313 520.383C549.068 520.825 548.733 521.211 548.33 521.517C548.006 521.907 547.604 522.225 547.15 522.45C546.696 522.675 546.199 522.802 545.692 522.823C545.185 522.844 544.679 522.759 544.206 522.573C543.733 522.388 543.303 522.105 542.946 521.744C542.603 521.367 542.341 520.923 542.179 520.44C542.016 519.957 541.954 519.446 541.999 518.939C542.044 518.433 542.193 517.941 542.437 517.495C542.682 517.05 543.017 516.66 543.42 516.352C543.75 515.967 544.156 515.654 544.613 515.434C545.07 515.214 545.568 515.09 546.075 515.071C546.583 515.053 547.089 515.139 547.562 515.325C548.036 515.51 548.466 515.792 548.826 516.151Z" fill="#E85978"/>
<path d="M547.725 516.142C547.928 516.36 548.083 516.618 548.179 516.9C548.275 517.181 548.311 517.48 548.283 517.776C548.256 518.072 548.166 518.359 548.02 518.617C547.874 518.876 547.675 519.1 547.436 519.276C547.246 519.501 547.012 519.685 546.748 519.815C546.483 519.946 546.195 520.02 545.9 520.033C545.606 520.047 545.311 519.999 545.035 519.893C544.76 519.787 544.509 519.625 544.298 519.418C544.097 519.198 543.944 518.938 543.848 518.655C543.752 518.373 543.715 518.074 543.74 517.777C543.766 517.48 543.852 517.192 543.994 516.931C544.136 516.669 544.331 516.44 544.566 516.258C544.759 516.033 544.996 515.851 545.263 515.722C545.531 515.593 545.821 515.521 546.118 515.51C546.415 515.499 546.71 515.55 546.987 515.658C547.264 515.767 547.515 515.932 547.725 516.142Z" fill="#EC698B"/>
<path d="M549.607 524.166C546.981 526.669 543.344 527.159 540.903 524.554C540.376 523.99 539.967 523.327 539.697 522.604C539.428 521.881 539.304 521.113 539.333 520.343C539.361 519.573 539.542 518.816 539.865 518.118C540.188 517.419 540.646 516.792 541.213 516.272L540.681 516.712C537.53 519.716 536.773 524.027 539.785 527.19C542.797 530.353 547.091 529.758 550.242 526.754C553.393 523.751 554.217 519.494 551.205 516.331C551.083 516.169 550.954 516.012 550.817 515.863C552.837 518.488 552.101 521.794 549.607 524.166Z" fill="#CD3B53"/>
<path d="M550.346 525.483C547.195 528.486 542.889 529.092 539.825 525.972C538.667 524.799 537.995 523.233 537.943 521.588C537.765 522.604 537.835 523.65 538.148 524.636C538.462 525.621 539.009 526.517 539.743 527.245C542.756 530.408 547.049 529.814 550.2 526.81C551.07 526.042 551.772 525.102 552.261 524.048C552.75 522.994 553.015 521.85 553.04 520.687C552.664 522.529 551.722 524.205 550.346 525.483Z" fill="#B02F48"/>
<path d="M568.382 523.75C570.17 525.909 573.462 526.56 573.235 528.502C575.091 525.255 568.506 522.792 567.952 520.882C567.749 519.947 567.495 519.023 567.19 518.114C570.089 521.087 574.278 522.003 575 524.3C576.407 520.087 566.912 516.722 566.047 515.071C565.705 514.235 565.359 513.448 564.969 512.608C568.782 515.788 574.376 515.497 574.996 518.12C576.455 513.601 564.217 510.644 563.178 508.676C562.896 508.098 562.648 507.535 562.412 506.985C562.175 506.436 561.838 505.685 561.56 505.059C565.616 508.718 573.071 509.54 573.937 512.353C575.346 507.59 560.755 503.533 559.743 500.885C559.247 499.723 558.846 498.523 558.542 497.297C561.433 502.161 571.25 503.724 572.085 506.475C572.736 504.226 569.763 501.929 566.452 499.671C564.263 498.366 562.237 496.805 560.416 495.021C559.66 494.266 559.1 493.589 558.733 493.147C558.394 492.856 558.132 492.485 557.971 492.068C557.847 491.718 557.8 491.346 557.833 490.977C555.764 496.132 558.433 501.969 560.291 506.483C561.719 509.949 565.807 516.628 567.365 522.706C567.746 522.982 568.07 523.373 568.382 523.75Z" fill="#F79A3F"/>
<path d="M577.083 493.852C576.813 493.662 576.575 493.428 576.38 493.162C575.045 491.285 576.657 488.349 576.77 488.169L576.788 487.847C576.609 488.163 576.405 488.464 576.178 488.747C575.972 489.018 575.741 489.269 575.486 489.495C575.184 489.768 574.849 490.002 574.488 490.19C574.221 490.308 573.982 490.479 573.783 490.693C573.584 490.906 573.431 491.158 573.332 491.432C573.173 491.896 573.182 492.4 573.355 492.86C573.464 493.13 573.626 493.376 573.831 493.582C574.036 493.789 574.28 493.953 574.549 494.064C574.86 494.168 575.193 494.187 575.514 494.12L577.083 493.852Z" fill="#EE6F84"/>
<path d="M553.321 543.829C549.575 546.931 544.997 545.414 542.241 544.408C544.126 546.684 544.094 550.262 546.179 550.378C542.34 551.759 541.203 544.368 539.312 543.456C538.401 543.07 537.472 542.633 536.56 542.139C539.054 545.731 539.096 550.322 541.358 551.497C536.609 552.228 535.173 541.599 533.597 540.382C532.806 539.875 532.017 539.344 531.228 538.813C533.707 543.338 532.205 549.231 534.83 550.369C529.733 551.102 529.335 537.662 527.481 536.215C526.929 535.838 526.401 535.464 525.871 535.114C525.34 534.764 524.631 534.277 524.023 533.859C526.979 538.801 526.203 546.811 528.937 548.187C523.586 548.824 522.516 532.673 519.998 531.162C518.879 530.428 517.7 529.79 516.474 529.255C520.949 533.181 520.421 543.814 523.119 545.198C517.805 545.827 515.812 529.168 510.739 528.874C508.759 529.202 506.902 530.044 505.353 531.316C504.073 532.427 502.884 533.639 501.797 534.939C501.757 536.565 502.159 538.172 502.96 539.59C502.975 539.237 503.067 538.892 503.231 538.579C503.395 538.266 503.626 537.994 503.908 537.782C504.189 537.57 504.515 537.422 504.86 537.351C505.206 537.28 505.563 537.286 505.907 537.369C507.775 537.883 506.517 540.482 508.63 540.421C508.401 541.292 507.917 542.075 507.239 542.667C506.562 543.26 505.721 543.635 504.827 543.745C503.113 543.892 500.764 542.11 502.767 539.991C501.189 538.929 501.37 536.324 500.714 536.297C499.388 537.985 498.68 540.078 498.708 542.228C498.736 544.379 499.498 546.458 500.867 548.12C502.036 549.586 503.53 550.76 505.23 551.549C506.93 552.337 508.79 552.719 510.66 552.664C513.578 552.572 515.184 549.049 511.942 547.984C512.359 550.73 509.797 550.988 508.155 549.322C507.136 548.302 507.477 546.55 506.195 546.559C507.689 546.199 508.869 544.192 510.425 544.066C510.824 544.051 511.22 544.151 511.565 544.353C511.911 544.555 512.192 544.851 512.376 545.207C512.561 545.562 512.64 545.962 512.606 546.36C512.572 546.759 512.425 547.139 512.183 547.456C512.793 547.538 513.357 547.83 513.778 548.281C514.199 548.732 514.452 549.314 514.493 549.929C514.573 551.266 513.63 552.134 513.666 552.52C518.65 552.232 523.509 551.475 527.08 555.974C530.652 560.472 528.965 563.951 526.677 565.912C523.604 568.456 519.27 569.106 516.431 565.624C514.029 562.723 513.548 559.504 515.851 557.64C518.155 555.777 520.126 558.026 520.718 558.741C521.117 559.223 520.581 559.71 520.174 559.192C519.538 558.425 518.281 556.22 516.205 558.093C514.128 559.966 514.913 563.132 516.889 565.333C519.644 568.423 523.402 567.921 526.302 565.432C526.927 564.892 527.434 564.229 527.791 563.483C528.149 562.738 528.349 561.927 528.379 561.099C528.409 560.272 528.269 559.447 527.968 558.675C527.666 557.904 527.21 557.201 526.626 556.613C519.913 548.664 508.544 559.108 500.024 548.818C496.19 544.187 496.622 536.659 504.401 530.218C512.179 523.778 519.962 529.218 525.682 532.88C531.402 536.542 544.734 549.557 552.502 543.103C553.155 542.664 553.705 542.09 554.116 541.419C554.527 540.749 554.79 539.997 554.886 539.215C554.982 538.433 554.909 537.639 554.673 536.887C554.437 536.134 554.042 535.441 553.516 534.853C551.588 532.524 549.485 531.832 547.294 533.646C545.103 535.46 545.563 536.833 547.145 537.979C547.572 538.283 547.312 538.893 546.758 538.541C546.316 538.241 545.956 537.834 545.713 537.359C545.47 536.883 545.352 536.353 545.369 535.82C545.386 535.287 545.538 534.767 545.81 534.31C546.083 533.852 546.467 533.471 546.928 533.203C549.715 530.896 552.54 532.591 554.069 534.439C554.692 535.08 555.171 535.846 555.474 536.686C555.777 537.527 555.897 538.421 555.826 539.311C555.755 540.2 555.495 541.063 555.063 541.842C554.631 542.622 554.037 543.299 553.321 543.829Z" fill="#3751A3"/>
<path d="M512.53 547.19C512.291 547.694 512.132 548.232 512.059 548.786L511.93 548.63C512.027 548.747 512.15 550.136 511.362 550.767C510.573 551.398 508.916 550.928 508.082 550.105C507.076 549.075 507.417 547.323 506.136 547.332C507.629 546.972 508.809 544.965 510.365 544.839C510.67 544.82 510.975 544.87 511.259 544.985C511.542 545.1 511.797 545.276 512.004 545.501C512.212 545.726 512.367 545.995 512.458 546.287C512.549 546.579 512.573 546.887 512.53 547.19Z" fill="#E9445A"/>
<path d="M509.146 540.542C508.918 541.413 508.435 542.196 507.76 542.791C507.084 543.385 506.246 543.764 505.353 543.879C503.857 544 501.898 542.662 502.729 540.921L502.885 540.792C503.011 540.569 503.158 540.358 503.326 540.164C503.394 540.018 503.452 539.868 503.499 539.713C503.499 539.713 503.564 539.792 503.596 539.831C503.609 539.477 503.7 539.132 503.862 538.819C504.025 538.506 504.255 538.232 504.535 538.019C504.816 537.805 505.14 537.657 505.486 537.584C505.831 537.511 506.188 537.515 506.532 537.597C508.278 538.016 507.02 540.614 509.146 540.542Z" fill="#E9445A"/>
<path d="M525.915 556.916C524.723 557.509 525.002 560.194 521.928 559.384C521.913 558.909 522.023 558.438 522.248 558.019C522.472 557.6 522.803 557.248 523.207 556.998C523.611 556.748 524.074 556.609 524.549 556.595C525.024 556.58 525.495 556.691 525.915 556.916Z" fill="#294921"/>
<path d="M524.628 563.596C523.734 562.516 521.221 563.149 521.263 559.979C521.741 559.915 522.229 559.967 522.684 560.13C523.139 560.293 523.549 560.564 523.879 560.918C524.209 561.272 524.449 561.701 524.579 562.166C524.71 562.632 524.727 563.123 524.628 563.596Z" fill="#294921"/>
<path d="M517.807 564.068C518.625 562.996 517.275 560.627 520.329 560.094C520.548 560.518 520.651 560.992 520.63 561.468C520.609 561.944 520.464 562.406 520.209 562.808C519.954 563.21 519.598 563.537 519.177 563.758C518.755 563.979 518.283 564.086 517.807 564.068Z" fill="#294921"/>
<path d="M542.962 545.016C544.697 547.11 544.666 550.425 546.608 550.527C543.054 551.804 542.009 544.973 540.255 544.122C539.389 543.765 538.543 543.36 537.721 542.909C540 546.241 540.052 550.474 542.13 551.559C537.757 552.242 536.414 542.412 534.985 541.293C534.25 540.828 533.506 540.325 532.784 539.849C535.134 544.086 533.689 549.493 536.107 550.539C531.412 551.203 531.038 538.795 529.343 537.435C528.826 537.074 528.33 536.739 527.877 536.456C527.425 536.174 526.715 535.686 526.163 535.31C528.904 539.86 528.183 547.277 530.723 548.55C525.771 549.142 524.782 534.196 522.444 532.798C521.414 532.143 520.334 531.571 519.214 531.087C523.37 534.707 522.88 544.541 525.343 545.747C523.031 546.016 521.394 542.746 519.871 539.139C519.033 536.802 517.921 534.573 516.558 532.497C515.89 531.691 515.351 531.04 514.996 530.611C514.784 530.236 514.479 529.922 514.11 529.7C513.795 529.511 513.44 529.4 513.075 529.373C518.511 528.205 523.665 531.765 527.712 534.357C530.797 536.341 536.47 541.424 542.079 543.949C542.348 544.275 542.661 544.652 542.962 545.016Z" fill="#F79A3F"/>
<path d="M511.97 548.597C511.848 548.302 511.669 548.032 511.444 547.804C509.882 546.182 506.697 547.349 506.482 547.353L506.186 547.312C506.527 547.188 506.86 547.044 507.184 546.881C507.484 546.711 507.773 546.523 508.05 546.317C508.377 546.068 508.677 545.783 508.942 545.469C509.281 544.99 509.792 544.661 510.368 544.551C510.851 544.466 511.349 544.56 511.768 544.817C512.023 544.963 512.242 545.164 512.409 545.406C512.575 545.648 512.684 545.925 512.729 546.215C512.76 546.541 512.709 546.87 512.581 547.171L511.97 548.597Z" fill="#EE6F84"/>
<path d="M552.266 533.476C551.456 534.476 552.809 536.929 549.749 537.271C549.524 536.858 549.416 536.392 549.436 535.924C549.457 535.455 549.604 535.001 549.863 534.611C550.122 534.22 550.482 533.908 550.906 533.708C551.329 533.508 551.8 533.428 552.266 533.476Z" fill="#294921"/>
<path d="M548.953 537.973C549.405 537.739 549.905 537.616 550.413 537.612C550.922 537.608 551.424 537.725 551.88 537.951C552.336 538.178 552.733 538.509 553.038 538.918C553.343 539.326 553.547 539.8 553.635 540.302C552.352 539.544 550.276 541.153 548.953 537.973Z" fill="#294921"/>
<path d="M547.484 543.377C547.79 542.005 545.507 540.146 548.143 538.446C550.252 540.756 548.846 542.753 547.484 543.377Z" fill="#294921"/>
</g>
<g clip-path="url(#clip3_7_3)">
<path d="M48.1774 543.912C51.7897 547.068 56.458 545.563 59.2387 544.606C57.2495 546.882 57.1175 550.512 55.0084 550.598C58.7937 552.022 60.3392 544.625 62.2351 543.658C63.1928 543.269 64.1291 542.83 65.04 542.341C62.3866 545.966 62.1171 550.597 59.804 551.761C64.5382 552.533 66.4422 541.862 68.0926 540.612C68.9304 540.088 69.7444 539.566 70.5458 539.033C67.8026 543.656 69.0859 549.554 66.389 550.697C71.4816 551.468 72.5021 537.894 74.4112 536.4C74.9714 536.014 75.5331 535.653 76.071 535.293C76.6089 534.933 77.3547 534.463 77.9846 534.049C74.786 539.015 75.1997 547.136 72.3742 548.503C77.711 549.174 79.543 532.854 82.1562 531.347C83.3115 530.616 84.5245 529.981 85.7831 529.448C81.0949 533.38 81.1318 544.133 78.3411 545.485C83.6431 546.171 86.4222 529.356 91.5301 529.087C93.4972 529.41 95.3333 530.276 96.8319 531.588C98.0804 532.736 99.2331 533.983 100.279 535.318C100.251 536.976 99.7706 538.596 98.8897 540.003C98.894 539.651 98.818 539.303 98.6674 538.986C98.5169 538.669 98.2958 538.39 98.021 538.172C97.7463 537.953 97.425 537.801 97.0818 537.725C96.7387 537.65 96.3826 537.654 96.0408 537.738C94.1057 538.29 95.2908 540.873 93.1596 540.805C93.3462 541.672 93.7955 542.46 94.4464 543.06C95.0973 543.661 95.9181 544.046 96.7971 544.163C98.5175 544.343 100.957 542.549 99.059 540.397C100.673 539.318 100.62 536.693 101.276 536.683C102.515 538.454 103.118 540.593 102.987 542.755C102.855 544.916 101.997 546.972 100.552 548.588C99.3308 550.059 97.7906 551.233 96.0493 552.02C94.3079 552.807 92.4113 553.187 90.5039 553.13C87.5689 553.01 86.1278 549.441 89.4399 548.387C88.8932 551.162 91.4444 551.44 93.1856 549.754C94.2538 548.736 93.9939 546.962 95.218 547.044C93.7246 546.681 92.6468 544.641 91.085 544.509C90.6785 544.486 90.2732 544.577 89.9152 544.772C89.5573 544.968 89.261 545.26 89.0602 545.615C88.8594 545.97 88.7621 546.374 88.7794 546.781C88.7967 547.188 88.9279 547.582 89.1581 547.917C88.5195 547.991 87.9249 548.282 87.4742 548.742C87.0236 549.201 86.7443 549.802 86.6834 550.442C86.533 551.791 87.4519 552.684 87.3944 553.082C82.4139 552.745 77.5466 551.946 73.7696 556.473C69.9926 561 71.4908 564.529 73.6993 566.504C76.6652 569.096 80.9888 569.801 84.0195 566.281C86.5532 563.382 87.1971 560.087 85.0044 558.171C82.8116 556.255 80.6908 558.528 80.0685 559.24C79.6462 559.724 80.169 560.225 80.6008 559.706C81.2676 558.942 82.6399 556.732 84.6836 558.563C86.7274 560.394 85.7489 563.688 83.671 565.887C80.7565 568.992 76.9687 568.441 74.2105 565.919C72.0811 564.058 71.2682 560.41 74.2828 557.011C81.3917 549.003 92.3305 559.66 101.387 549.295C105.455 544.64 105.364 537.07 97.8351 530.491C90.3063 523.913 82.2422 529.381 76.3174 533.041C70.3927 536.701 56.411 549.761 48.9186 543.191C48.2843 542.719 47.7588 542.115 47.3771 541.422C46.9954 540.729 46.7665 539.961 46.7056 539.171C46.6446 538.381 46.7532 537.587 47.0239 536.841C47.2946 536.095 47.7212 535.415 48.2752 534.847C50.3311 532.494 52.4836 531.795 54.6003 533.645C56.717 535.494 56.1495 536.86 54.5071 538.049C54.085 538.353 54.3174 538.982 54.8792 538.621C55.3365 538.338 55.7155 537.945 55.9808 537.477C56.2462 537.009 56.3893 536.483 56.3969 535.946C56.4046 535.409 56.2765 534.879 56.0246 534.405C55.7727 533.932 55.4051 533.53 54.9559 533.238C52.2562 530.879 49.3446 532.574 47.7333 534.418C46.1219 536.262 44.1515 540.461 48.1774 543.912Z" fill="#3751A3"/>
<path d="M88.9814 547.583C89.2095 548.096 89.3505 548.643 89.3985 549.203L89.5318 549.051C89.4952 549.22 89.2496 550.576 89.9974 551.229C90.7452 551.883 92.4583 551.406 93.3345 550.557C94.4027 549.539 94.1301 547.753 95.3669 547.847C93.8735 547.484 92.7956 545.443 91.2338 545.312C90.9336 545.299 90.6339 545.35 90.3538 545.46C90.0737 545.57 89.8195 545.737 89.6075 545.951C89.3954 546.165 89.2302 546.42 89.1224 546.701C89.0146 546.982 88.9666 547.283 88.9814 547.583Z" fill="#E9445A"/>
<path d="M92.6999 540.897C92.8834 541.764 93.3301 542.554 93.979 543.157C94.6279 543.76 95.4475 544.147 96.3263 544.267C97.8294 544.414 99.8684 543.078 99.1185 541.302L98.9664 541.169C98.8508 540.946 98.7129 540.735 98.5548 540.54L98.6103 540.476L98.4728 540.02C98.4728 540.02 98.395 540.109 98.3728 540.134C98.3771 539.783 98.3011 539.435 98.1505 539.117C98 538.8 97.7789 538.522 97.5041 538.303C97.2294 538.085 96.9081 537.932 96.565 537.857C96.2218 537.782 95.8658 537.786 95.5239 537.869C93.6539 538.321 94.8199 540.977 92.6999 540.897Z" fill="#E9445A"/>
<path d="M51.0601 534.32C51.8567 535.352 50.4635 537.791 53.541 538.259C53.7768 537.843 53.8957 537.37 53.8848 536.892C53.874 536.414 53.734 535.948 53.4796 535.544C53.2251 535.14 52.8658 534.813 52.4398 534.597C52.0138 534.382 51.537 534.286 51.0601 534.32Z" fill="#294921"/>
<path d="M53.8448 539.063C53.4235 538.821 52.9501 538.683 52.464 538.661C51.978 538.64 51.4934 538.735 51.0507 538.938C50.6081 539.142 50.2202 539.449 49.9194 539.832C49.6186 540.216 49.4137 540.666 49.3217 541.144C50.5657 540.437 52.5256 542.082 53.8448 539.063Z" fill="#294921"/>
<path d="M55.1816 544.312C54.9038 542.993 57.1208 541.274 54.6409 539.534C54.2592 539.831 53.9601 540.222 53.7723 540.667C53.5845 541.113 53.5144 541.6 53.5687 542.08C53.623 542.56 53.7999 543.017 54.0824 543.408C54.3649 543.799 54.7434 544.111 55.1816 544.312Z" fill="#294921"/>
<path d="M75.1293 557.347C76.2927 557.96 75.884 560.653 79.0103 559.863C79.0501 559.39 78.961 558.914 78.7524 558.488C78.5437 558.062 78.2234 557.7 77.8253 557.442C77.4273 557.184 76.9665 557.039 76.4918 557.022C76.0171 557.006 75.5463 557.118 75.1293 557.347Z" fill="#294921"/>
<path d="M76.0615 564.082C77.0172 562.989 79.5108 563.665 79.6234 560.466C79.1366 560.402 78.6409 560.451 78.1758 560.611C77.7106 560.771 77.2886 561.037 76.9431 561.388C76.5977 561.738 76.3382 562.164 76.1851 562.632C76.0321 563.1 75.9898 563.596 76.0615 564.082Z" fill="#294921"/>
<path d="M82.9164 564.577C82.1532 563.506 83.6715 561.155 80.572 560.532C80.328 560.943 80.1979 561.411 80.195 561.889C80.192 562.366 80.3165 562.835 80.5554 563.247C80.7943 563.659 81.1391 564 81.5542 564.234C81.9692 564.467 82.4395 564.586 82.9164 564.577Z" fill="#294921"/>
<path d="M60.4698 515.673C61.0695 515.68 61.6497 515.456 62.0895 515.047C62.0895 515.047 61.7679 516.336 62.1289 516.92L60.574 517.805L60.1187 516.33L60.4698 515.673Z" fill="#B7324B"/>
<path d="M60.1271 516.27C60.4223 516.281 60.717 516.233 60.9934 516.128C61.2698 516.022 61.5223 515.862 61.7356 515.657C61.7356 515.657 61.4251 516.933 61.7988 517.529L60.2312 518.402L59.7887 516.939L60.1271 516.27Z" fill="#FDBF5F"/>
<path d="M60.815 517.477C61.0379 516.911 61.0555 516.285 60.8649 515.709C60.6742 515.132 60.2873 514.642 59.7715 514.323C59.7715 514.323 60.4278 516.13 59.0113 516.574C57.092 517.185 60.815 517.477 60.815 517.477Z" fill="#CD3B53"/>
<path d="M60.5606 517.052C61.0479 516.685 61.6475 516.5 62.2558 516.528C62.8641 516.555 63.4428 516.795 63.892 517.205C63.892 517.205 61.9956 517.073 61.9371 518.547C61.8415 520.549 60.5606 517.052 60.5606 517.052Z" fill="#E85978"/>
<path d="M63.1192 527.093C60.4802 530.574 56.1466 530.443 52.6764 527.815C49.2063 525.186 47.9308 521.044 50.5697 517.563C53.2087 514.083 57.5852 514.139 61.0553 516.767C64.5255 519.396 65.7804 523.587 63.1192 527.093Z" fill="#E9445A"/>
<path d="M62.9379 524.692C62.6205 525.088 62.2245 525.414 61.7752 525.649C61.3258 525.884 60.8328 526.024 60.3275 526.059C59.8221 526.093 59.3154 526.023 58.8393 525.852C58.3633 525.68 57.9283 525.412 57.562 525.063C57.1251 524.806 56.747 524.46 56.4521 524.048C56.1572 523.635 55.952 523.166 55.8496 522.669C55.7473 522.171 55.75 521.658 55.8576 521.161C55.9652 520.665 56.1754 520.196 56.4747 519.784C56.7918 519.386 57.1881 519.057 57.6384 518.818C58.0887 518.58 58.5833 518.438 59.0907 518.401C59.5981 518.363 60.1074 518.432 60.5863 518.602C61.0653 518.772 61.5033 519.039 61.8729 519.388C62.3059 519.652 62.6794 520.003 62.9701 520.418C63.2608 520.834 63.4624 521.306 63.5624 521.804C63.6624 522.301 63.6585 522.815 63.5511 523.312C63.4436 523.809 63.2349 524.279 62.9379 524.692Z" fill="#E85978"/>
<path d="M62.7711 523.604C62.5884 523.839 62.3582 524.033 62.0956 524.173C61.8329 524.313 61.5439 524.396 61.2473 524.417C60.9508 524.437 60.6535 524.395 60.3749 524.292C60.0964 524.189 59.8429 524.029 59.6311 523.821C59.3781 523.67 59.1592 523.468 58.9882 523.228C58.8172 522.988 58.6976 522.715 58.6372 522.427C58.5767 522.138 58.5766 521.84 58.6369 521.551C58.6971 521.261 58.8164 520.988 58.9872 520.746C59.1727 520.513 59.4045 520.32 59.6679 520.18C59.9313 520.04 60.2206 519.956 60.5176 519.933C60.8147 519.91 61.113 519.949 61.3938 520.047C61.6747 520.146 61.9319 520.301 62.1494 520.504C62.4024 520.658 62.6206 520.864 62.7904 521.107C62.9603 521.35 63.078 521.625 63.1364 521.916C63.1947 522.207 63.1924 522.507 63.1295 522.798C63.0667 523.088 62.9447 523.363 62.7711 523.604Z" fill="#EC698B"/>
<path d="M55.1515 526.748C52.2597 524.557 51.1928 521.046 53.3729 518.218C53.8456 517.608 54.434 517.098 55.1043 516.716C55.7746 516.334 56.5133 516.088 57.278 515.993C58.0427 515.898 58.8181 515.955 59.5595 516.162C60.3008 516.368 60.9935 516.72 61.5975 517.196L61.0778 516.742C57.6077 514.114 53.2311 514.057 50.5922 517.538C47.9532 521.019 49.2288 525.161 52.6989 527.789C56.169 530.418 60.5027 530.549 63.1416 527.068C63.2825 526.922 63.416 526.769 63.5417 526.61C61.2749 529.025 57.8927 528.829 55.1515 526.748Z" fill="#CD3B53"/>
<path d="M53.9701 527.689C50.5 525.061 49.2118 520.908 51.8 517.383C52.7719 516.052 54.2102 515.137 55.8256 514.822C54.7932 514.809 53.7721 515.046 52.8498 515.514C51.9275 515.981 51.1314 516.665 50.5298 517.506C47.8908 520.987 49.1663 525.129 52.6365 527.758C53.5341 528.494 54.575 529.036 55.6936 529.349C56.8122 529.663 57.9842 529.741 59.1361 529.579C57.2577 529.503 55.4518 528.842 53.9701 527.689Z" fill="#B02F48"/>
<path d="M58.5738 545.213C56.7291 547.325 56.6148 550.679 54.6611 550.766C58.1642 552.077 59.5396 545.183 61.3355 544.33C62.2264 543.979 63.0976 543.579 63.9452 543.133C61.476 546.471 61.2434 550.753 59.0921 551.834C63.4759 552.547 65.2745 542.635 66.7662 541.517C67.5358 541.045 68.2577 540.577 69.0242 540.058C66.497 544.332 67.6808 549.807 65.1918 550.839C69.8864 551.555 70.8424 539 72.6182 537.659C73.1434 537.288 73.6591 536.953 74.1637 536.632C74.6683 536.31 75.3554 535.856 75.9282 535.482C72.9678 540.072 73.352 547.563 70.7137 548.868C75.6415 549.496 77.3056 534.443 79.757 533.019C80.8249 532.343 81.9449 531.754 83.1062 531.258C78.7688 534.892 78.8001 544.832 76.2189 546.098C78.5433 546.38 80.3337 543.077 82.0309 539.446C82.9683 537.077 84.1843 534.827 85.653 532.743C86.2771 531.875 86.8549 531.214 87.2328 530.782C87.4659 530.4 87.7899 530.082 88.1756 529.856C88.501 529.678 88.8608 529.571 89.2304 529.544C83.8101 528.329 78.4769 531.9 74.3197 534.458C71.1273 536.423 65.19 541.53 59.4408 544.042C59.2295 544.463 58.8961 544.845 58.5738 545.213Z" fill="#F79A3F"/>
<path d="M89.4809 549.006C89.6251 548.709 89.8172 548.437 90.0494 548.202C91.6875 546.583 94.8436 547.704 95.0401 547.786L95.3605 547.752C95.02 547.626 94.6903 547.473 94.3746 547.294C94.0737 547.134 93.7892 546.946 93.5252 546.731C93.2071 546.477 92.9228 546.184 92.6793 545.857C92.5196 545.613 92.3123 545.404 92.0697 545.242C91.8271 545.08 91.5542 544.969 91.2674 544.915C90.7845 544.833 90.2875 544.923 89.8622 545.168C89.613 545.318 89.3963 545.517 89.2251 545.753C89.0538 545.988 88.9314 546.256 88.865 546.539C88.8125 546.863 88.8466 547.195 88.9639 547.5L89.4809 549.006Z" fill="#EE6F84"/>
<path d="M36.3398 533.568C32.6767 530.367 33.4395 525.606 33.991 522.724C32.0463 524.949 28.5096 525.492 28.7295 527.569C26.7509 524.001 33.8636 521.693 34.4603 519.68C34.6959 518.72 34.9776 517.732 35.3195 516.752C32.1735 519.79 27.6487 520.569 26.8518 522.99C25.3689 518.42 35.6301 515.297 36.5786 513.546C36.9521 512.684 37.3494 511.82 37.7467 510.956C33.6777 514.129 27.6207 513.591 26.9187 516.365C25.3775 511.452 38.5796 508.903 39.7107 506.841C39.9936 506.236 40.278 505.654 40.5386 505.075C40.7993 504.495 41.1663 503.717 41.481 503.05C37.0769 506.76 29.0463 507.279 28.1268 510.198C26.6398 505.019 42.4103 501.372 43.4977 498.644C44.0427 497.422 44.4832 496.156 44.8145 494.861C41.657 499.907 31.0774 501.092 30.1437 503.976C28.6709 498.832 44.7945 494.193 44.2715 489.138C43.6302 487.237 42.5012 485.539 40.9971 484.214C39.6949 483.129 38.3082 482.15 36.8502 481.285C35.2392 481.506 33.717 482.161 32.4463 483.179C32.7972 483.137 33.1527 483.173 33.4875 483.284C33.8224 483.396 34.1281 483.58 34.3828 483.824C34.6375 484.068 34.8349 484.366 34.9608 484.695C35.0867 485.025 35.138 485.379 35.111 485.731C34.9029 487.658 32.1366 486.833 32.5357 488.909C31.6386 488.823 30.7886 488.47 30.0952 487.896C29.4017 487.322 28.8964 486.553 28.6444 485.688C28.2243 484.02 29.6065 481.415 32.0199 483.053C32.8145 481.325 35.4153 481.086 35.3367 480.434C33.4577 479.396 31.2782 479.033 29.1599 479.405C27.0416 479.777 25.1118 480.863 23.6906 482.481C22.4312 483.87 21.5121 485.533 21.0063 487.338C20.5005 489.142 20.4219 491.039 20.7768 492.876C21.3353 495.741 25.0702 496.762 25.6016 493.391C22.9574 494.243 22.2923 491.756 23.6737 489.868C24.5169 488.698 26.3008 488.754 26.0864 487.49C26.6812 488.907 28.8513 489.749 29.2256 491.265C29.3037 491.657 29.2687 492.063 29.1248 492.436C28.9808 492.81 28.7338 493.135 28.4126 493.374C28.0913 493.613 27.7091 493.756 27.3105 493.786C26.9118 493.816 26.5132 493.732 26.1612 493.544C26.1778 494.16 25.9805 494.763 25.6031 495.251C25.2256 495.739 24.6912 496.081 24.0908 496.22C22.7839 496.514 21.7761 495.723 21.4002 495.821C22.4847 500.693 24.0103 505.368 20.1433 509.615C16.2762 513.861 12.5714 512.755 10.2693 510.81C7.26537 508.186 5.92799 504.012 8.90934 500.651C11.3875 497.815 14.4886 496.824 16.6971 498.798C18.9057 500.773 17.0021 503.079 16.3909 503.779C15.9797 504.25 15.4125 503.799 15.8586 503.314C16.5142 502.563 18.4884 500.969 16.3066 499.22C14.1248 497.47 11.1265 498.753 9.27048 501.056C6.66193 504.272 7.76042 507.9 10.682 510.364C11.3155 510.894 12.0516 511.288 12.8447 511.521C13.6378 511.754 14.4708 511.821 15.2921 511.719C16.1134 511.616 16.9053 511.346 17.6188 510.924C18.3323 510.503 18.952 509.939 19.4395 509.269C26.2089 501.368 14.0765 491.821 22.8668 481.761C26.8229 477.234 34.3226 476.453 41.9274 483.098C49.5323 489.743 45.4104 498.297 42.7132 504.53C40.016 510.763 29.3082 526.011 36.9242 532.643C37.4623 533.217 38.1174 533.668 38.8454 533.966C39.5734 534.264 40.3573 534.403 41.1444 534.372C41.9315 534.342 42.7035 534.143 43.4084 533.789C44.1132 533.435 44.7346 532.934 45.2306 532.32C47.2198 530.044 47.5661 527.857 45.424 525.985C43.282 524.114 42.0001 524.788 41.123 526.533C40.891 527.003 40.2474 526.845 40.5064 526.241C40.7313 525.757 41.0751 525.337 41.5058 525.021C41.9365 524.705 42.4399 524.503 42.969 524.434C43.498 524.365 44.0354 524.432 44.5309 524.627C45.0263 524.823 45.4637 525.142 45.8019 525.553C48.527 527.934 47.306 530.994 45.728 532.8C45.1953 533.517 44.5158 534.113 43.735 534.547C42.9542 534.981 42.0902 535.243 41.201 535.316C40.3118 535.389 39.418 535.27 38.5796 534.969C37.7411 534.667 36.9774 534.19 36.3398 533.568Z" fill="#3751A3"/>
<path d="M26.4792 493.844C25.9435 493.689 25.3866 493.619 24.8287 493.636L24.962 493.483C24.862 493.598 23.5107 493.942 22.7613 493.265C22.0119 492.588 22.2102 490.877 22.8883 489.922C23.7442 488.763 25.528 488.819 25.3136 487.555C25.9084 488.972 28.0785 489.814 28.4528 491.33C28.5197 491.628 28.5193 491.937 28.4517 492.236C28.3842 492.534 28.251 492.814 28.062 493.055C27.873 493.295 27.6328 493.491 27.3591 493.628C27.0853 493.765 26.7847 493.839 26.4792 493.844Z" fill="#E9445A"/>
<path d="M32.4988 489.437C31.602 489.352 30.7518 489.001 30.0568 488.43C29.3617 487.859 28.8532 487.093 28.5963 486.229C28.2378 484.772 29.2437 482.623 31.0953 483.165L31.2474 483.298C31.4883 483.386 31.7197 483.498 31.9385 483.632C32.0933 483.676 32.2512 483.71 32.4109 483.731C32.4109 483.731 32.3442 483.807 32.3109 483.846C32.6615 483.802 33.0171 483.836 33.3523 483.946C33.6875 484.056 33.994 484.239 34.2497 484.482C34.5055 484.725 34.7042 485.021 34.8316 485.35C34.959 485.68 35.012 486.033 34.9867 486.385C34.8533 488.175 32.087 487.351 32.4988 489.437Z" fill="#E9445A"/>
<path d="M19.0259 508.616C18.25 507.534 15.6439 508.24 15.9499 505.076C16.4171 504.985 16.8996 505.019 17.349 505.173C17.7984 505.327 18.1989 505.597 18.5105 505.956C18.822 506.315 19.0336 506.749 19.1241 507.216C19.2146 507.683 19.1807 508.166 19.0259 508.616Z" fill="#294921"/>
<path d="M12.227 508.416C13.1493 507.361 12.1209 504.982 15.2564 504.514C15.3967 504.977 15.4239 505.466 15.3357 505.942C15.2475 506.417 15.0465 506.865 14.7496 507.247C14.4527 507.63 14.0686 507.936 13.6296 508.139C13.1906 508.342 12.7096 508.438 12.227 508.416Z" fill="#294921"/>
<path d="M10.6661 501.76C11.8547 502.395 13.9766 500.683 14.9933 503.613C14.6094 503.896 14.1584 504.074 13.685 504.13C13.2117 504.185 12.7324 504.116 12.295 503.929C11.8575 503.742 11.477 503.443 11.1913 503.063C10.9055 502.682 10.7245 502.233 10.6661 501.76Z" fill="#294921"/>
<path d="M33.5065 523.534C31.7173 525.582 28.4407 526.083 28.6513 528.016C26.8215 524.713 33.3964 522.585 33.9549 520.718C34.168 519.806 34.432 518.906 34.7456 518.023C31.822 520.806 27.6524 521.536 26.9144 523.762C25.539 519.555 35.0261 516.653 35.9014 515.063C36.2432 514.263 36.6198 513.448 36.9742 512.658C33.1686 515.658 27.6001 515.099 26.9553 517.653C25.547 513.125 37.7341 510.766 38.8047 508.875C39.078 508.307 39.3291 507.763 39.5357 507.271C39.7424 506.779 40.1095 506.001 40.3923 505.396C36.3405 508.83 28.9046 509.308 28.0551 512.02C26.6771 507.227 41.2708 503.853 42.2755 501.322C42.7568 500.2 43.1482 499.042 43.446 497.859C40.5395 502.541 30.7545 503.635 29.959 506.26C29.3222 504.021 32.288 501.88 35.6043 499.799C37.7759 498.597 39.7979 497.141 41.628 495.463C42.317 494.675 42.8726 494.039 43.2394 493.619C43.5752 493.35 43.8361 492.998 43.9968 492.599C44.1322 492.257 44.1858 491.889 44.1532 491.524C46.1778 496.702 43.4907 502.361 41.5818 506.771C40.118 510.135 36.0109 516.549 34.4177 522.491C34.1399 522.809 33.8176 523.178 33.5065 523.534Z" fill="#F79A3F"/>
<path d="M25.0001 493.516C25.2724 493.348 25.5096 493.129 25.6984 492.871C27.0497 491.068 25.3861 488.112 25.3482 487.9L25.3406 487.601C25.5177 487.918 25.7133 488.224 25.9264 488.517C26.1423 488.786 26.3745 489.041 26.6218 489.281C26.9206 489.565 27.2495 489.815 27.6026 490.026C28.1294 490.284 28.5358 490.735 28.7367 491.287C28.8987 491.749 28.8852 492.256 28.6988 492.711C28.5961 492.986 28.4325 493.235 28.2203 493.438C28.008 493.641 27.7527 493.793 27.4734 493.883C27.1564 493.967 26.8238 493.969 26.5061 493.89L25.0001 493.516Z" fill="#EE6F84"/>
<path d="M46.3894 530.866C45.2721 530.226 43.0678 531.956 42.2399 528.99C42.6112 528.702 43.0536 528.52 43.5194 528.465C43.9852 528.41 44.4569 528.483 44.8837 528.676C45.3105 528.869 45.6762 529.174 45.9415 529.56C46.2068 529.946 46.3617 530.398 46.3894 530.866Z" fill="#294921"/>
<path d="M41.419 528.317C41.7217 528.725 41.9239 529.199 42.0091 529.7C42.0944 530.202 42.0602 530.717 41.9094 531.203C41.7587 531.69 41.4956 532.134 41.1414 532.5C40.7872 532.867 40.352 533.145 39.8711 533.312C40.4132 531.924 38.4915 530.133 41.419 528.317Z" fill="#294921"/>
<path d="M35.8493 527.734C37.2526 527.816 38.7219 525.265 40.8223 527.594C38.8805 530.046 36.6837 528.979 35.8493 527.734Z" fill="#294921"/>
</g>
<defs>
<clipPath id="clip0_7_3">
<rect width="103.481" height="43.692" fill="white" transform="translate(0 73.2708) rotate(-45.0772)"/>
</clipPath>
<clipPath id="clip1_7_3">
<rect width="103.481" height="43.692" fill="white" transform="translate(533.629 0.446045) rotate(47.2091)"/>
</clipPath>
<clipPath id="clip2_7_3">
<rect width="103.481" height="43.692" fill="white" transform="translate(599.57 506.654) rotate(140.376)"/>
</clipPath>
<clipPath id="clip3_7_3">
<rect width="103.481" height="43.692" fill="white" transform="translate(80.4512 573.256) rotate(-138.854)"/>
</clipPath>
</defs>
</svg>
