<svg width="22" height="20" viewBox="0 0 22 20" fill="none" xmlns="http://www.w3.org/2000/svg">
<path d="M12.8275 0.56192C12.9405 0.62578 13.0345 0.71849 13.0999 0.830579C13.1654 0.942668 13.1999 1.07012 13.2 1.19992V18.7999C13.2 18.9297 13.1656 19.0571 13.1003 19.1692C13.035 19.2813 12.9411 19.3741 12.8282 19.4381C12.7153 19.502 12.5875 19.5349 12.4578 19.5333C12.328 19.5318 12.201 19.4958 12.0897 19.4291L4.93093 15.1333H2.2C1.61652 15.1333 1.05695 14.9015 0.644365 14.4889C0.231785 14.0763 0 13.5167 0 12.9333L0 7.06219C0.000388815 6.47896 0.232345 5.91976 0.644883 5.5075C1.05742 5.09524 1.61678 4.86365 2.2 4.86365H4.93093L12.0883 0.570719C12.1997 0.503921 12.3268 0.467907 12.4567 0.466361C12.5866 0.464814 12.7145 0.497792 12.8275 0.56192ZM20.3192 5.07779L19.8 4.56005L18.7631 5.59699L19.2779 6.11325L19.2823 6.11619L19.3116 6.14845C19.5323 6.41834 19.7222 6.71203 19.8777 7.02405C20.2004 7.66792 20.5333 8.65498 20.5333 9.99405C20.5333 11.3331 20.1989 12.3202 19.8777 12.9641C19.7541 13.2142 19.6083 13.4527 19.4421 13.6769C19.3912 13.7442 19.3374 13.8093 19.2808 13.8719L19.2779 13.8763L18.7631 14.3897L19.8 15.4281L20.3192 14.9103L19.8 14.3911L20.3192 14.9103L20.3207 14.9074L20.3236 14.9045L20.3309 14.8971L20.3515 14.8766L20.4145 14.8062C20.4659 14.7475 20.5348 14.6639 20.6155 14.5569C20.7768 14.3427 20.9836 14.0289 21.1889 13.6197C21.5996 12.7983 22 11.5869 22 9.99405C22 8.40125 21.6011 7.19125 21.1889 6.36845C21.0266 6.03961 20.8352 5.72596 20.6169 5.43125C20.5337 5.3209 20.4451 5.21468 20.3515 5.11299L20.3309 5.09099L20.3236 5.08365L20.3207 5.08072C20.3207 5.07925 20.3177 5.07779 19.8 5.59699L20.3192 5.07779Z" fill="white"/>
</svg>
