<svg width="85" height="123" viewBox="0 0 85 123" fill="none" xmlns="http://www.w3.org/2000/svg">
<path d="M62.72 121L30.4516 92.4029H52.8655L84.9407 121H62.72ZM0.888302 90.6638V0.235039H17.892V95.108C17.892 98.7148 18.7293 102.708 20.4039 107.088C22.2073 110.952 24.9125 114.237 28.5193 116.942C32.255 119.647 36.7635 121 42.045 121C42.8179 121 43.3332 121.064 43.5908 121.193C43.5908 121.322 43.6552 121.451 43.784 121.58C43.784 122.353 43.2043 122.739 42.045 122.739C36.2483 122.739 30.2583 121.837 24.0752 120.034C18.0208 118.23 12.6106 114.946 7.84436 110.179C3.20699 105.413 0.888302 98.9081 0.888302 90.6638ZM68.1302 88.7316C68.1302 89.8909 67.8082 90.4706 67.1641 90.4706C66.52 89.8265 66.198 89.2469 66.198 88.7316C66.198 75.0771 61.1742 61.6802 51.1265 48.541V0.235039H68.1302V88.7316Z" fill="#9C1F2A"/>
</svg>
