<svg width="83" height="124" viewBox="0 0 83 124" fill="none" xmlns="http://www.w3.org/2000/svg">
<path d="M75.4593 31.2711C75.4593 34.7492 74.7508 39.0645 73.3338 44.2171C71.788 43.4443 68.8897 42.4137 64.6388 41.1256C61.0319 40.2239 58.3268 39.3221 56.5233 38.4204L57.6827 33.0102L57.8759 26.2473C57.8759 21.8676 57.0386 17.9387 55.364 14.4607C53.8182 10.8538 51.6283 7.95546 48.7944 5.76558C46.0892 3.4469 43.3841 2.28755 40.679 2.28755C40.0349 2.28755 39.5196 2.22314 39.1332 2.09433C38.7467 1.96552 38.3603 1.77229 37.9738 1.51465C39.262 1.12821 40.3569 0.93499 41.2586 0.93499C47.1842 0.93499 52.7877 2.35196 58.0691 5.18591C63.4794 8.01986 67.7303 11.7555 70.8219 16.3929C73.9135 21.0303 75.4593 25.9897 75.4593 31.2711ZM20.1972 52.3326H34.4958C61.9336 52.3326 77.8424 54.7801 82.2221 59.6751C80.5475 60.8344 77.9712 62.187 74.4932 63.7328C72.6897 64.5057 71.2084 65.2142 70.049 65.8582C68.8897 66.3735 68.0524 66.8243 67.5371 67.2108C59.6793 58.4513 43.8994 54.0716 20.1972 54.0716C19.5532 54.0716 19.1023 53.7495 18.8447 53.1054C19.4888 52.5902 19.9396 52.3326 20.1972 52.3326ZM17.4921 123.439H0.4884V33.9763C0.4884 26.8914 2.0986 21.1591 5.319 16.7793C8.66821 12.2708 12.5327 8.98598 16.9124 6.92492C18.9735 5.89439 21.2922 4.92828 23.8685 4.02657C26.5736 3.12485 29.794 2.09433 33.5297 0.93499C34.3026 0.93499 34.7534 0.999397 34.8823 1.12821C35.1399 1.25703 35.3331 1.38584 35.4619 1.51465C34.9467 2.02992 34.4314 2.35196 33.9161 2.48077C30.0517 3.64012 26.316 6.7317 22.7092 11.7555C19.2311 16.7793 17.4921 22.7049 17.4921 29.5321V123.439Z" fill="#9C1F2A"/>
</svg>
