<svg  width="85" height="124" viewBox="0 0 85 124" fill="none" xmlns="http://www.w3.org/2000/svg">
<path d="M79.6294 33.7758V123.239H62.6257V29.3317C62.6257 27.2706 62.4969 25.4028 62.2392 23.7282C61.9816 21.9248 61.4019 19.4773 60.5002 16.3857C59.5985 13.1653 57.8595 10.0737 55.2832 7.11094C52.8357 4.01935 50.2593 2.47356 47.5542 2.47356C46.5237 2.47356 45.6864 2.40915 45.0423 2.28033C44.527 2.15152 44.0762 1.9583 43.6897 1.70067C43.6897 1.05659 44.9779 0.73455 47.5542 0.73455C49.4864 0.73455 50.9678 0.798958 51.9984 0.927772C53.0289 1.05659 54.6391 1.50744 56.829 2.28033C60.4358 3.18205 63.9782 4.92107 67.4563 7.49738C70.9343 9.81607 73.8327 13.2297 76.1514 17.7383C78.47 22.118 79.6294 27.4639 79.6294 33.7758ZM82.3345 63.3391H90.6431C97.5992 63.3391 103.074 63.79 107.067 64.6917C109.128 65.0781 111.189 65.7866 113.25 66.8171C115.44 67.7188 117.695 69.007 120.013 70.6816C118.725 71.7121 116.084 73.0647 112.091 74.7393C110.288 75.5122 108.806 76.1563 107.647 76.6716C106.616 77.1868 105.843 77.7021 105.328 78.2173C101.721 73.7088 98.3077 70.424 95.0873 68.3629C91.9957 66.1731 87.7448 65.0781 82.3345 65.0781C81.9481 65.0781 81.626 64.9493 81.3684 64.6917C81.1108 64.434 80.982 64.2408 80.982 64.112C81.4972 63.5967 81.9481 63.3391 82.3345 63.3391ZM57.9883 63.5323L60.1138 64.112C59.3409 64.7561 58.6968 65.0781 58.1815 65.0781C55.8628 65.5934 53.1577 66.0442 50.0661 66.4307C46.9745 66.8171 44.0118 67.0104 41.1778 67.0104C29.1979 67.0104 19.3435 64.2408 11.6146 58.7017C3.88559 53.1626 0.0211144 44.854 0.0211144 33.7758C0.0211144 31.586 0.214338 29.5893 0.600786 27.7859C0.987234 25.9825 1.69572 24.0502 2.72625 21.9892C4.40086 18.1247 6.91277 14.5823 10.262 11.3619C13.74 8.14146 17.7977 5.69396 22.4351 4.01935C26.8148 2.21593 31.9031 1.31421 37.6998 1.31421C38.3439 1.31421 38.7947 1.37862 39.0524 1.50744C39.4388 1.50744 39.7608 1.57185 40.0185 1.70067L38.2795 2.66679C32.0963 4.59903 27.1369 7.88383 23.4012 12.5212C19.6655 17.1586 17.7977 22.5689 17.7977 28.752C17.7977 42.0201 20.1808 51.2304 24.947 56.383C29.842 61.5357 37.3777 64.112 47.5542 64.112L57.9883 63.5323Z" fill="#9C1F2A"/>
</svg>
