<svg width="119" height="124" viewBox="0 0 83 124" fill="none" xmlns="http://www.w3.org/2000/svg">
<path d="M30.7628 1.86766C31.278 1.86766 31.6645 1.93207 31.9221 2.06088C32.1797 2.06088 32.373 2.12529 32.5018 2.2541L31.3424 3.22022C28.8949 4.37957 25.9966 7.40674 22.6474 12.3017C19.427 17.1968 17.8168 22.7358 17.8168 28.919C17.8168 32.1394 17.9456 34.5225 18.2032 36.0683C18.5897 37.4853 18.9117 38.5802 19.1693 39.3531C19.427 40.126 20.0066 41.3498 20.9083 43.0244C19.6202 43.6684 16.915 44.5057 12.7929 45.5363C11.5048 45.9227 10.0234 46.438 8.34879 47.0821C6.67418 47.5973 5.2572 48.1126 4.09786 48.6279C1.39272 43.604 0.0401574 38.709 0.0401574 33.9428C0.0401574 29.1766 1.71476 24.4105 5.06398 19.6443C6.73859 17.4544 8.54201 15.4577 10.4742 13.6543C12.5353 11.7221 14.6608 10.0475 16.8506 8.63049C19.1693 7.08471 21.6168 5.73214 24.1931 4.5728C26.8983 3.28463 29.0882 2.38292 30.7628 1.86766ZM77.9094 33.9428V123.406H60.9057V29.4987C60.9057 25.2478 60.0684 21.1256 58.3938 17.1324C56.7192 13.0102 54.014 9.59662 50.2784 6.89148C46.6715 4.05752 42.163 2.64055 36.7527 2.64055C35.9798 2.64055 35.4645 2.57614 35.2069 2.44733C35.0781 2.31851 35.0137 2.1897 35.0137 2.06088C35.0137 1.28799 35.5934 0.901543 36.7527 0.901543C41.9053 0.901543 47.6377 1.86766 53.9496 3.7999C60.3904 5.73214 65.9939 9.14576 70.7601 14.0408C75.5263 18.9358 77.9094 25.5698 77.9094 33.9428ZM80.6145 81.4759H90.0825C96.5233 81.4759 101.74 81.9268 105.734 82.8285C110.113 83.6014 114.236 85.598 118.1 88.8184L103.415 96.3542C100.066 91.9744 96.6521 88.6896 93.1741 86.4997C89.8249 84.3099 85.6384 83.2149 80.6145 83.2149C79.9705 83.2149 79.5196 82.8929 79.262 82.2488C79.7772 81.7336 80.2281 81.4759 80.6145 81.4759Z" fill="#9C1F2A"/>
</svg>
