<svg width="84" height="125" viewBox="0 0 84 125" fill="none" xmlns="http://www.w3.org/2000/svg">
<path d="M49.1615 121.65C48.3886 121.65 47.8734 121.585 47.6157 121.457C47.4869 121.328 47.3581 121.199 47.2293 121.07C47.7445 120.555 48.131 120.297 48.3886 120.297C49.9344 119.524 51.5446 118.172 53.2192 116.24C54.8938 114.307 56.5684 111.409 58.243 107.545C59.5312 104.453 60.1753 100.717 60.1753 96.3376L59.7888 89.3815C59.5312 87.7069 58.8227 85.9035 57.6634 83.9712C58.6939 83.456 61.4634 82.5543 65.972 81.2661C67.2602 80.8796 68.9348 80.3 70.9958 79.5271C73.1857 78.6254 74.345 78.1745 74.4739 78.1745C76.7925 82.4254 77.9519 86.8052 77.9519 91.3137C77.9519 98.3986 74.8603 104.582 68.6771 109.863C62.494 115.016 55.9888 118.945 49.1615 121.65ZM0.0826378 91.3137V0.884941H17.0863V95.7579C17.0863 99.2359 17.9236 103.294 19.5983 107.931C21.4017 111.924 24.1068 115.402 27.7137 118.365C31.3205 121.199 35.8291 122.616 41.2393 122.616C42.0122 122.616 42.5275 122.68 42.7851 122.809C42.7851 122.938 42.8495 123.067 42.9784 123.196C42.9784 123.969 42.3987 124.355 41.2393 124.355C36.0867 124.355 30.29 123.389 23.8492 121.457C17.4084 119.524 11.8049 116.111 7.0387 111.216C2.40132 106.321 0.0826378 99.6868 0.0826378 91.3137ZM21.5305 59.625L30.4188 59.4318H41.2393C65.0703 59.4318 79.0468 61.6861 83.1689 66.1946C81.752 67.4828 78.8536 68.9642 74.4739 70.6388C70.0941 72.1846 67.6466 73.0863 67.1313 73.3439C66.7449 73.6015 66.2296 73.988 65.5856 74.5033C61.4634 69.9947 56.182 66.7099 49.7412 64.6488C46.6496 63.4895 42.7851 62.6522 38.1478 62.1369C33.5104 61.6217 27.9713 61.364 21.5305 61.364C20.6288 61.364 20.1779 61.042 20.1779 60.3979C20.6932 59.8826 21.144 59.625 21.5305 59.625Z" fill="#9C1F2A"/>
</svg>
