<svg width="183" height="180" viewBox="0 0 183 114" fill="none" xmlns="http://www.w3.org/2000/svg">
<path d="M41.8988 101.724C41.2484 101.724 40.8147 101.669 40.5979 101.561C40.4895 101.453 40.3811 101.344 40.2727 101.236C40.7063 100.802 41.0316 100.585 41.2484 100.585C42.5493 99.9349 43.9044 98.7966 45.3137 97.1705C46.723 95.5443 48.1324 93.1051 49.5417 89.8528C50.6258 87.251 51.1678 84.1072 51.1678 80.4212L50.8426 74.5672C50.6258 73.1578 50.0295 71.6401 49.0538 70.014C49.9211 69.5803 52.2519 68.8215 56.0462 67.7374C57.1303 67.4122 58.5396 66.9243 60.2742 66.2739C62.1171 65.515 63.0928 65.1356 63.2012 65.1356C65.1526 68.7131 66.1283 72.399 66.1283 76.1933C66.1283 82.1558 63.5264 87.3594 58.3228 91.8042C53.1192 96.1406 47.6445 99.447 41.8988 101.724ZM0.594973 76.1933V0.0901222H14.905V79.9334C14.905 82.8605 15.6096 86.2753 17.0189 90.1781C18.5367 93.5387 20.8133 96.4658 23.8487 98.9592C26.8842 101.344 30.6785 102.537 35.2317 102.537C35.8821 102.537 36.3158 102.591 36.5326 102.699C36.5326 102.808 36.5868 102.916 36.6952 103.025C36.6952 103.675 36.2074 104 35.2317 104C30.8953 104 26.0169 103.187 20.5964 101.561C15.176 99.9349 10.4602 97.062 6.44906 92.9425C2.54634 88.823 0.594973 83.2399 0.594973 76.1933ZM18.6451 49.5247L26.1253 49.362H35.2317C55.2874 49.362 67.0497 51.2592 70.5188 55.0535C69.3263 56.1376 66.8871 57.3843 63.2012 58.7936C59.5153 60.0945 57.4555 60.8534 57.0219 61.0702C56.6967 61.287 56.263 61.6123 55.721 62.0459C52.2519 58.2516 47.8071 55.4872 42.3867 53.7526C39.7849 52.7769 36.5326 52.0723 32.6299 51.6386C28.7271 51.205 24.0655 50.9882 18.6451 50.9882C17.8862 50.9882 17.5068 50.7172 17.5068 50.1751C17.9404 49.7415 18.3199 49.5247 18.6451 49.5247ZM148.16 0.0901222V103.187H133.85V0.0901222H148.16ZM87.343 35.8651L95.9615 38.6295L103.117 40.7435L101.49 47.8985C101.49 55.2703 103.388 61.1244 107.182 65.4608C110.976 69.7972 115.8 71.9653 121.654 71.9653C123.823 71.9653 126.479 71.5317 129.623 70.6644C130.273 70.6644 130.707 70.7186 130.923 70.827C130.923 70.9355 130.978 71.0439 131.086 71.1523C130.544 71.6943 130.056 72.0737 129.623 72.2906C126.153 73.6999 122.413 74.4045 118.402 74.4045C113.415 74.4045 108.32 73.3747 103.117 71.3149C98.0213 69.1467 93.7933 66.0028 90.4326 61.8833C87.1804 57.6553 85.5542 52.7769 85.5542 47.2481C85.5542 44.4294 86.1505 40.6351 87.343 35.8651ZM153.527 101.886C170.439 101.886 180.033 103.729 182.309 107.415C181.225 108.174 179.057 109.204 175.805 110.505L169.3 113.594L165.723 110.017C163.446 107.957 161.386 106.277 159.543 104.976C157.7 103.783 155.586 103.187 153.201 103.187C152.226 103.187 151.63 103.133 151.413 103.025C151.196 103.025 151.033 102.916 150.925 102.699C151.25 102.482 151.467 102.374 151.575 102.374C152.334 102.049 152.985 101.886 153.527 101.886Z" fill="#9C1F2A"/>
</svg>
