<svg width="128" height="130" viewBox="0 0 128 130" fill="none" xmlns="http://www.w3.org/2000/svg">
<path d="M4.58153 50.0308C4.58153 41.6578 7.02903 33.5424 11.924 25.6846C14.1139 22.2066 16.8835 18.8574 20.2327 15.637C23.7107 12.4166 27.3175 9.71143 31.0532 7.52155C39.0398 3.013 47.0264 0.75872 55.013 0.75872C55.9147 0.75872 56.5588 0.823128 56.9452 0.951942C57.3317 1.08076 57.7181 1.27398 58.1046 1.53161C57.9757 1.66043 57.7181 1.85365 57.3317 2.11128C56.9452 2.2401 56.1723 2.36891 55.013 2.49772C48.8298 2.49772 43.1619 4.88082 38.0093 9.64701C32.8566 14.4132 28.7989 20.4676 25.8362 27.8101C23.0022 35.1526 21.5852 42.5595 21.5852 50.0308C21.5852 64.9735 25.2565 76.4381 32.599 84.4247C39.9415 92.4113 50.7621 96.4046 65.0606 96.4046C65.9623 96.4046 66.6064 96.469 66.9929 96.5978C67.3793 96.7266 67.7658 96.9198 68.1522 97.1775C68.1522 97.9504 67.1217 98.3368 65.0606 98.3368C53.9825 98.3368 43.7416 96.2113 34.338 91.9604C25.0633 87.7095 17.7852 81.8484 12.5037 74.377C7.22226 66.9057 4.58153 58.7903 4.58153 50.0308ZM0.910275 102.781H17.914V123.263H0.910275V102.781ZM99.4545 50.0308C99.4545 43.8477 98.746 38.1798 97.329 33.0271C96.0409 27.6168 94.0442 22.7218 91.3391 18.3421C88.6339 13.9624 84.9627 10.2267 80.3253 7.13511C78.0066 5.71813 75.5591 4.62319 72.9828 3.8503C70.5353 2.94858 67.8946 2.49772 65.0606 2.49772C64.0301 2.49772 63.2572 2.43332 62.7419 2.3045C62.3555 2.17569 61.969 1.91806 61.5826 1.53161C61.8402 1.27398 62.2267 1.08076 62.7419 0.951942C63.2572 0.823128 64.0301 0.75872 65.0606 0.75872C71.5014 0.75872 78.7151 2.43333 86.7017 5.78254C94.6883 9.13175 101.644 14.542 107.57 22.0133C113.495 29.4847 116.458 38.8238 116.458 50.0308C116.458 59.8208 112.98 69.0312 106.024 77.6618C99.1969 86.2925 91.017 93.5062 81.4847 99.3029C71.9523 104.971 62.2911 109.415 52.5011 112.635H66.4132C80.3253 112.635 92.5628 113.344 103.126 114.761C113.689 116.049 121.675 118.883 127.086 123.263C125.54 124.293 123.092 125.453 119.743 126.741L112.787 129.639C106.861 119.463 89.6001 114.374 61.0029 114.374H26.0294C24.9989 114.374 24.3548 114.052 24.0971 113.408C24.87 112.893 25.5141 112.635 26.0294 112.635C35.8194 112.635 45.0941 111.218 53.8536 108.384C62.7419 105.422 70.5353 101.3 77.2337 96.0181C83.9322 90.7367 89.3424 84.1671 93.4645 76.3093C95.3968 72.316 96.8782 68.1939 97.9087 63.9429C98.9392 59.5632 99.4545 54.9258 99.4545 50.0308Z" fill="#9C1F2A"/>
</svg>
