<svg width="82" height="149" viewBox="0 0 82 149" fill="none" xmlns="http://www.w3.org/2000/svg">
<path d="M0.396603 0.383476H17.4003V122.887H0.396603V0.383476ZM20.1054 82.6969L28.9937 82.5036H39.8143C63.5164 82.5036 77.493 84.7579 81.7439 89.2665C80.0693 90.5546 76.9777 92.1004 72.4691 93.9039C67.9606 95.5785 65.191 96.8022 64.1605 97.5751C63.0012 96.287 61.5842 94.9988 59.9096 93.7106C58.235 92.4225 56.5604 91.3275 54.8858 90.4258C51.2789 88.3648 46.6415 86.8834 40.9736 85.9817C38.6549 85.4664 35.6278 85.08 31.8921 84.8223C28.2853 84.5647 24.3564 84.4359 20.1054 84.4359C19.4614 84.4359 19.0105 84.1138 18.7529 83.4698C19.397 82.9545 19.8478 82.6969 20.1054 82.6969ZM20.1054 121.148H38.0753H44.0652C53.34 121.148 60.8113 121.986 66.4792 123.66C72.1471 125.464 74.981 129.071 74.981 134.481C74.981 137.444 72.7268 140.342 68.2182 143.176C63.8385 146.01 59.7164 147.62 55.8519 148.007L55.079 147.427L55.8519 146.268C57.6553 144.464 58.557 142.21 58.557 139.505C58.557 136.928 57.7841 134.352 56.2383 131.776C54.6925 129.328 52.245 127.203 48.8958 125.399C45.5466 123.725 41.9398 122.887 38.0753 122.887H20.1054C19.8478 122.887 19.5902 122.759 19.3325 122.501C19.2037 122.372 19.0749 122.243 18.9461 122.115C19.4614 121.47 19.8478 121.148 20.1054 121.148Z" fill="#9C1F2A"/>
</svg>
