<svg width="78" height="135" viewBox="0 0 78 135" fill="none" xmlns="http://www.w3.org/2000/svg">
<path d="M75.0635 30.581C75.0635 34.059 74.355 38.3743 72.9381 43.527C71.3923 42.7541 68.4939 41.7235 64.243 40.4354C60.6362 39.5337 57.931 38.632 56.1276 37.7302L57.2869 32.32L57.4802 25.5571C57.4802 21.1774 56.8361 17.2485 55.5479 13.7705C53.8733 9.906 51.8767 6.94323 49.558 4.88218C47.2393 2.6923 44.7274 1.59737 42.0222 1.59737C41.2493 1.59737 40.6697 1.53296 40.2832 1.40414C40.0256 1.14651 39.8968 0.953283 39.8968 0.824469C41.0561 0.438026 42.0222 0.244804 42.7951 0.244804C48.5919 0.244804 54.0021 1.59737 59.026 4.3025C63.921 7.26527 67.7854 11.0653 70.6194 15.7027C73.5822 20.2113 75.0635 25.1707 75.0635 30.581ZM17.0964 122.749H0.0926476V33.2861C0.0926476 28.1335 1.57403 23.3029 4.5368 18.7943C7.62838 14.1569 11.6861 10.228 16.7099 7.00764C21.8625 3.65842 26.6931 1.53296 31.2017 0.631247C31.8458 0.631247 32.2966 0.695654 32.5543 0.824469C32.5543 0.953283 32.6187 1.0821 32.7475 1.21092L31.7814 1.79059C27.9169 2.94993 24.5033 5.97711 21.5405 10.8721C18.5777 15.6383 17.0964 21.6282 17.0964 28.8419V122.749ZM19.8015 121.01H34.4865C45.4359 121.01 54.775 121.396 62.504 122.169C70.3618 122.942 75.3212 124.488 77.3822 126.806C76.2229 127.966 73.711 129.447 69.8465 131.251L62.6972 134.729C61.2802 133.312 59.9277 132.088 58.6395 131.057C57.3513 130.027 55.7411 128.996 53.8089 127.966C50.7173 126.42 46.4664 125.132 41.0561 124.101C35.7747 123.2 28.6898 122.749 19.8015 122.749C19.0286 122.749 18.5777 122.491 18.4489 121.976C19.093 121.332 19.5439 121.01 19.8015 121.01Z" fill="#9C1F2A"/>
</svg>
