<svg width="143" height="124" viewBox="0 0 143 124" fill="none" xmlns="http://www.w3.org/2000/svg">
<path d="M17.0038 123.324H0.000118291V38.3052C0.000118291 32.7661 1.4815 27.7423 4.44427 23.2337C7.40704 19.1116 11.2071 15.5048 15.8445 12.4132C20.6107 9.3216 25.8277 6.8741 31.4956 5.07067C37.2923 3.13844 42.767 1.78587 47.9197 1.01298C48.8214 1.01298 49.4655 1.07738 49.8519 1.2062C49.8519 1.33501 49.9163 1.46383 50.0451 1.59264C49.5299 1.97909 49.0146 2.17232 48.4993 2.17232C43.9908 2.94521 39.3534 4.94186 34.5872 8.16226C29.3058 11.3827 25.0548 15.3115 21.8344 19.9489C18.614 24.4575 17.0038 29.0949 17.0038 33.861V123.324ZM55.4554 2.55876C54.9401 2.55876 54.5537 2.42995 54.296 2.17232C54.0384 1.91469 53.9096 1.72146 53.9096 1.59264C54.8113 1.07738 55.5842 0.819756 56.2283 0.819756C59.1911 0.819756 62.2182 1.07738 65.3098 1.59264C68.5302 2.10791 71.7506 2.94521 74.971 4.10455C81.5406 6.29443 87.595 9.45042 93.1341 13.5725C95.8392 15.5048 98.3511 17.6946 100.67 20.1421C102.988 22.5896 105.05 25.2948 106.853 28.2576C110.202 33.9255 111.877 40.1086 111.877 46.807C111.877 53.8919 110.589 60.2683 108.012 65.9362C105.565 71.4753 102.28 76.3059 98.1579 80.428C94.1646 84.4213 89.7204 87.5129 84.8254 89.7028C80.0592 91.8926 75.6795 92.9876 71.6862 92.9876C70.6557 92.9876 69.9472 92.9232 69.5607 92.7943C69.1743 92.5367 68.9167 92.2791 68.7878 92.0215C69.0455 91.7638 69.3675 91.5706 69.754 91.4418C70.1404 91.313 70.7845 91.2486 71.6862 91.2486C75.1642 91.2486 78.7067 89.4451 82.3135 85.8383C85.9204 82.2314 88.8831 77.0144 91.2018 70.1871C93.6493 63.3599 94.8731 55.5665 94.8731 46.807C94.8731 41.6544 93.9714 36.7594 92.1679 32.122C90.751 27.3558 88.2391 22.6541 84.6322 18.0167C81.1542 13.3793 76.9032 9.64364 71.8794 6.80969C66.9844 3.97574 61.5097 2.55876 55.4554 2.55876ZM64.5369 91.2486C65.0522 91.3774 65.3742 91.5706 65.503 91.8282C65.7607 92.0859 65.9539 92.2791 66.0827 92.4079C65.4386 92.7943 64.9234 92.9876 64.5369 92.9876C59.6419 92.2147 54.296 90.5401 48.4993 87.9637C43.2179 85.2586 38.7093 81.845 34.9737 77.7229C31.3668 73.6008 29.5634 69.0278 29.5634 64.004C29.5634 55.8886 32.7838 49.7698 39.2246 45.6477C45.6654 41.5256 52.8791 39.0137 60.8657 38.112C64.2149 37.5967 68.2082 37.2103 72.8455 36.9526C77.6117 36.695 82.3135 36.5662 86.9509 36.5662C87.7238 36.5662 88.3035 36.6306 88.6899 36.7594C89.0764 36.8882 89.4628 37.0814 89.8493 37.3391C89.5916 37.5967 89.2052 37.8543 88.6899 38.112C88.1746 38.2408 87.595 38.3052 86.9509 38.3052C76.388 38.3052 68.4658 39.0137 63.1844 40.4307C57.5164 41.7188 53.3299 44.2307 50.6248 47.9664C47.9197 51.7021 46.5671 57.0479 46.5671 64.004C46.5671 67.482 47.0824 71.0244 48.1129 74.6313C49.2722 78.2381 51.2689 81.7162 54.1028 85.0654C56.9368 88.0282 60.4148 90.0892 64.5369 91.2486ZM116.321 41.59L126.562 44.1019C127.979 44.6172 129.267 45.068 130.426 45.4545C131.586 45.7121 133.389 46.4206 135.837 47.5799C138.284 48.7393 140.603 50.5427 142.793 52.9902C141.633 53.6343 140.41 54.1496 139.121 54.536C137.833 54.9225 136.287 55.3733 134.484 55.8886C132.809 56.275 131.457 56.6615 130.426 57.0479C129.396 57.3055 128.365 57.7564 127.335 58.4005C123.728 49.641 119.928 44.6172 115.934 43.329C115.548 43.2002 115.162 43.007 114.775 42.7493C114.389 42.3629 114.131 42.1053 114.002 41.9764C114.904 41.7188 115.677 41.59 116.321 41.59Z" fill="#9C1F2A"/>
</svg>
