<svg class = 'aaa' width="117" height="123" viewBox="0 0 117 123" fill="none" xmlns="http://www.w3.org/2000/svg">
<path d="M44.0158 122.98C42.8564 122.98 42.0191 122.915 41.5039 122.787C40.9886 122.658 40.5377 122.4 40.1513 122.014C40.5377 121.756 40.9886 121.563 41.5039 121.434C42.1479 121.305 42.9852 121.241 44.0158 121.241C46.8497 121.241 49.426 119.759 51.7447 116.797C54.1922 113.834 56.0601 110.356 57.3482 106.362C57.8635 104.817 58.3143 102.82 58.7008 100.373C59.0872 97.925 59.2805 95.9284 59.2805 94.3826V0.475761H76.2842V89.9384C76.2842 98.1827 74.3519 104.817 70.4874 109.841C66.623 114.736 62.1788 118.149 57.155 120.081C52.26 122.014 47.8802 122.98 44.0158 122.98ZM78.9893 55.931H88.4573C95.1557 55.931 100.502 56.4463 104.495 57.4768C108.617 58.3785 112.61 60.3108 116.475 63.2735C115.058 64.5617 112.481 65.9787 108.746 67.5245C107.071 68.1685 105.525 68.877 104.108 69.6499C102.82 70.294 102.047 70.6805 101.79 70.8093C98.4405 66.5583 95.0913 63.3379 91.7421 61.1481C88.3929 58.8294 84.1419 57.67 78.9893 57.67C78.6029 57.67 78.2808 57.5412 78.0232 57.2836C77.7655 57.026 77.6367 56.8327 77.6367 56.7039C78.152 56.1887 78.6029 55.931 78.9893 55.931ZM17.9305 94.3826C17.9305 97.603 18.317 101.017 19.0899 104.623C19.9916 108.23 21.7306 111.708 24.3069 115.058C26.8832 118.278 30.4257 120.275 34.9342 121.047C35.9648 121.176 36.6733 121.305 37.0597 121.434C37.575 121.563 37.9614 121.82 38.219 122.207L34.1613 122.4C29.2663 121.885 24.0493 120.017 18.5102 116.797C13.2287 113.447 8.849 109.39 5.37097 104.623C1.89294 99.8573 0.153927 94.9623 0.153927 89.9384C0.153927 83.1112 2.15057 77.1213 6.14387 71.9686C10.266 66.816 15.6118 62.8871 22.1815 60.182C28.2358 57.348 34.6122 55.931 41.3106 55.931H54.8363C55.3516 55.931 55.738 55.9954 55.9956 56.1243C56.2533 56.2531 56.5109 56.4463 56.7685 56.7039C55.8668 57.2192 55.1583 57.4768 54.6431 57.4768C45.3683 57.4768 38.0902 58.4429 32.8088 60.3752C27.6561 62.0498 23.8561 65.6566 21.4086 71.1957C19.0899 76.7348 17.9305 84.4638 17.9305 94.3826Z" fill="#9C1F2A"/>
</svg>
