<svg width="77" height="126" viewBox="0 0 77 126" fill="none" xmlns="http://www.w3.org/2000/svg">
<path d="M0.2266 0.7313H17.5244V125.354H0.2266V0.7313ZM42.8814 37.2925C47.2058 37.2925 51.9234 38.4064 57.0341 40.6342C62.2759 42.8619 66.9935 46.3346 71.1869 51.0522C74.8561 55.6387 76.6907 61.1425 76.6907 67.5637V78.1782H57.6238V62.453C57.6238 54.0662 55.8547 48.3002 52.3166 45.1552C48.9094 42.0101 44.0608 40.4376 37.7707 40.4376C34.1015 40.4376 30.1701 41.617 25.9767 43.9758L23.6179 44.9586L22.8317 44.3689C22.8317 43.5827 23.5524 42.6653 24.9939 41.617C29.9736 38.734 35.9361 37.2925 42.8814 37.2925Z" fill="#9C1F2A"/>
</svg>
