<svg width="80" height="138" viewBox="0 0 80 138" fill="none" xmlns="http://www.w3.org/2000/svg">
<path d="M20.4614 123.585H35.4004C46.5391 123.585 56.0398 123.978 63.9024 124.764C71.8961 125.551 76.9413 127.123 79.038 129.482C77.8586 130.661 75.3033 132.168 71.3719 134.003L64.099 137.541C62.6575 136.1 61.2816 134.855 59.9711 133.806C58.6607 132.758 57.0226 131.71 55.057 130.661C51.9119 129.089 47.5875 127.778 42.0836 126.73C36.7108 125.813 29.5034 125.354 20.4614 125.354C19.6751 125.354 19.2165 125.092 19.0854 124.568C19.7406 123.913 20.1993 123.585 20.4614 123.585ZM17.7095 0.7313V125.354H0.411659V0.7313H17.7095Z" fill="#9C1F2A"/>
</svg>
