<svg width="112" height="127" viewBox="0 0 112 127" fill="none" xmlns="http://www.w3.org/2000/svg">
<path d="M82.08 84.3758C81.2938 84.3758 80.7696 84.3103 80.5075 84.1793C80.3765 84.0482 80.2454 83.9172 80.1144 83.7861C80.6385 83.262 81.0317 82.9999 81.2938 82.9999C82.8663 82.2136 84.5699 80.7721 86.4045 78.6754C88.2391 76.4477 89.8116 73.6302 91.1221 70.2231C92.5635 66.6849 93.2843 62.7536 93.2843 58.4291V54.8909C93.2843 53.5805 93.0877 52.0735 92.6946 50.3699C92.3015 48.5353 91.5152 46.5041 90.3358 44.2764C90.991 43.8833 92.0394 43.4901 93.4809 43.097C94.9223 42.5728 96.6259 42.0486 98.5916 41.5245C102.916 40.4761 105.865 39.4933 107.437 38.576C110.058 43.4246 111.368 48.4043 111.368 53.515C111.368 60.5914 108.289 66.8159 102.13 72.1887C95.9707 77.5615 89.2874 81.6239 82.08 84.3758ZM32.1523 41.5245V53.515C32.1523 62.0328 34.6421 68.8471 39.6218 73.9578C44.6015 78.9375 50.2364 82.4102 56.5265 84.3758C62.9476 86.2104 68.7791 87.1277 74.0208 87.1277C75.2002 87.1277 75.7899 86.7346 75.7899 85.9484C75.1347 85.5552 74.545 85.3587 74.0208 85.3587C68.517 85.3587 63.8649 83.9172 60.0647 81.0342C56.3954 78.0202 53.709 74.4165 52.0055 70.2231C50.3019 65.8986 49.4501 61.8363 49.4501 58.036V38.7725H22.1274V41.5245H32.1523ZM0.308632 126.244V0.638771H17.6064V126.244H0.308632Z" fill="#9C1F2A"/>
</svg>
