<svg width="137" height="135" viewBox="0 0 137 135" fill="none" xmlns="http://www.w3.org/2000/svg">
<path d="M9.27299 78.5034C9.27299 69.5924 11.3697 60.9435 15.5631 52.5567C19.8875 44.0389 26.0466 37.028 34.0403 31.5242C42.034 25.8893 50.8139 23.0719 60.3801 23.0719C61.2974 23.0719 61.9526 23.1374 62.3458 23.2684C62.7389 23.3995 63.132 23.596 63.5252 23.8581C63.3941 23.9892 63.132 24.1857 62.7389 24.4478C62.3458 24.5788 61.5595 24.7099 60.3801 24.8409C54.09 24.8409 48.3241 27.4618 43.0823 32.7036C37.9716 37.9453 33.9092 44.8251 30.8952 53.343C28.0123 61.8608 26.5708 70.2477 26.5708 78.5034C26.5708 90.4284 28.5364 100.453 32.4678 108.578C36.3991 116.703 41.1167 122.796 46.6205 126.859C52.2554 130.921 57.104 132.952 61.1664 132.952C62.0837 133.083 62.7389 133.214 63.132 133.345C63.5252 133.476 63.9183 133.738 64.3114 134.132C64.1804 134.132 64.1149 134.197 64.1149 134.328C63.1976 134.721 62.2147 134.918 61.1664 134.918C54.8763 134.918 48.5206 133.345 42.0995 130.2C35.8094 127.055 30.1745 122.665 25.1948 117.03C20.2152 111.264 16.2838 105.171 13.4009 98.7497C10.6489 92.1975 9.27299 85.4487 9.27299 78.5034ZM69.4221 134.918C68.5048 134.918 67.8496 134.852 67.4565 134.721C67.0634 134.59 66.6702 134.394 66.2771 134.132C66.2771 134.001 66.3426 133.935 66.4737 133.935C67.391 133.411 68.3738 133.083 69.4221 132.952C73.2224 132.952 77.94 130.855 83.5749 126.662C89.3408 122.469 94.1894 116.31 98.1208 108.185C102.052 100.06 104.018 90.1663 104.018 78.5034C104.018 69.0683 102.576 60.2883 99.6933 52.1636C96.9414 44.0389 92.879 37.4867 87.5062 32.507C82.1334 27.3963 76.3675 24.8409 70.2084 24.8409C69.4221 24.7099 68.7669 24.5788 68.2427 24.4478C67.8496 24.3168 67.4565 24.1202 67.0633 23.8581L67.2599 23.6615C68.1772 23.2684 69.1601 23.0719 70.2084 23.0719C74.926 23.0719 79.5125 23.7926 83.968 25.2341C88.5546 26.6756 92.748 28.7067 96.5482 31.3276C104.411 36.8315 110.504 43.8423 114.829 52.3602C119.153 60.747 121.316 69.4614 121.316 78.5034C121.316 85.4487 119.874 92.1975 116.991 98.7497C114.239 105.302 110.373 111.33 105.394 116.834C100.414 122.207 94.7791 126.662 88.489 130.2C82.1989 133.345 75.8433 134.918 69.4221 134.918ZM0.230957 0.270201H20.2807C20.2807 3.28421 21.329 6.03614 23.4257 8.52598C25.3914 11.2779 28.4054 13.4401 32.4678 15.0126C36.268 16.7162 40.9856 17.568 46.6205 17.568H86.7199C101.135 17.568 112.077 18.6163 119.546 20.7131C127.016 22.6787 132.716 24.7754 136.648 27.0032C134.682 28.5757 131.602 30.2137 127.409 31.9173L118.564 35.2589L112.47 30.5414L105.197 25.2341C104.411 24.8409 103.231 24.3823 101.659 23.8581C100.217 23.3339 98.6449 22.8753 96.9414 22.4821C93.5342 21.6959 89.2098 21.3028 83.968 21.3028H48.3896C32.2712 21.3028 20.4117 18.6164 12.8112 13.2436L7.89703 10.2951C5.80032 8.98462 3.96571 7.54314 2.39318 5.97062C0.951699 4.39809 0.230957 2.49795 0.230957 0.270201Z" fill="#9C1F2A"/>
</svg>
