<svg width="80" height="126" viewBox="0 0 80 126" fill="none" xmlns="http://www.w3.org/2000/svg">
<path d="M0.478065 0.647804H17.7759V41.5335C17.7759 48.3478 18.8242 54.1792 20.9209 59.0279C23.1487 63.8765 25.9006 67.4802 29.1767 69.839C32.4528 72.1978 35.9254 73.3772 39.5947 73.3772C44.8364 73.3772 48.4401 73.1806 50.4058 72.7875C52.3715 72.3943 54.8613 71.4115 57.8753 69.839C58.7926 69.839 59.3823 69.97 59.6444 70.2321C60.0375 70.4942 60.2996 70.6908 60.4307 70.8218C59.9065 71.7391 59.2513 72.3943 58.465 72.7875C57.6787 73.1806 56.1717 73.8358 53.944 74.7531C51.7162 75.6704 50.1437 76.1946 49.2264 76.3257C47.5228 76.8498 44.3123 77.1119 39.5947 77.1119C29.3732 77.1119 21.6417 73.9013 16.3999 67.4802L9.5201 59.6176C7.03026 56.7346 4.86804 53.1964 3.03342 49.003C1.32985 44.8096 0.478065 39.8955 0.478065 34.2606V0.647804ZM62.3963 42.5163H79.6941V125.271H62.3963V42.5163Z" fill="#9C1F2A"/>
</svg>
