<svg width="116" height="134" viewBox="0 0 116 134" fill="none" xmlns="http://www.w3.org/2000/svg">
<path d="M91.8847 0.486895V7.07528C91.8847 12.2911 91.5415 16.2716 90.8552 19.0168C90.1689 21.6247 88.7963 23.6149 86.7375 24.9875C73.4234 32.5367 51.5994 44.4782 21.2653 60.8119L45.56 74.4005L82.4138 94.9892L110.826 110.637C113.983 112.284 115.562 115.921 115.562 121.549V131.019C115.562 132.118 115.424 132.804 115.15 133.078C115.013 133.49 114.875 133.765 114.738 133.902C114.464 133.627 114.326 133.422 114.326 133.284C113.915 132.461 113.709 131.706 113.709 131.019C113.709 129.372 112.542 127.588 110.209 125.666L100.326 119.49L77.8843 107.342L52.5602 94.1656L26.0007 79.9594L0.676539 66.165L20.03 56.0765L38.3539 45.7821L56.0602 35.8995L70.0606 28.2817C73.3548 26.6346 75.0019 23.2031 75.0019 17.9873L74.796 13.4578L74.5901 9.13416L91.8847 0.486895Z" fill="#9C1F2A"/>
</svg>
