<svg width="118" height="136" viewBox="0 0 118 136" fill="none" xmlns="http://www.w3.org/2000/svg">
<path d="M2.24576 66.7808C0.873176 62.6631 0.186884 58.1336 0.186884 53.1923C0.186884 44.2705 2.93205 35.6918 8.42238 27.4563C11.0303 23.4759 14.1186 19.8385 17.6873 16.5443C21.3933 13.2501 25.4424 10.3677 29.8347 7.89705C38.6192 3.09301 47.3351 0.690996 55.9824 0.690996C56.9432 0.690996 57.6295 0.759624 58.0412 0.896881C58.453 1.03414 58.8648 1.24002 59.2766 1.51454C59.1393 1.6518 58.8648 1.85769 58.453 2.1322C58.0412 2.26946 57.2177 2.40671 55.9824 2.54397C49.5312 2.54397 43.4919 5.08325 37.8643 10.1618C32.2367 15.2404 27.7758 21.5542 24.4816 29.1035C22.6972 32.9467 21.3247 36.8585 20.3638 40.839C19.403 44.6823 18.7167 48.8 18.305 53.1923L19.5403 63.0749C17.4814 63.7612 14.4617 64.4475 10.4813 65.1337L2.24576 66.7808ZM113.013 128.135C107.523 131.018 102.238 133.351 97.1598 135.135C92.4931 128.135 86.7282 121.547 79.8653 115.37C74.924 119.351 68.5415 122.988 60.7178 126.282C53.0313 129.576 45.8939 131.224 39.3055 131.224L28.5993 129.371C26.6777 129.096 24.6875 128.616 22.6286 127.929C20.5697 127.243 17.6873 126.008 13.9813 124.223C9.1773 121.753 6.77528 118.459 6.77528 114.341C6.77528 108.439 10.344 104.321 17.4814 101.988C24.7561 99.5169 31.619 98.2816 38.0702 98.2816C42.0507 98.2816 44.0409 98.6934 44.0409 99.5169C44.0409 100.478 42.0507 100.958 38.0702 100.958C34.2269 100.958 31.07 101.988 28.5993 104.046C26.266 106.38 25.0993 109.537 25.0993 113.517C25.0993 117.635 26.8836 121.066 30.4523 123.812C34.4328 126.42 39.3741 127.724 45.2762 127.724C49.8057 127.724 55.2961 125.939 61.7472 122.37C68.3356 118.664 72.7279 115.508 74.924 112.9C73.8259 111.39 71.218 109.468 67.1003 107.135C65.7277 106.311 63.8747 105.419 61.5413 104.458C59.3452 103.497 57.4922 102.88 55.9824 102.605C54.6098 102.193 53.649 101.85 53.0999 101.576C52.6882 101.301 52.2764 100.958 51.8646 100.546C52.5509 100.135 53.1686 99.9287 53.7176 99.9287L57.6295 100.34C65.7277 101.85 73.2769 104.939 80.2771 109.605C86.4537 103.841 91.1891 96.0855 94.4833 86.3401C97.7775 76.4575 99.4246 65.6141 99.4246 53.8099C99.4246 39.8096 96.8853 27.9368 91.8068 18.1914C89.1989 13.1129 85.836 9.26963 81.7183 6.66173C77.6005 3.91656 72.5906 2.54397 66.6885 2.54397C65.5904 2.54397 64.7669 2.47534 64.2179 2.33809C63.8061 2.20083 63.3943 1.92631 62.9825 1.51454C63.2571 1.24002 63.6688 1.03414 64.2179 0.896881C64.7669 0.759624 65.5904 0.690996 66.6885 0.690996C73.0024 0.690996 80.2084 2.61261 88.3067 6.45584C96.4049 10.1618 103.268 15.9953 108.895 23.9563C114.66 31.9172 117.543 41.8685 117.543 53.8099C117.543 63.6925 114.798 73.5065 109.307 83.2518C103.954 92.9972 96.0618 102.262 85.6301 111.047C88.1008 112.419 91.8068 114.684 96.7481 117.841C101.689 120.998 107.111 124.429 113.013 128.135Z" fill="#9C1F2A"/>
</svg>
