<svg width="125" height="146" viewBox="0 0 125 146" fill="none" xmlns="http://www.w3.org/2000/svg">
<path d="M31.5645 1.26544C31.9763 1.26544 32.3195 1.33407 32.594 1.47132C33.0058 1.47132 33.3489 1.53995 33.6234 1.67722C33.0744 2.22625 32.3881 2.70665 31.5645 3.11842C30.741 3.39295 29.2998 4.90279 27.2409 7.64795C26.2801 9.02053 25.3193 10.5304 24.3585 12.1775C23.9467 13.001 23.1232 14.854 21.8878 17.7364C20.5153 22.266 19.829 26.521 19.829 30.5014C19.829 33.9329 19.9662 36.4722 20.2407 38.1193C20.6525 39.6291 20.9957 40.7958 21.2702 41.6194C21.5447 42.4429 22.1624 43.7469 23.1232 45.5312C21.7506 46.2175 18.8682 47.1097 14.4759 48.2078C13.1033 48.6195 11.5248 49.1686 9.74048 49.8549C7.95612 50.4039 6.44628 50.9529 5.21096 51.502C2.32854 46.1489 0.887324 40.9331 0.887324 35.8545C0.887324 30.6387 2.46579 25.4915 5.62273 20.413C8.77967 15.3344 12.8288 11.0108 17.7701 7.44207C22.7114 4.14786 27.3095 2.08898 31.5645 1.26544ZM82.007 35.8545V131.18H63.8889V31.1191C63.8889 26.5896 62.9967 22.1973 61.2123 17.9423C59.428 13.5501 56.5455 9.91271 52.5651 7.03028C48.7218 4.0106 43.9178 2.50076 38.1529 2.50076C37.3294 2.50076 36.7804 2.43213 36.5058 2.29487C36.3686 2.15762 36.3 2.02036 36.3 1.8831C36.3 1.05956 36.9176 0.647783 38.1529 0.647783C43.6433 0.647783 49.7513 1.67722 56.4769 3.73609C63.3398 5.79496 69.3106 9.4323 74.3891 14.6481C79.4677 19.8639 82.007 26.9327 82.007 35.8545ZM86.3306 129.327H96.2132C102.664 129.327 107.949 129.808 112.067 130.769C116.184 131.867 120.302 133.994 124.42 137.151C122.91 138.386 120.439 139.896 117.008 141.681L110.831 145.181C108.91 142.71 107.057 140.651 105.272 139.004C103.488 137.357 101.635 135.916 99.7133 134.68C96.1446 132.347 91.6837 131.18 86.3306 131.18C85.507 131.18 85.0266 130.906 84.8894 130.357C85.5757 129.671 86.0561 129.327 86.3306 129.327Z" fill="#9C1F2A"/>
</svg>
