<svg width="118" height="127" viewBox="0 0 118 127" fill="none" xmlns="http://www.w3.org/2000/svg">
<path d="M77.2674 9.1157L90.6371 0.590107L93.9311 4.27161C94.8353 5.04667 95.4812 6.08007 95.8687 7.37183L96.6438 12.6034C96.6438 17.8997 94.3832 22.9375 89.862 27.717C85.3409 32.3673 77.9133 38.6324 67.5792 46.5121C60.2162 52.0666 55.0492 56.394 52.0781 59.4943C49.1071 62.5945 46.2006 66.5343 43.3588 71.3138C40.6461 76.0933 38.7084 79.9686 37.5458 82.9397C36.5124 85.9107 35.6728 90.4964 35.0269 96.6969C35.0269 98.1178 34.8977 101.799 34.6394 107.741C34.381 113.683 34.2519 118.915 34.2519 123.436H15.263L14.488 114.136C14.488 111.035 14.7463 108.258 15.263 105.804C15.263 104.254 15.3276 103.091 15.4568 102.316C15.586 101.541 16.1027 99.5387 17.0069 96.3093L19.1383 87.9775C21.0759 80.227 31.9913 68.9887 51.8844 54.2626C69.7106 41.0867 79.3988 31.5277 80.9489 25.5856C81.4656 23.648 81.724 21.7103 81.724 19.7727L81.1427 16.285L79.205 12.4097L77.2674 9.1157ZM0.149456 56.394C9.06258 53.2938 24.2407 51.7437 45.6839 51.7437C50.2051 51.7437 52.4656 52.1958 52.4656 53.1001C52.4656 54.0043 50.2697 54.4564 45.8777 54.4564C43.0358 54.4564 39.1605 55.1669 34.2519 56.5878C29.3432 57.8796 24.8866 59.4943 20.8822 61.4319C17.0069 63.3695 14.6817 65.3072 13.9067 67.2448L6.54366 61.4319L0.149456 56.394ZM64.0915 56.7816C61.7663 56.1357 60.6037 55.3606 60.6037 54.4564C61.1204 54.0689 61.5725 53.8751 61.9601 53.8751L64.8665 54.2626C67.1917 54.6502 71.2607 56.1357 77.0736 58.7192C82.8865 61.1735 88.8286 64.3383 94.8999 68.2136C101.1 72.0889 106.397 76.7392 110.789 82.1646C115.31 87.59 117.57 93.4675 117.57 99.7971C117.57 105.093 115.568 109.808 111.564 113.942C107.688 118.075 102.844 121.111 97.0313 123.049C91.3475 125.116 85.5992 126.149 79.7863 126.149L69.9044 125.568C68.871 125.438 67.9667 125.309 67.1917 125.18C66.4166 125.18 65.5124 124.986 64.479 124.599L62.3476 124.018C61.4434 124.018 60.4745 123.759 59.4411 123.242C58.5369 122.855 57.9556 122.532 57.6973 122.274C57.4389 122.144 57.3097 122.015 57.3097 121.886C57.8264 121.628 58.2786 121.499 58.6661 121.499L62.7351 121.886C67.3854 122.79 71.5837 123.242 75.3298 123.242C90.3141 123.242 97.8063 114.717 97.8063 97.6657C97.8063 88.4942 95.5458 81.002 91.0246 75.1891C86.5035 69.247 81.5302 64.7259 76.1048 61.6257C73.3921 60.3339 71.067 59.3005 69.1293 58.5254C67.1917 57.6212 65.5124 57.0399 64.0915 56.7816Z" fill="#9C1F2A"/>
</svg>
