<svg width="121" height="133" viewBox="0 0 121 133" fill="none" xmlns="http://www.w3.org/2000/svg">
<path d="M0.426875 90.7837V0.605059H18.545V95.5191C18.545 101.147 19.0254 105.882 19.9862 109.725C20.8097 113.98 22.4568 117.892 24.9275 121.461C27.5354 125.03 30.9668 127.981 35.2218 130.314C35.9081 130.726 36.2513 131 36.2513 131.138C36.3885 131.412 36.5258 131.618 36.6631 131.755C35.7022 132.03 34.8787 132.167 34.1924 132.167L26.5746 129.285C22.5941 127.638 18.6822 125.441 14.839 122.696C11.133 119.814 7.70156 115.627 4.54462 110.137C1.79946 104.647 0.426875 98.1957 0.426875 90.7837ZM77.4288 90.7837C77.4288 98.3329 75.9875 104.784 73.1051 110.137C70.4972 115.49 67.203 119.677 63.2225 122.696C59.3793 125.579 56.1537 127.5 53.5458 128.461L43.6632 132.167C42.8397 132.167 42.222 132.098 41.8102 131.961C41.5357 131.824 41.5357 131.549 41.8102 131.138C42.222 130.863 42.5652 130.589 42.8397 130.314C49.2908 126.608 53.6145 121.941 55.8106 116.314C57.0459 113.569 57.9381 110.549 58.4871 107.255C59.0361 103.823 59.3107 99.9114 59.3107 95.5191V0.605059H77.4288V90.7837ZM83.1936 0.605059H92.8703C99.3215 0.605059 104.4 1.08546 108.106 2.04626C111.812 2.86981 115.998 4.99732 120.665 8.42878C118.743 9.93861 115.93 11.4485 112.224 12.9583C108.518 14.3309 106.116 15.4976 105.018 16.4584L99.4587 9.6641L95.9586 6.16401C94.3115 4.92868 92.4585 4.03651 90.3997 3.48748C88.478 2.80118 86.076 2.45803 83.1936 2.45803C82.6446 2.45803 82.2328 2.32078 81.9583 2.04626C81.821 1.77175 81.7524 1.56586 81.7524 1.4286C82.3014 0.879572 82.7818 0.605059 83.1936 0.605059Z" fill="#9C1F2A"/>
</svg>
