<svg width="129" height="129" viewBox="0 0 129 129" fill="none" xmlns="http://www.w3.org/2000/svg">
<path d="M5.93781 26.8196C8.35493 20.9111 12.5178 16.0768 18.4263 12.3169C24.3348 8.42262 31.1833 5.5355 38.9718 3.65552C46.7603 1.64125 53.8774 0.634117 60.3231 0.634117C61.263 0.634117 62.0016 0.701259 62.5388 0.835541C63.0759 0.969824 63.4787 1.17125 63.7473 1.43981C63.3445 1.70839 62.8745 1.90982 62.3373 2.0441C61.9345 2.17838 61.263 2.31266 60.3231 2.44695C52.266 2.44695 44.8132 5.40121 37.9647 11.3097C31.1162 17.2183 26.3491 24.9396 23.6634 34.4738L15.4049 30.8481C11.2421 29.5053 8.08636 28.1624 5.93781 26.8196ZM95.5728 59.4507C97.4527 59.4507 99.5341 59.7193 101.817 60.2565C104.234 60.7936 106.651 61.6664 109.068 62.875C114.44 65.1578 118.938 68.9178 122.564 74.1549C126.324 79.392 128.204 85.9048 128.204 93.6933C128.204 99.3333 126.391 104.369 122.765 108.8C119.14 113.232 114.373 116.925 108.464 119.879C106.316 121.087 103.697 122.296 100.608 123.504C97.6542 124.579 94.8342 125.452 92.1485 126.123C89.4628 126.794 86.7771 127.332 84.0914 127.734C81.4057 128.137 79.19 128.339 77.4443 128.339C76.5043 128.339 75.7658 128.272 75.2286 128.137C74.6915 128.003 74.2215 127.802 73.8187 127.533C74.2215 127.13 74.6915 126.862 75.2286 126.727C75.9001 126.593 76.6386 126.526 77.4443 126.526C80.13 126.526 82.8157 126.123 85.5014 125.317C88.3214 124.377 90.9399 123.102 93.3571 121.49C98.057 118.402 101.616 114.507 104.033 109.807C106.584 104.973 107.86 99.6018 107.86 93.6933C107.86 71.8049 98.1242 60.8607 78.6529 60.8607H25.2748V58.0408H78.6529C83.6214 58.0408 87.9185 56.7651 91.5442 54.2136C95.1699 51.6622 97.9899 48.3051 100.004 44.1423C101.75 39.7109 102.623 35.481 102.623 31.4524C102.623 22.7239 99.467 15.8754 93.1556 10.9069C90.0671 8.35547 86.4414 6.3412 82.2786 4.86407C78.1158 3.25266 73.6844 2.44695 68.9844 2.44695C67.9101 2.44695 67.1044 2.37981 66.5673 2.24552C66.1644 2.11124 65.7616 1.84267 65.3587 1.43981C65.6273 1.17125 66.0302 0.969824 66.5673 0.835541C67.1044 0.701259 67.9101 0.634117 68.9844 0.634117C73.4158 0.634117 78.25 1.10411 83.4871 2.0441C88.7242 2.98409 94.1628 4.59551 99.8027 6.87834C105.577 9.16118 110.411 12.384 114.305 16.5468C116.185 18.6954 117.595 20.9782 118.535 23.3953C119.475 25.8125 119.945 28.4982 119.945 31.4524C119.945 36.6895 118.267 41.3895 114.91 45.5523C111.687 49.7151 108.061 53.0722 104.033 55.6236C100.004 58.175 97.1842 59.4507 95.5728 59.4507ZM5.93781 99.5347C6.8778 98.8633 7.95208 98.259 9.16064 97.7218C10.5035 97.1847 12.5849 96.379 15.4049 95.3047L23.6634 91.8805C28.9005 101.415 35.8161 109.539 44.4103 116.253C48.4389 119.342 52.6688 121.826 57.1002 123.706C61.5316 125.586 65.6273 126.526 69.3873 126.526C70.193 126.66 70.7973 126.794 71.2001 126.929C71.7372 127.063 72.2072 127.264 72.6101 127.533C72.4758 127.533 72.4087 127.6 72.4087 127.734C71.4687 128.137 70.4615 128.339 69.3873 128.339C62.8073 128.339 55.1531 127.13 46.4246 124.713C42.3961 123.504 38.3675 122.027 34.339 120.282C30.3105 118.536 26.3491 116.589 22.4548 114.44C14.9349 110.009 9.42921 105.04 5.93781 99.5347ZM0.297861 71.7378L4.12497 49.9837H21.2463L17.4191 71.7378H0.297861Z" fill="#9C1F2A"/>
</svg>
