<svg width="109" height="129" viewBox="0 0 109 129" fill="none" xmlns="http://www.w3.org/2000/svg">
<path d="M32.9429 95.9073V27.0193H50.0642V100.339C50.0642 107.321 51.5413 113.499 54.4955 118.87C57.5841 124.241 62.8212 126.927 70.2068 126.927C71.0126 126.927 71.5497 126.994 71.8183 127.128C71.8183 127.263 71.8854 127.397 72.0197 127.531C71.3483 128.203 70.744 128.538 70.2068 128.538C61.6126 128.538 53.2198 126.054 45.0285 121.086C36.9714 115.983 32.9429 107.59 32.9429 95.9073ZM29.9215 0.833824C34.0843 0.833824 36.1657 1.16954 36.1657 1.84096C36.1657 2.91523 34.0843 3.45236 29.9215 3.45236C27.1015 3.45236 24.8858 4.4595 23.2744 6.47377C21.663 8.48804 20.8573 11.4423 20.8573 15.3365C20.8573 18.2908 21.663 20.7751 23.2744 22.7893C24.8858 24.8036 26.2958 25.8107 27.5044 25.8107C29.9215 25.8107 31.13 26.2136 31.13 27.0193C31.13 27.9593 29.9215 28.4293 27.5044 28.4293C22.133 28.4293 16.3587 27.1536 10.1817 24.6022C4.00456 21.9165 0.916016 18.8279 0.916016 15.3365C0.916016 10.5023 4.0717 6.87662 10.3831 4.4595C16.6945 2.04238 23.2073 0.833824 29.9215 0.833824ZM88.1338 95.1016C89.4767 94.1616 92.0281 93.0202 95.7881 91.6773C97.1309 91.1402 98.8095 90.4016 100.824 89.4616C102.838 88.5216 104.047 87.9174 104.449 87.6488C104.584 88.0516 105.188 89.3273 106.262 91.4759C107.337 93.6244 107.941 95.1687 108.075 96.1087C108.478 97.3173 108.679 99.6001 108.679 102.957C108.679 108.329 106.665 112.961 102.637 116.856C98.7423 120.75 94.3109 123.704 89.3424 125.718C84.5081 127.598 81.0839 128.538 79.0696 128.538C76.7868 128.538 75.5782 128.27 75.4439 127.733C75.7125 127.464 76.1154 127.263 76.6525 127.128C77.1896 126.994 77.9953 126.927 79.0696 126.927C81.2182 126.39 83.9039 124.107 87.1267 120.079C90.081 116.05 91.5581 111.686 91.5581 106.986C91.5581 102.823 90.4167 98.8615 88.1338 95.1016Z" fill="#9C1F2A"/>
</svg>
