<svg width="130" height="141" viewBox="0 0 130 141" fill="none" xmlns="http://www.w3.org/2000/svg">
<path d="M5.43214 82.087C5.43214 71.6128 8.18497 62.8843 13.6906 55.9015C19.3306 48.9187 26.0448 43.7488 33.8333 40.3916C41.7561 37.0345 49.2089 34.8188 56.1917 33.7446C59.2802 33.2074 62.5031 32.7374 65.8602 32.3346C69.3516 31.9317 72.373 31.7303 74.9244 31.7303C79.0872 31.7303 81.84 31.7974 83.1829 31.9317C84.5257 32.066 85.5329 32.2674 86.2043 32.536C85.2643 32.8046 83.9886 33.0731 82.3772 33.3417C80.7658 33.6103 78.2815 33.7446 74.9244 33.7446C67.4045 33.7446 60.5559 34.9531 54.3789 37.3702C48.3361 39.6531 42.9647 42.8759 38.2647 47.0387C29.5362 55.0958 25.172 66.6443 25.172 81.6841C25.172 89.6069 26.2462 96.6569 28.3948 102.834C30.6776 108.877 33.6319 113.778 37.2576 117.538C41.0175 121.298 45.0461 124.185 49.3432 126.199C53.9089 127.945 57.9374 128.818 61.4288 128.818L72.5073 129.221C73.9844 129.355 74.9915 129.489 75.5287 129.624C76.0658 129.758 76.603 129.959 77.1401 130.228C76.603 130.362 75.7301 130.497 74.5215 130.631C73.4473 130.765 72.373 130.832 71.2987 130.832L61.4288 130.631C48.6718 130.631 37.9961 127.677 29.4019 121.768C24.9705 118.68 21.2777 115.591 18.3235 112.502C15.5035 109.28 13.0864 105.654 11.0721 101.625C7.31212 93.8369 5.43214 87.3241 5.43214 82.087ZM0.195041 7.55907L17.1149 0.10628C20.6063 9.64048 28.5291 16.2204 40.8833 19.8461C46.7918 21.5918 53.1032 23.0689 59.8174 24.2775C66.6659 25.4861 73.1787 26.0903 79.3558 26.0903C80.9672 26.0903 82.5786 26.2246 84.19 26.4932C85.9357 26.7618 87.6814 27.0975 89.4271 27.5003C91.1728 27.9032 92.5157 28.2389 93.4557 28.5075C95.2014 29.3132 96.4771 29.8503 97.2828 30.1189L102.721 32.9388L107.757 36.1617C111.517 38.5788 115.814 42.0702 120.648 46.6359C125.483 51.2015 128.235 54.3572 128.907 56.1029L118.231 58.5201L108.16 60.1315L106.146 52.6787C105.877 51.4701 105.608 50.3958 105.34 49.4558C105.071 48.3816 104.601 47.0387 103.93 45.4273C102.856 42.8759 101.446 40.5259 99.6999 38.3774C97.9542 36.2288 95.5371 34.1474 92.4485 32.1331C89.36 29.9846 85.5329 28.4403 80.9672 27.5003C78.1472 27.0975 75.7301 26.8289 73.7158 26.6946C71.7016 26.5603 68.4787 26.4932 64.0473 26.4932C60.1531 26.4932 57.1988 26.426 55.1846 26.2918C53.1703 26.1575 51.156 25.8889 49.1418 25.4861L23.762 20.0475C19.4649 18.839 15.7049 17.429 12.4821 15.8176C9.39353 14.0719 5.29785 11.319 0.195041 7.55907ZM129.108 134.659C128.437 134.928 127.161 135.398 125.281 136.069C123.401 136.875 121.521 137.547 119.641 138.084L110.577 140.299C104.534 133.854 99.6327 130.631 95.8728 130.631C91.3071 130.631 88.2857 130.564 86.8086 130.429C85.4657 130.161 84.3915 129.825 83.5857 129.422C84.7943 129.288 86.6071 129.154 89.0243 129.019C91.5757 128.885 93.8585 128.818 95.8728 128.818H100.707C114.941 128.818 124.408 130.765 129.108 134.659Z" fill="#9C1F2A"/>
</svg>
