<svg width="73" height="125" viewBox="0 0 73 125" fill="none" xmlns="http://www.w3.org/2000/svg">
<path d="M18.0073 127.766H0.281748V36.7215C0.281748 30.1416 1.62459 24.1659 4.31028 18.7945C7.26454 13.5574 11.1588 9.39462 15.993 6.30607C20.4244 3.21753 25.863 1.13612 32.3086 0.0618515C32.7115 0.0618515 33.1143 0.128993 33.5172 0.263276C33.5172 0.397559 33.5843 0.4647 33.7186 0.4647L32.7115 1.27041C27.6087 3.55324 23.8487 7.17892 21.4316 12.1475C19.1487 17.116 18.0073 23.7631 18.0073 32.0887V127.766ZM54.4656 127.766V32.0887C54.4656 23.8974 52.9213 17.116 49.8327 11.7446C46.7442 6.37322 42.5814 2.88182 37.3443 1.27041L36.3371 0.666124C37.0086 0.263276 37.4786 0.0618515 37.7471 0.0618515C49.5642 2.2104 58.2255 6.37322 63.7312 12.5503C69.3712 18.5931 72.1911 26.6502 72.1911 36.7215V127.766H54.4656Z" fill="#9C1F2A"/>
</svg>
