<svg width="207" height="250" viewBox="0 0 207 220" fill="none" xmlns="http://www.w3.org/2000/svg">
<path d="M38.2269 170.816H20.9941V82.3025C20.9941 75.9055 22.2996 70.0959 24.9106 64.8739C27.7828 59.7824 31.5688 55.7353 36.2686 52.7326C40.5768 49.73 45.8641 47.7064 52.1306 46.662C52.5222 46.662 52.9139 46.7273 53.3055 46.8578C53.3055 46.9884 53.3708 47.0537 53.5014 47.0537L52.5222 47.837C47.5613 50.0563 43.9058 53.5812 41.5559 58.4116C39.3366 63.242 38.2269 69.7043 38.2269 77.7985V170.816ZM73.6715 170.816V77.7985C73.6715 69.8348 72.1702 63.242 69.1675 58.02C66.1648 52.7979 62.1177 49.4036 57.0262 47.837L56.0471 47.2495C56.6999 46.8578 57.1568 46.662 57.4179 46.662C68.9064 48.7508 77.3269 52.7979 82.6795 58.8033C88.1627 64.6781 90.9043 72.5111 90.9043 82.3025V170.816H73.6715ZM108.963 46.662H126.196V170.816H108.963V46.662ZM151.458 83.0858C155.766 83.0858 160.466 84.1955 165.557 86.4148C170.779 88.6342 175.479 92.0938 179.657 96.7936C183.312 101.363 185.14 106.846 185.14 113.243V123.818H166.145V108.152C166.145 99.7963 164.382 94.0521 160.857 90.9188C157.463 87.7856 152.633 86.219 146.366 86.219C142.711 86.219 138.794 87.394 134.616 89.7439L132.267 90.723L131.483 90.1355C131.483 89.3522 132.201 88.4384 133.637 87.394C138.598 84.5218 144.538 83.0858 151.458 83.0858Z" fill="#9C1F2A"/>
</svg>
