<svg width="117" height="129" viewBox="0 0 117 129" fill="none" xmlns="http://www.w3.org/2000/svg">
<path d="M2.33947 66.7358C0.996627 62.573 0.325205 58.0744 0.325205 53.2402C0.325205 44.646 3.0109 36.2532 8.38228 28.0619C13.7537 19.8705 20.7365 13.2906 29.3307 8.32203C37.9249 3.21921 46.4519 0.667809 54.9119 0.667809C55.8519 0.667809 56.5233 0.73495 56.9261 0.869233C57.329 1.00352 57.7318 1.20494 58.1347 1.47351C58.0004 1.6078 57.7319 1.80922 57.329 2.07779C56.9261 2.21207 56.1204 2.34636 54.9119 2.48064C48.6005 2.48064 42.5577 5.03205 36.7835 10.1349C31.1435 15.2377 26.5778 21.8176 23.0864 29.8747C19.7293 37.9318 18.0508 45.7203 18.0508 53.2402C18.0508 55.6573 18.4536 58.8802 19.2593 62.9087L10.3965 65.1244L2.33947 66.7358ZM64.1775 108.834C71.2946 104 77.0688 99.7027 81.5002 95.9427C85.9316 92.0484 89.9601 86.4756 93.5858 79.2243C97.3458 71.9729 99.2258 63.3115 99.2258 53.2402C99.2258 39.946 96.4729 28.3304 90.9673 18.3934C88.1473 13.2905 84.5888 9.3963 80.2917 6.71061C75.9945 3.89063 71.026 2.48064 65.3861 2.48064C64.3118 2.48064 63.5061 2.4135 62.9689 2.27921C62.5661 2.14493 62.1632 1.87636 61.7604 1.47351C62.029 1.20494 62.4318 1.00352 62.9689 0.869233C63.5061 0.73495 64.3118 0.667809 65.3861 0.667809C70.2203 0.667809 75.3231 1.80922 80.6945 4.09206C83.5145 5.03205 86.2673 6.30775 88.953 7.91916C91.773 9.53058 94.7272 11.5449 97.8158 13.962C103.59 18.5276 108.223 24.1005 111.714 30.6804C115.206 37.2603 116.951 44.7803 116.951 53.2402C116.951 60.3573 115.206 67.0044 111.714 73.1815C108.357 79.3585 104.127 84.7299 99.0243 89.2956C93.9215 93.8613 88.2144 97.8898 81.9031 101.381C75.5917 104.738 69.6832 107.223 64.1775 108.834ZM59.5447 128.372L15.2308 93.3241H36.7835L80.8959 128.372H59.5447Z" fill="#9C1F2A"/>
</svg>
