<svg width="118" height="127" viewBox="0 0 118 127" fill="none" xmlns="http://www.w3.org/2000/svg">
<path d="M33.2129 3.70074C35.1998 3.1709 36.4582 2.90598 36.988 2.90598C37.6503 2.77351 38.6438 2.70728 39.9684 2.70728C40.3658 2.70728 40.697 2.77351 40.9619 2.90598C40.9619 3.03844 41.0281 3.10467 41.1606 3.10467C41.1606 3.76698 38.71 5.09159 33.8089 7.07852C29.8351 8.40313 26.4573 11.9796 23.6756 17.8079C20.8939 23.6362 19.5031 29.1996 19.5031 34.4981C19.5031 39.6641 19.8342 43.9029 20.4965 47.2144C21.1589 50.526 22.7484 53.8375 25.2652 57.149C27.6495 59.9307 31.0273 62.5137 35.3985 64.8981L38.7763 66.4876L38.1802 66.6863L34.6037 66.2889C29.4377 65.7591 24.073 64.0371 18.5096 61.1229C15.7279 59.5334 13.2774 57.8776 11.158 56.1556C9.03861 54.4336 7.05169 52.3142 5.19722 49.7974C1.75322 45.1613 0.0312155 39.9953 0.0312155 34.2994C0.0312155 31.3852 1.35583 27.6763 4.00507 23.1726C6.78676 18.9338 10.6944 15.0262 15.7279 11.4498C20.7615 7.74083 26.5898 5.15782 33.2129 3.70074ZM100.371 126.095V41.2536C100.371 34.1007 98.5165 27.8088 94.8076 22.3778C91.0986 16.8145 86.7936 12.5095 81.8926 9.46283C79.7732 8.00575 77.5213 6.68113 75.137 5.48897C72.7527 4.16436 70.5008 3.1709 68.3815 2.50859L67.5867 1.71382C68.1165 1.4489 68.5801 1.31644 68.9775 1.31644C77.0577 2.90597 84.8729 5.68767 92.4233 9.66152C99.9736 13.5029 106.067 18.6027 110.703 24.9609C115.472 31.1866 117.856 38.207 117.856 46.0223V126.095H100.371ZM62.6194 73.8392L54.0756 71.6536C50.1017 70.8588 47.1214 70.0641 45.1344 69.2693V1.71382C45.1344 0.654129 48.0486 0.124285 53.8769 0.124285C59.7052 0.124285 62.6194 0.521669 62.6194 1.31644V73.8392Z" fill="#9C1F2A"/>
</svg>
