<svg width="128" height="131" viewBox="0 0 128 131" fill="none" xmlns="http://www.w3.org/2000/svg">
<path d="M0.67477 99.3639H18.1597V124.995H0.67477V99.3639ZM63.859 2.40195C60.415 4.12396 57.5671 5.91219 55.3152 7.76665L48.7584 13.1314L43.5924 18.0987C36.8368 24.3244 33.459 29.954 33.459 34.9875C33.459 37.7692 34.8499 41.2795 37.6316 45.5182L46.5728 57.8372C49.8843 62.4733 52.5998 67.6393 54.7191 73.3352C56.971 79.0311 58.0969 85.5217 58.0969 92.8071L57.6995 99.96C67.7666 90.0254 74.9858 81.2829 79.357 73.7326C83.8607 66.0498 86.1126 58.6982 86.1126 51.6777C86.1126 46.3792 85.0529 41.0145 82.9335 35.5836C80.9466 30.0202 77.635 22.5361 72.9989 13.1314C71.6742 10.0847 69.8198 6.50827 67.4355 2.40195L67.0381 1.40849L66.8394 0.415029L67.2368 0.0176489L68.6276 0.613719C75.3832 5.77973 81.2777 11.3431 86.3113 17.3039C97.9679 30.5501 103.796 42.4716 103.796 53.0686C103.796 58.8969 102.074 64.7914 98.6302 70.7522C95.1862 76.5805 89.7553 82.8062 82.3374 89.4293C78.7609 92.3435 74.3897 95.655 69.2237 99.3639C64.1902 103.073 59.0904 106.451 53.9244 109.497L62.8655 110.093L73.1976 111.087C88.6956 112.809 100.485 114.398 108.565 115.855C116.777 117.312 123.069 119.763 127.441 123.207L118.698 126.783C114.724 127.843 111.744 128.969 109.757 130.161C107.638 128.439 104.525 126.585 100.418 124.598C96.3121 122.611 91.3448 120.69 85.5165 118.836C73.5949 114.862 55.9775 112.875 32.6643 112.875H24.9153C40.5457 108.371 48.361 102.212 48.361 94.3966C48.361 90.9526 47.1688 87.3099 44.7845 83.4685C42.4002 80.0245 38.625 75.1234 33.459 68.7653C28.4255 62.2746 24.6503 56.7113 22.1336 52.0751C19.6168 47.4389 18.3584 42.9352 18.3584 38.564C18.3584 25.5827 30.9423 13.9261 56.11 3.5941L63.0642 0.613719L64.0577 0.415029L65.2499 0.216339L66.0446 0.613719L63.859 2.40195Z" fill="#9C1F2A"/>
</svg>
