<svg width="103" height="119" viewBox="0 0 103 119" fill="none" xmlns="http://www.w3.org/2000/svg">
<path d="M69.6224 79.685C89.3189 79.685 100.351 81.8042 102.72 86.0427C101.723 86.7907 99.2295 87.975 95.2403 89.5956C91.2512 91.0915 88.7579 92.2758 87.7606 93.1485L82.7118 88.0997C81.9639 87.3517 81.0912 86.6037 80.094 85.8558C79.2213 85.1078 78.0994 84.2975 76.7281 83.4248C74.2349 81.9289 71.7416 81.1809 69.2484 81.1809C68.1264 81.1809 67.4408 81.1809 67.1915 81.1809C66.9421 81.0563 66.7552 80.8693 66.6305 80.62C66.8798 80.3706 67.0668 80.246 67.1915 80.246C68.0641 79.872 68.8744 79.685 69.6224 79.685ZM16.8905 118.766H0.435151V34.2458C0.435151 24.5222 2.67906 16.7932 7.16688 11.0588C11.6547 5.19966 18.1371 1.58447 26.6141 0.213198C26.9881 0.213198 27.2997 0.275528 27.5491 0.400188C27.7984 0.400188 27.9854 0.462518 28.11 0.587178L27.1751 1.33515C24.0585 2.58176 21.69 4.51402 20.0694 7.13192C18.6981 9.74981 17.8255 12.6794 17.4515 15.9206C17.0775 19.0371 16.8905 23.7119 16.8905 29.945V118.766ZM50.7361 118.766V29.945C50.7361 13.4897 46.56 3.95304 38.2076 1.33515L37.2727 0.774168C37.896 0.400188 38.3946 0.213198 38.7686 0.213198C57.7172 3.70372 67.1915 15.0479 67.1915 34.2458V118.766H50.7361Z" fill="#9C1F2A"/>
</svg>
