<svg width="71" height="127" viewBox="0 0 71 127" fill="none" xmlns="http://www.w3.org/2000/svg">
<path d="M17.4949 0.823503V95.2025C17.4949 101.826 17.6936 106.859 18.091 110.303C18.4884 113.615 19.4156 116.727 20.8727 119.642C22.5947 122.291 25.1115 124.278 28.423 125.602L30.0126 126.397C29.0853 126.662 28.3568 126.795 27.8269 126.795C21.9986 125.735 17.0313 123.483 12.925 120.039C8.81868 116.595 5.6396 112.158 3.38775 106.727C1.1359 101.163 0.00997528 95.7985 0.00997528 90.6325V0.823503H17.4949ZM53.4583 0.823503H70.9432V90.6325C70.9432 100.037 68.6251 107.919 63.989 114.277C59.4853 120.635 51.7363 124.808 40.742 126.795C40.0796 126.795 39.616 126.728 39.3511 126.596C39.2186 126.463 39.1524 126.331 39.1524 126.199L40.1459 125.602C49.0208 122.821 53.4583 112.687 53.4583 95.2025V0.823503Z" fill="#9C1F2A"/>
</svg>
