<svg width="119" height="140" viewBox="0 0 119 140" fill="none" xmlns="http://www.w3.org/2000/svg">
<path d="M76.6814 0.315691V126.287H59.1965V0.315691H76.6814ZM2.3704 44.028L12.9011 47.4058L21.6436 49.9888L19.6567 58.7313C19.6567 67.7387 21.9747 74.8916 26.6109 80.1901C31.2471 85.4886 37.1416 88.1378 44.2945 88.1378C46.9438 88.1378 50.1891 87.6079 54.0305 86.5483C54.8252 86.5483 55.3551 86.6145 55.62 86.7469C55.62 86.8794 55.6862 87.0119 55.8187 87.1443C55.1564 87.8066 54.5603 88.2703 54.0305 88.5352C49.7917 90.2572 45.2218 91.1182 40.3207 91.1182C34.2274 91.1182 28.0017 89.8598 21.6436 87.343C15.4179 84.6938 10.2519 80.8524 6.14556 75.8189C2.17171 70.6529 0.18478 64.6921 0.18478 57.9365C0.18478 54.4925 0.913319 49.8564 2.3704 44.028ZM83.2383 124.697C103.902 124.697 115.625 126.949 118.407 131.453C117.082 132.38 114.433 133.638 110.459 135.228L102.511 139.003L98.1402 134.632C95.3585 132.115 92.8417 130.062 90.5899 128.472C88.338 127.015 85.755 126.287 82.8409 126.287C81.6487 126.287 80.9202 126.221 80.6553 126.088C80.3903 126.088 80.1917 125.956 80.0592 125.691C80.4566 125.426 80.7215 125.293 80.854 125.293C81.7812 124.896 82.576 124.697 83.2383 124.697Z" fill="#9C1F2A"/>
</svg>
