<svg width="90" height="125" viewBox="0 0 90 125" fill="none" xmlns="http://www.w3.org/2000/svg">
<path d="M42.6445 124.697C38.0752 124.697 32.331 123.326 25.4117 120.584C18.6231 117.843 12.683 113.861 7.59151 108.639C2.63057 103.286 0.150093 97.0197 0.150093 89.8394C0.150093 88.5339 0.280645 87.62 0.541747 87.0978L1.52088 84.7479L2.89167 81.8105L12.4872 83.9646L21.4952 86.1187C20.8425 87.4242 20.255 88.9255 19.7328 90.6227C19.2106 92.1893 18.9495 93.4948 18.9495 94.5392L20.1244 101.393C21.0383 105.179 23.1271 108.835 26.3909 112.359C29.263 115.493 32.331 118.038 35.5947 119.997C38.8585 121.955 41.4695 123.065 43.4278 123.326L46.1694 123.913L42.6445 124.697ZM41.6654 0.542381C43.4931 0.542381 45.4513 0.672931 47.5402 0.93403C49.629 1.06458 52.8275 1.78261 57.1357 3.08812C61.4439 4.26308 65.752 6.41717 70.0602 9.5504C74.3684 12.5531 77.11 16.5349 78.285 21.4958C78.8072 23.4541 79.0683 24.7596 79.0683 25.4124C79.1988 25.9346 79.2641 26.8484 79.2641 28.1539C79.2641 31.0261 78.4808 33.9635 76.9142 36.9661C75.217 36.1828 72.4102 35.2037 68.4936 34.0287L59.8772 31.0913C61.3133 27.8276 62.0313 25.1513 62.0313 23.0624C62.0313 21.3653 61.705 19.407 61.0522 17.1876C57.6579 7.13521 51.3914 2.10899 42.2528 2.10899C41.0779 1.97844 40.3598 1.84789 40.0987 1.71734C39.9682 1.58679 39.8376 1.45624 39.7071 1.32568C40.4904 0.80348 41.1432 0.542381 41.6654 0.542381ZM33.4406 2.10899L37.1613 1.52151L38.1405 1.91316C38.0099 2.04371 37.8794 2.10899 37.7488 2.10899C36.7044 2.8923 35.66 3.47978 34.6156 3.87143C31.3518 4.65473 28.7408 7.00465 26.7825 10.9212C24.9548 14.7072 24.041 18.4932 24.041 22.2791C24.041 28.2845 26.5214 33.2454 31.4824 37.162C33.8323 38.9897 37.0961 41.2091 41.2737 43.8201C45.5819 46.3006 50.347 49.0421 55.5691 52.0448C66.927 58.0502 75.4128 63.9902 81.0265 69.865C86.7708 75.6093 89.6429 82.9202 89.6429 91.7976C89.6429 97.1502 87.8152 102.372 84.1598 107.464C80.6349 112.425 76.0656 116.341 70.4519 119.213C67.1881 121.041 64.1854 122.412 61.4439 123.326C58.8328 124.24 56.0913 124.697 53.2191 124.697C52.4358 124.697 51.8483 124.566 51.4567 124.305C51.1956 124.174 50.9998 124.044 50.8692 123.913C51.7831 123.522 52.5011 123.326 53.0233 123.326C55.6343 123.326 58.637 122.02 62.0313 119.409C65.8173 117.059 68.9506 113.926 71.431 110.01C74.042 105.962 75.3476 102.176 75.3476 98.6516C75.3476 90.2963 72.4754 83.5076 66.7312 78.2856C63.598 75.544 59.9425 72.8024 55.7649 70.0609C51.7178 67.1887 46.8221 64.3166 41.0779 61.4445C30.1116 55.4391 21.8216 50.1518 16.2079 45.5825C10.7247 41.0132 7.98316 35.0732 7.98316 27.7623C7.98316 15.0988 16.469 6.54773 33.4406 2.10899Z" fill="#9C1F2A"/>
</svg>
