<svg width="77" height="125" viewBox="0 0 77 125" fill="none" xmlns="http://www.w3.org/2000/svg">
<path d="M76.5684 30.8863C76.5684 34.9334 75.8504 39.3068 74.4143 44.0067L65.0146 40.8735L57.3774 38.1319C58.2912 34.607 58.7482 30.4946 58.7482 25.7948C58.7482 21.3561 58.0954 17.3743 56.7899 13.8494C55.0927 9.93283 53.0692 6.93016 50.7193 4.84134C48.3693 2.62197 45.8236 1.51228 43.082 1.51228C42.2987 1.51228 41.7112 1.44701 41.3196 1.31646C41.0585 1.18591 40.7974 0.990082 40.5363 0.728975C41.8418 0.337327 42.9515 0.141502 43.8653 0.141502C49.7401 0.141502 55.2233 1.51229 60.3148 4.25386C65.2757 7.25653 69.1923 11.1078 72.0644 15.8076C75.0671 20.3769 76.5684 25.4031 76.5684 30.8863ZM17.8204 124.296H0.58762V33.6279C0.58762 26.8392 2.02368 21.2908 4.89581 16.9826C7.76793 12.6744 11.3581 9.34535 15.6663 6.99543C19.9745 4.51496 25.4576 2.36087 32.1157 0.533151L34.4656 0.141502H35.4448C35.1837 0.272052 34.8573 0.533151 34.4656 0.924799C34.074 1.18591 33.4865 1.44701 32.7032 1.70811C29.1783 2.88307 25.784 5.95102 22.5202 10.912C19.387 15.8729 17.8204 21.9435 17.8204 29.1239V124.296Z" fill="#9C1F2A"/>
</svg>
