<svg width="129" height="126" viewBox="0 0 129 126" fill="none" xmlns="http://www.w3.org/2000/svg">
<path d="M60.4044 0.882713C61.4489 0.882713 61.9711 1.33964 61.9711 2.25349C61.9711 3.0368 61.5141 3.42845 60.6003 3.42845C55.1171 3.42845 52.3756 7.93247 52.3756 16.9405C52.3756 21.2487 53.2894 24.8388 55.1171 27.711C57.0754 30.4525 59.817 31.8233 63.3419 31.8233C70.5222 31.8233 74.1123 26.8624 74.1123 16.9405C74.1123 7.93247 70.7833 3.42845 64.1252 3.42845C63.603 3.42845 63.2113 3.2979 62.9502 3.0368C62.6891 2.7757 62.5585 2.57987 62.5585 2.44932C62.5585 1.40492 63.146 0.882713 64.321 0.882713C68.107 0.882713 71.9582 1.60074 75.8748 3.0368C79.9218 4.47286 83.2509 6.43113 85.8619 8.9116C88.6035 11.3921 89.9743 14.0684 89.9743 16.9405C89.9743 19.2904 88.8646 21.5098 86.6452 23.5986C84.4259 25.6874 81.619 27.6457 78.2247 29.4734L72.5457 32.8025C79.5955 33.8469 86.7105 35.544 93.8908 37.894C97.5463 38.9384 101.332 40.6355 105.249 42.9855C109.165 45.2048 113.082 47.8811 116.998 51.0144C124.44 57.5419 128.161 66.2236 128.161 77.0593C128.161 83.7174 125.549 90.7672 120.327 98.2086C115.105 105.65 107.795 111.982 98.3948 117.204C89.1257 122.426 79.1385 125.037 68.4333 125.037C67.3889 125.037 66.6709 124.972 66.2792 124.841C66.0181 124.841 65.6918 124.71 65.3001 124.449C65.5612 124.188 65.757 124.058 65.8876 124.058C66.8015 123.666 67.5848 123.47 68.2375 123.47C76.4622 123.47 83.6426 121.447 89.7785 117.4C95.9144 113.222 100.614 107.608 103.878 100.559C107.272 93.5088 108.969 85.6757 108.969 77.0593C108.969 61.2626 104.727 50.1005 96.2407 43.5729C87.7549 37.0454 76.7886 33.7816 63.3419 33.7816C53.42 33.7816 44.4119 35.9357 36.3178 40.2439C28.2236 44.4215 21.9571 49.9047 17.5184 56.6933L8.31454 53.5601L0.089817 50.6227C4.00635 47.62 8.44509 45.009 13.406 42.7896C18.367 40.4397 23.1321 38.6773 27.7014 37.5023C32.2707 36.3273 37.1663 35.3482 42.3884 34.5649L54.138 32.8025L47.4799 29.4734C44.3467 27.9068 41.4745 26.0138 38.8635 23.7944C36.2525 21.4445 34.947 19.1599 34.947 16.9405C34.947 14.9822 36.3178 12.6976 39.0593 10.0866C41.8009 7.34499 45.13 5.12562 49.0465 3.42845C51.0048 2.5146 52.8978 1.86184 54.7255 1.47019C56.6837 1.07854 58.5767 0.882713 60.4044 0.882713ZM20.6516 86.2632L26.7223 96.2503C29.3333 101.211 32.1401 105.65 35.1428 109.567C38.1455 113.483 41.4745 116.682 45.13 119.162C47.3493 120.598 49.4382 121.708 51.3964 122.491C53.4852 123.144 55.7046 123.47 58.0545 123.47C58.8378 123.601 59.36 123.731 59.6211 123.862C60.0128 123.992 60.3392 124.188 60.6003 124.449C59.6864 124.841 58.8378 125.037 58.0545 125.037C52.5714 125.037 45.848 123.666 37.8844 120.924C29.9208 118.052 22.4793 114.005 15.5601 108.783C8.64092 103.431 4.20218 97.2295 2.24391 90.1797L8.90202 88.8089L15.9518 87.2423L20.6516 86.2632Z" fill="#9C1F2A"/>
</svg>
