<svg width="131" height="126" viewBox="0 0 131 126" fill="none" xmlns="http://www.w3.org/2000/svg">
<path d="M57.1642 0.0721664H74.3969V125.205H57.1642V0.0721664ZM50.8977 1.63877C42.673 6.46916 36.276 11.2343 31.7067 15.9341C29.3568 18.284 27.4638 20.634 26.0277 22.9839C24.5916 25.3338 23.3514 28.0754 22.307 31.2086C20.6098 36.4307 19.7613 43.2193 19.7613 51.5746C19.7613 58.4938 21.132 65.0866 23.8736 71.3531C26.7457 77.6195 30.5317 83.3638 35.2316 88.5858C39.9314 93.6773 45.1535 98.1161 50.8977 101.902C41.2369 99.9438 32.5553 96.2231 24.8527 90.7399C17.2808 85.1262 11.3407 78.664 7.03252 71.3531C2.72433 64.0422 0.570234 57.4494 0.570234 51.5746C0.570234 46.6136 2.33267 40.6736 5.85756 33.7544C9.51299 26.7046 15.0614 20.2423 22.5028 14.3675C29.9442 8.49271 39.4092 4.2498 50.8977 1.63877ZM80.8592 1.63877C92.3477 4.2498 101.813 8.49271 109.254 14.3675C116.695 20.2423 122.179 26.7046 125.704 33.7544C129.228 40.6736 130.991 46.6136 130.991 51.5746C130.991 54.7078 130.469 57.841 129.424 60.9743C128.51 64.1075 126.944 67.5018 124.724 71.1573C120.547 78.3376 114.541 84.7999 106.708 90.5441C99.0058 96.1578 90.3894 99.9438 80.8592 101.902C86.6034 98.1161 91.8255 93.6773 96.5253 88.5858C101.225 83.3638 104.946 77.6848 107.687 71.5489C110.56 65.2825 111.996 58.6244 111.996 51.5746C111.996 43.2193 111.082 36.3001 109.254 30.817C107.557 25.3338 104.489 20.3729 100.05 15.9341C97.9614 13.5842 95.2851 11.2343 92.0213 8.88436C88.7575 6.40389 85.0368 3.98869 80.8592 1.63877Z" fill="#9C1F2A"/>
</svg>
