<svg width="124" height="126" viewBox="0 0 124 126" fill="none" xmlns="http://www.w3.org/2000/svg">
<path d="M69.609 0.856346C72.22 0.856346 73.5255 1.18272 73.5255 1.83548C73.1339 2.09658 72.4811 2.2924 71.5673 2.42295C70.7839 2.5535 70.1312 2.61878 69.609 2.61878C66.7369 2.61878 64.1258 4.05484 61.7759 6.92697C59.5565 9.79909 57.7288 13.3893 56.2928 17.6974C54.8567 22.0056 54.1387 26.0527 54.1387 29.8387V125.01H36.9059V34.3427C36.9059 25.9874 38.8642 19.3293 42.7807 14.3684C46.3056 9.53799 50.6791 6.07838 55.9011 3.98957C61.2537 1.90075 65.823 0.856346 69.609 0.856346ZM34.3602 79.7745C26.5271 79.7745 20.0648 78.8607 14.9733 77.0329C12.6234 76.2496 10.2735 75.0094 7.92357 73.3122C5.57365 71.6151 3.09317 69.461 0.482151 66.8499L7.92357 65.2833L16.5399 63.3251L20.0648 69.5915C20.9787 71.4192 22.0231 72.8553 23.1981 73.8997C24.373 75.2052 25.8743 76.2496 27.7021 77.0329C29.3992 77.5551 30.6395 77.8815 31.4228 78.0121C32.3366 78.0121 33.3158 78.0121 34.3602 78.0121C34.7518 78.0121 35.0129 78.1426 35.1435 78.4037C35.4046 78.5343 35.6004 78.6648 35.731 78.7954C35.2088 79.4481 34.7518 79.7745 34.3602 79.7745ZM96.0456 29.8387C96.0456 26.5749 95.5234 23.05 94.479 19.2641C93.5651 15.3475 91.868 11.8879 89.3875 8.88523C87.0376 5.62146 83.5127 3.59792 78.8128 2.81461C77.7684 2.68405 76.9851 2.5535 76.4629 2.42295C76.0713 2.2924 75.7449 2.0313 75.4838 1.63964L79.5961 1.44382C84.6876 1.96602 89.9097 3.79374 95.2623 6.92697C100.615 10.0602 105.054 14.1726 108.579 19.2641C112.234 24.225 114.062 29.2512 114.062 34.3427C114.062 41.1314 112.038 47.202 107.991 52.5546C104.074 57.9072 98.9177 61.9543 92.5207 64.6959C86.2543 67.4374 79.5309 68.8082 72.3506 68.8082L68.0424 68.4166L64.9091 67.4374L61.5801 66.0666L58.251 64.5L57.0761 63.5209C57.5983 63.1292 58.0552 62.9334 58.4469 62.9334C64.0606 63.9778 68.6299 64.5 72.1547 64.5C77.5073 64.5 82.0113 63.3903 85.6668 61.171C89.0611 58.8211 91.6069 55.1656 93.304 50.2047C95.1317 45.1132 96.0456 38.3245 96.0456 29.8387ZM57.0761 77.6204H67.6507L90.7583 78.2079C94.2832 78.2079 97.4164 78.4037 100.158 78.7954C103.03 79.0565 106.947 79.7092 111.908 80.7536C116.999 81.6675 120.72 83.2994 123.07 85.6493C114.192 89.9575 109.035 92.7644 107.599 94.0699C105.38 89.8922 99.3094 86.4326 89.3875 83.691C79.4656 80.8189 68.6951 79.3829 57.0761 79.3829C56.6844 79.3829 56.358 79.2523 56.0969 78.9912C55.8358 78.7301 55.7053 78.5343 55.7053 78.4037C56.2275 77.8815 56.6844 77.6204 57.0761 77.6204Z" fill="#9C1F2A"/>
</svg>
