<svg width="86" height="124" viewBox="0 0 86 124" fill="none" xmlns="http://www.w3.org/2000/svg">
<path d="M0.137913 62.2556C0.137913 54.0309 0.986495 46.1978 2.68366 38.7564C4.51138 31.315 7.25295 24.7874 10.9084 19.1737C14.5638 13.56 19.0678 9.12125 24.4204 5.85748C29.9036 2.5937 36.0395 0.961815 42.8281 0.961815C52.0973 0.961815 59.9956 3.70339 66.5232 9.18654C72.6591 14.278 77.4242 21.5889 80.8185 31.1191C82.2546 35.6884 83.3643 40.5841 84.1476 45.8061C84.9309 51.0282 85.3225 56.5113 85.3225 62.2556C85.3225 71.2636 84.3434 79.4883 82.3851 86.9297C80.4269 94.3712 77.4895 100.899 73.5729 106.512C70.1786 111.604 65.7399 115.782 60.2567 119.045C54.7736 121.917 48.964 123.354 42.8281 123.354C36.4311 123.354 30.6216 121.917 25.3996 119.045C20.1775 116.043 15.6082 111.8 11.6917 106.317C7.90571 100.703 5.03358 94.1101 3.07531 86.5381C1.11705 78.9661 0.137913 70.872 0.137913 62.2556ZM15.0207 62.2556C15.0207 69.9581 15.8693 78.0523 17.5665 86.5381C19.3942 94.8934 22.3316 102.204 26.3787 108.471C30.5563 114.607 36.0395 117.675 42.8281 117.675C48.964 117.675 54.1208 114.607 58.2985 108.471C62.6066 102.204 65.7399 94.7628 67.6981 86.1464C69.6564 77.3995 70.6355 69.4359 70.6355 62.2556C70.6355 50.2449 69.7217 40.0619 67.894 31.7066C66.0662 23.3513 63.0636 17.1502 58.8859 13.1031C54.7083 8.79488 49.3557 6.64079 42.8281 6.64079C36.3006 6.64079 30.948 8.79488 26.7703 13.1031C22.7233 17.2807 19.7206 23.5472 17.7623 31.9024C15.9346 40.1272 15.0207 50.2449 15.0207 62.2556Z" fill="#9C1F2A"/>
</svg>
