<svg width="130" height="126" viewBox="0 0 130 126" fill="none" xmlns="http://www.w3.org/2000/svg">
<path d="M51.1715 0.961815C50.7799 1.09236 50.0618 1.35346 49.0174 1.74511C48.1036 2.00622 47.0592 2.39787 45.8842 2.92008C42.6204 4.48669 39.4872 6.83661 36.4845 9.96983C33.7429 13.3642 32.3721 17.7376 32.3721 23.0902C32.3721 26.4846 34.004 30.4011 37.2678 34.8398C40.5316 39.2786 45.8842 42.6729 53.3256 45.0228C27.7376 41.6285 14.9436 33.7954 14.9436 21.5236C14.9436 17.0849 16.9018 13.2989 20.8184 10.1657C24.7349 7.03244 29.5 4.74779 35.1137 3.31173C40.7274 1.74512 46.08 0.961815 51.1715 0.961815ZM16.5102 100.05C19.9045 106.055 24.8002 111.604 31.1972 116.695C34.5915 119.437 37.9858 121.526 41.3802 122.962C44.9051 124.398 48.691 125.116 52.7381 125.116H42.3593C40.401 125.116 38.1817 124.855 35.7012 124.333C33.3513 123.81 30.675 123.092 27.6723 122.179C21.4059 120.09 15.9227 117.87 11.2229 115.52C8.87294 114.345 6.65357 113.105 4.56475 111.8C2.60649 110.494 1.17042 109.45 0.256565 108.667C1.03987 107.883 2.41066 106.969 4.36893 105.925C5.41334 105.403 6.78412 104.75 8.48129 103.967C12.3978 102.661 15.0741 101.356 16.5102 100.05ZM55.8714 0.961815H73.1041V125.116H55.8714V0.961815ZM129.502 89.2797C129.502 92.1518 128.784 95.4156 127.348 99.071C126.043 102.988 123.432 106.969 119.515 111.016C117.818 112.844 115.599 114.672 112.857 116.5C110.115 118.327 107.113 119.894 103.849 121.199C97.1908 123.941 88.8355 125.312 78.7831 125.312C77.8692 125.312 77.2165 125.181 76.8248 124.92C76.4332 124.79 76.1721 124.594 76.0415 124.333C76.3026 124.072 76.4984 123.941 76.629 123.941C77.4123 123.549 78.0651 123.354 78.5873 123.354C85.2454 123.354 90.9243 121.917 95.6242 119.045C100.455 116.043 104.11 111.996 106.59 106.904C109.071 101.682 110.311 95.8072 110.311 89.2797C110.311 81.0549 108.679 74.0705 105.416 68.3262C102.152 62.582 97.9088 58.2085 92.6868 55.2058C87.5953 52.0726 82.5691 50.506 77.6081 50.506C76.5637 50.506 75.8457 50.4407 75.454 50.3101C75.0624 50.049 74.8013 49.7879 74.6707 49.5268C74.9318 49.2657 75.3235 49.0699 75.8457 48.9394C76.3679 48.8088 77.1512 48.7435 78.1956 48.7435C79.6317 48.7435 81.5247 48.9394 83.8746 49.331C86.2245 49.7227 88.8355 50.2449 91.7076 50.8976C97.0602 52.2031 102.674 54.4878 108.549 57.7516C114.554 60.8848 119.515 65.1277 123.432 70.4803C127.479 75.8329 129.502 82.0994 129.502 89.2797Z" fill="#9C1F2A"/>
</svg>
