<svg width="22" height="20" viewBox="0 0 22 20" fill="none" xmlns="http://www.w3.org/2000/svg">
<path d="M12.8275 0.561431C12.9405 0.625292 13.0345 0.718002 13.0999 0.830091C13.1654 0.94218 13.1999 1.06963 13.2 1.19943V18.7994C13.2 18.9292 13.1656 19.0566 13.1003 19.1687C13.035 19.2808 12.9411 19.3736 12.8282 19.4376C12.7153 19.5016 12.5875 19.5344 12.4578 19.5329C12.328 19.5313 12.201 19.4953 12.0897 19.4286L4.93093 15.1328H2.2C1.61652 15.1328 1.05695 14.901 0.644365 14.4884C0.231785 14.0758 0 13.5162 0 12.9328L0 7.0617C0.000388815 6.47848 0.232345 5.91927 0.644883 5.50701C1.05742 5.09475 1.61678 4.86316 2.2 4.86316H4.93093L12.0883 0.570231C12.1997 0.503432 12.3268 0.467418 12.4567 0.465872C12.5866 0.464326 12.7145 0.497303 12.8275 0.561431ZM20.3192 5.0773L19.8 4.55956L18.7631 5.5965L19.2779 6.11276L19.2823 6.1157L19.3116 6.14796C19.5323 6.41785 19.7222 6.71154 19.8777 7.02356C20.2004 7.66743 20.5333 8.6545 20.5333 9.99356C20.5333 11.3326 20.1989 12.3197 19.8777 12.9636C19.7541 13.2137 19.6083 13.4522 19.4421 13.6764C19.3912 13.7437 19.3374 13.8088 19.2808 13.8714L19.2779 13.8758L18.7631 14.3892L19.8 15.4276L20.3192 14.9098L19.8 14.3906L20.3192 14.9098L20.3207 14.9069L20.3236 14.904L20.3309 14.8966L20.3515 14.8761L20.4145 14.8057C20.4659 14.747 20.5348 14.6634 20.6155 14.5564C20.7768 14.3422 20.9836 14.0284 21.1889 13.6192C21.5996 12.7978 22 11.5864 22 9.99356C22 8.40076 21.6011 7.19076 21.1889 6.36796C21.0266 6.03912 20.8352 5.72547 20.6169 5.43076C20.5337 5.32041 20.4451 5.21419 20.3515 5.1125L20.3309 5.0905L20.3236 5.08316L20.3207 5.08023C20.3207 5.07876 20.3177 5.0773 19.8 5.5965L20.3192 5.0773Z" fill="white"/>
</svg>
